<mxfile modified="2021-05-14T14:17:00.481Z" host="app.diagrams.net" agent="5.0 (Windows NT 10.0; Win64; x64) AppleWebKit/537.36 (KHTML, like Gecko) Chrome/90.0.4430.212 Safari/537.36" etag="e0WsDNbd9e2gwl5u6y06" version="14.6.6" type="github">
  <diagram id="Ht1M8jgEwFfnCIfOTk4-" name="Page-1">
    <mxGraphModel dx="3342" dy="1225" grid="1" gridSize="10" guides="1" tooltips="1" connect="1" arrows="1" fold="1" page="1" pageScale="1" pageWidth="1169" pageHeight="827" math="0" shadow="0">
      <root>
        <mxCell id="0" />
        <mxCell id="1" parent="0" />
        <mxCell id="-QjtrjUzRDEMRZ5MF8oH-47" value="Approvals App Cloud Services/AWS" style="text;html=1;resizable=0;points=[];autosize=1;align=left;verticalAlign=top;spacingTop=-4;fontSize=30;fontStyle=1" parent="1" vertex="1">
          <mxGeometry x="56.5" y="64.5" width="530" height="40" as="geometry" />
        </mxCell>
        <mxCell id="-QjtrjUzRDEMRZ5MF8oH-48" value="Architecture" style="text;html=1;resizable=0;points=[];autosize=1;align=left;verticalAlign=top;spacingTop=-4;fontSize=16;" parent="1" vertex="1">
          <mxGeometry x="56.5" y="114.5" width="100" height="20" as="geometry" />
        </mxCell>
        <mxCell id="SCVMTBWpLvtzJIhz15lM-1" value="" style="line;strokeWidth=2;html=1;fontSize=14;" parent="1" vertex="1">
          <mxGeometry x="52.5" y="139.5" width="1060" height="10" as="geometry" />
        </mxCell>
        <mxCell id="Nt8Wr1XZAe8mfdTWKBez-63" value="" style="endArrow=none;dashed=1;html=1;dashPattern=1 3;strokeWidth=2;" edge="1" parent="1">
          <mxGeometry width="50" height="50" relative="1" as="geometry">
            <mxPoint x="1142.5" y="1311.25" as="sourcePoint" />
            <mxPoint x="92.5" y="1311" as="targetPoint" />
          </mxGeometry>
        </mxCell>
        <mxCell id="Nt8Wr1XZAe8mfdTWKBez-64" value="" style="endArrow=none;dashed=1;html=1;dashPattern=1 3;strokeWidth=2;" edge="1" parent="1">
          <mxGeometry width="50" height="50" relative="1" as="geometry">
            <mxPoint x="1102.5" y="600.25" as="sourcePoint" />
            <mxPoint x="52.5" y="600" as="targetPoint" />
          </mxGeometry>
        </mxCell>
        <mxCell id="Nt8Wr1XZAe8mfdTWKBez-65" value="" style="group" vertex="1" connectable="0" parent="1">
          <mxGeometry x="92.5" y="1322" width="531.9999999999999" height="271.25" as="geometry" />
        </mxCell>
        <mxCell id="Nt8Wr1XZAe8mfdTWKBez-3" value="Reverse Proxy" style="points=[[0,0,0],[0.25,0,0],[0.5,0,0],[0.75,0,0],[1,0,0],[0,1,0],[0.25,1,0],[0.5,1,0],[0.75,1,0],[1,1,0],[0,0.25,0],[0,0.5,0],[0,0.75,0],[1,0.25,0],[1,0.5,0],[1,0.75,0]];outlineConnect=0;gradientDirection=north;dashed=0;verticalLabelPosition=bottom;verticalAlign=top;align=center;html=1;fontSize=12;fontStyle=0;aspect=fixed;shape=mxgraph.aws4.resourceIcon;resIcon=mxgraph.aws4.networking_and_content_delivery;" vertex="1" parent="Nt8Wr1XZAe8mfdTWKBez-65">
          <mxGeometry x="65.5" y="113.43000000000029" width="87.82" height="87.82" as="geometry" />
        </mxCell>
        <mxCell id="Nt8Wr1XZAe8mfdTWKBez-43" value="Xilinx Internal" style="text;html=1;resizable=0;points=[];autosize=1;align=left;verticalAlign=top;spacingTop=-4;fontSize=16;fontStyle=1" vertex="1" parent="Nt8Wr1XZAe8mfdTWKBez-65">
          <mxGeometry x="98" y="53.5" width="120" height="20" as="geometry" />
        </mxCell>
        <mxCell id="Nt8Wr1XZAe8mfdTWKBez-46" value="" style="shape=curlyBracket;whiteSpace=wrap;html=1;rounded=1;fontSize=14;" vertex="1" parent="Nt8Wr1XZAe8mfdTWKBez-65">
          <mxGeometry y="53.5" width="20" height="217.75" as="geometry" />
        </mxCell>
        <mxCell id="Nt8Wr1XZAe8mfdTWKBez-54" value="" style="shape=image;verticalLabelPosition=bottom;labelBackgroundColor=#ffffff;verticalAlign=top;aspect=fixed;imageAspect=0;image=data:image/png,iVBORw0KGgoAAAANSUhEUgAAACwAAAA7CAYAAAAAV2giAAAAAXNSR0IArs4c6QAAAARnQU1BAACxjwv8YQUAAAAJcEhZcwAADsMAAA7DAcdvqGQAAAqSSURBVGhD7VlrbFTHFZ4797UPY+z12l6bmKdDjGtDsQED5WFLlL7SRDS0aYhSWrUqqkKUlxTUH5WLkNo0RUpV0bRqRR/Jj0q0SUOjBpKI1AaMMWAnkJaSYIJTm7e93jXr3b2Pmek5s9cuhrUxCeZH628Z5s7jnvvdM2fOOXNNJjGJSUxiEpP4n4bi1aPi9NovrA8mUs+nmaA2F0TVVW8kAw4SqMALThTGiE+4SarQrQ6njzuUlgpVIQImUOHK+YLq+J+8vh4K4UR1HOIEzOQlv/mtlXv3HvSGhjEm4XeqFi+fcTW+O8dKhS2mEBemKwrcoiLDDCzXJRonQJQS1zSJVRR6rPD4kRcS5RWr9LT72qDt5MDbEAoFa64A2VEIa4KDLO5eDeU/HTl98ude9wiMSvhYdW1FyWB6H2WsVHCHMIEkKaFIGICaxUIYkHE4CSkm7y2LPDfjaNP35QRAd0XFBp5iO0HBPkYyL0mBFEJIeSOh4otT/dn3ykt/0NDUlFmS65CVcMfChaXFcXuPz3HmDyicwNISVREE/hEFWA6RRVPQQWOcERII5rw4GKnaNKvp9+mMFCAFU/5ZWf1EMMV+QijVGJBFTQsBNwA4kEYZWJBIUjV2cT95pOrkSVtOyIIbCJ+uq8sNRlMvC8de44JgBjbIYAWRrMpBw95ycuoSA9p+oRHH73/77FS6bmlb24AcvAbI58KcyucdxjeDOVAhn4imAeRhUIP7ffD2sJL7u8OR+xe+2xSTN46CEcb0j8pKIzdq7fTZ7hpsg9kSXEoki8IzoNCmkizC8ZsdsWDwwWxkESCCW2VFW1yfsUuHjani5vTkIXcdzCBJ6cn+aZGHb0YWMUz47/X12l2Wuo2nk+uTsL1QuziIdnXNHpMbBrXsAwsTqtrVHSQP39Pe1OuNZsWspqZ0Kr/k0QBRmnTwFqosnOhgGSD/4tX8vIfubmvq8aaPiWHCd0UTmw3LesoBg3RAGG4K1IQGehjSBgJdD9gjuWposYFw3kOL2ttPeUNjoqr1jWh0WtmDaZWeQk37XQ4rSAcuFYU3VnccOOFNuykk4Q+WNWzwJe0fR7nQHE0lXAVfq6jgwlQicHeBbWCtgB8OgE2TgJboCU3dWNnWclhKGSfKD715OR0Jf9V02L9zk7at5uY+Vt2+/01veFxQ/jq/tuaeZGpfkpE8TlWSJjYQpdK3ogsTQBKBGw81PUXTiZ0TfHJBR+vP5MDHwInly1cVcH1p6efqtytbt8KTxg+lcc6cItrTs0cVeo2qg+Pn4FEomAEOImEwDZSIikZQMBmqGbsYaHhrV9ewC7tTkDSeqpg1158gexTLms1xyT2XgJoe8u/oMRCSMBiHqRo7WPnMp7eO4uAnCjIxaO2N9S0vLDg2VeHruOv6sVMFprLG/AH9pOxDN0SJLoSicrY4NXg1ejAWa0MZdwrDmUxLf3/3osLCE7rjrNcZ05Cigp4C7AFrAh5/yGuAocA1un7SML+46KMj0ei4d/knxTBhxMH+/s7Vofw+v2WvFRRdBeoVXBwwRYtAovgDWwEzV9FytIDjrKkNFxxujcW6pJAJxgjCiPqBgQ4yJcdQBV2FKuVUqhhGpAeUmw9bmHSh2egCzJnxtbWh4r2t8egVOWkCcQPhZuCzcubMFiU1WGxwp5aDx2DSDIAhRDipa6lxyDOIQyxUvapOCSi8YUmo9PWWWO9Nw+snwQ2EEc1XrrCKQKDJ0EgNMCxHY80oGkljjYSxI5MYUWgbjBWqwl5SXRz5M9i05Ym67chKGHE0mbQrikvf8rlug99hpZpHdChMUwGREGqwZHgJTlzwJorjlBXb9pyl8+a93nzhgiMF3WbgM8fEb2eU1wRtuxWIGnhaQPvFWlE02IygZdA0k8kSnDwcl+QLzpOl0x7/2vHjO6SA24wxCZ+rrQ04aeUlnYmveF1y08moB4QRKnWAPGxOIOymLFLkyzncmRu+fwHkDXLCbcaohDHdrPrwyi8Z499BgpmjDZaMhjE5kk5aOEQwm+gQIbk/pzMWzF9d8U7LeTlxApDVhmHZqeILb1Es+0lLpdQBTyHdGfB0IdwxbEOKyUGzTO5GiIC6cfFyKPzAp9pb3vfETAiyavijeQu/YTLyGzuZMmS6iYQgh0VgfMNjDiZG6J517hIeCCSiuTkPfLrt0C2lih8HoLOR+NeCJff6bfcXtp0yOGiTKgzCMXhiYEch/VRUHdZFhx5g6zjEb7O0klew6U6QRYzQcHvNyvmFicQ+M5kKp8EtoCYpqhEAepU2Ie0XW3jy5dw1idE4rfvUszA1swQTjGENv1+9aPb0xMCfiJ0hi+c2PCVrTJPX0qEpmfMYmkcQbzX9v45NodvvFFmE3HTH5y8vKnCSf/G5rHoQvIGtAj3QJMcEHjYXRjOOGodaBXem6AbYre+Vs5HQprqjRycsqmWDcqz23kBh6twfbWbfhycNBoTwcwcCoxp+7EBgkEDr0BgQ9/sPnw/5v9zQNPZpeSKg/GH63BWRvr59ccU1bMiCMeMFg8iMAq79pIRHfoNqJK3RjY/0nXvR675lPDqrYq4inModXWde9brGDXVBvK8n5vNZlwRriMKZKAqdfaDj6FABm42CT8DSjzV3SNKnfabOZ+4/kEqdy4gZP54pKyvNt6yXg6777bq8gsMtA7eWR6uYTi5bvrTNTqciqq4v4qZOBBTiFWFgbcgioDBI4dKcB8G+G2oikd1t/f1xT9ZN8c2ZM32FjvOKn/FlmhAmhJ811aH8N47E4+POo4fdWiMIM9P27xzufH3MLe9FPYSgZoelq1/6aVfXxUzP6ECyZba7U2XuBtwbKAL3BRx6P0iqRsNz3d3jCufDobk5FnNXRIrfgjxxtcrdMnRj1xcMHkM/zIE1xkr8Lq1cmRt8tTmRGDWdbCT1Wp4vus3k7LvywAVsZbQEObogBbBjFkAevXs8efSIXKIZbqgLF7xtcPF5UEIYGILUawo8Qp494GlYsAe8yN2CGoX1ifheMK+si7OqhG+GE8APgao69N0AtSwpw4qBn5/ts0TZ6hnT/oaHBzlhFNyQ/LTEYrHa4uJmjZP7wCvkSlWAYPTJUjVIGQmjnrGJbc4WGsEcdUVy8MD1pJ+ZPmt9gDm/gnmwGeAGmfXJKwn093htclLFLDewOhHfh/sqM3ojsmZrh/r7Ly8OlRw3XXcdJDkmBg/8AIiBAzWtyCACj4Fr2YfPpHRpIhS6eCgeb5dCAFumz17hc52XKGNTBE5E2wU5+IFGnmKhoNtEdmgqlPMl2tTQ+ZWJ+Lujkc5KGHEo3nd2WW64B+z5iwpjmvzEhtrhkAjhsnoFPxBigWs8RH+2OhxuPxqLdTYWlFTk2PZrlLvFHO5TYaGBECw/y9ReUfBPDlhjES41bWuNXRR+r3lgIGuaOrQyWdEIz9CLip4wmbvNxQgIGsHvuhn7Gwk0cRx3Ke1VOP2eT7BGyOyrMh/FXXmPfJiUIW+RwJe5FiqH5wTM3r6Aue5HnZ0dXvcwxiSMaISTh93zIUQmndrEgN9oyPxZAgwVkYaY6MO+/7qOoT9bGENzJJzhfgRIh6ZuGGSQ2Je3nzkzIcesSUxiEpOYxP8NCPkPBQrR6gpJu5wAAAAASUVORK5CYII=;" vertex="1" parent="Nt8Wr1XZAe8mfdTWKBez-65">
          <mxGeometry x="40.25" width="56.5" height="75.76" as="geometry" />
        </mxCell>
        <mxCell id="Nt8Wr1XZAe8mfdTWKBez-56" value="XRM" style="shape=image;verticalLabelPosition=bottom;labelBackgroundColor=#ffffff;verticalAlign=top;aspect=fixed;imageAspect=0;image=data:image/png,iVBORw0KGgoAAAANSUhEUgAAAN8AAADqCAMAAAAVkGAAAAACDVBMVEUAAAAAAAABAQHExMQAAAAAAAAAAAAAAAAAAAAAAAAAAAAICAgDAwMAAACdnZ2rq6sCAgIAAAAAAAABAQEAAAAAAAABAQEAAAAgICA8PDxwcHG5ublUVFXPz8/Nzc2BgYJiYmPCwsKtrq6Dg4SSkpN6enuenp9WVleoqKvT09ONjZBeXl5wcHG6uruysrTb29uTk5Sfn6CRkZKHh4m8vLynp6iurq/GxsZ9fYCQkJGxsrKbm5yNjY56entub29BQkKfn6BkZGTHx8i1tbVLS0s9PT9HR0lKSkrb29zf39/KysrT09Sbm57BwcLMzM3X19efn6LOzs+tra+4uLqkpKioqKrQ0NHV1dW2trfFxcawsLK7u72/v8C0tLXGxsixsbTDw8TZ2dmioqX4ERGpqay6uryhoaSrq6w9PT1KSkpERES8vL9BQUH3Fxirq67i4uJWVlaXl5tpaWlQUFDm5ub+/v6BgYHk5OTv7/BwcHDq6updXV1iYmKVlZb3JCSMjIz3Li/4Hh729vZ7e3v4TU12dnb4QkL3Wlv3ODiRkZE5OTj3cXH3sLD4ZmaHh4f4qan4w8P3yMn4enr4oqLrHh74vL34t7fyKSr3mZn4iYn3kJH3gYHnPj7kLy+/cHLcYWLkUVHKWluzoqS4foDRfH740NHKjI7Pa23YRkawmJrDmpv32dnDqqu0jY734uJaDCXGAAAASHRSTlMABQz+HigVNGBDURF9a9nwGXRWSj0sZjmNn7/sq/btTiHw5Mx5Yuos/frsvTv5+e/cppHb0Ny429rM7tG1nouJw92/jWZTQ9mKZ8onAAAceElEQVR42uzZ/2sScRgH8MovfRGaVCNI9NrSLLDczJRqG2OrOJfbbLubnfumou6HwGMgGP71Pc/jZz3dHo7zbo0K7o0UjG3w4vnyuc/tRpgwYcKECRMmTJgwYcKECXPV3PTOjf8ubpJbF/lPqZcwMolp+Aucf9vpYBHkKaSgaR+zm9nV5Y2NjcVUaiGTSaeLmHQ6s7CQer+4sVFZXoXv+KRpefwBlP9rSicMXPmClsuWKpVqNdPUa7puj8Y1vTYejce2Xfs9dq3T7Oi1zktIOlUtry+XcjmtAE74Rf8CkmkkKxS0bGm5XE0XO7Ztj2x7bINBRqd0OruYZrP55Qt8duEDTihsuQJOrZB/+leRDloeZJuVcqao2+PRCOrkgAlfDXmEQx3k4ODgK2QH8xU+oExNlYD8C0a2JeJYtEo1U7SxAwXMtXisQx7YSLf1KztbFiDfrpSyWl4Zr50obTnoR0VjlxcOaJdwYGPdyclJJGJF2u02/Le9kFpcX87mrtcocYlEXstW0Cb2hpeOgjipI5xlWWDbphzRP6/IqCVuXbPwFy6ez22Wq8XaGGyM89LVeKlw7SCO2lkRiMJBvkMOD78f9V+9f7te0p4y8TpxULjOGMI2T5xaKkK3I3Tb7bbCka3f35+mv/968cNq7nqI3JY5mDjdqynlxuSV6Vo74gGO8ktHvG8qx3uLUMUECa9BlyxkK1UdTgAPm8d5B2Gc1KniHV7UjmCY09PT42/Hc/dXYN0I4dV09MilbZaLhPMVpWMc+cTcOXVcO/QpXqvV2mu1To9bi+/WClTEP6ajxqzaoPOLI53YmWJpsg5z6OhMwoEOeBRAzn1QbfpndPGkBjouXYDJa5KPeAdKx74I+7B2R6Trg24fdQ7f2d6wZw739l58KBWu3KWqdvFCqWpPJrYepHi7HmvFwqWptoo6ERzFYxvqzs56vZ5pGmavN3iXpTm8cvHy2bI+8qvTnSuTImyEUzZeKn3H1B2jjTIEG+BAZxjdrmGaz1dyieBApUt+Xs6gTg84dqhrcl9+BZv3UgEbtyUVDko3RBzpEDhoGKaxtJanHg3Oi+Yqtck4UGPy2IEOO3PncvEsPM5Rp3xcvAufqt0QfT32AW8waDQG3fOVz9ijAXnxZDRbnkxqgWvHU4ch3JRnidrxowqvTMVDG4Rr1wUcpF5vGN1nOQQG4GFvxrKZyShA7VwWJspIdxJpY+UgyoY6tpEOTzvC9c64cF2yKR2mMVgiYCBedK04GQd8VHHfmDR4hGNfH+LgtSBcO+lTPCzh0icEBuF9XPjhq3aEY518EjsBnVia4lHlFHh70wyR59QBDnkc443fGVSz9/ntj6sXj3V8AeK5o6XCRwLvTNaZYu5A50jvSRSAvnnzaz/G+lVwQrcFvDZvFV4rDh3k8nnHrSl81KIf8X7vqzuT0djD1ESfVUdAwlGIxzuTQjjn5ZUeNAmHYR36zlx0dZnz7puoLx+ee7H5tZHvE4FsrmsFDwTeKnzcEc+xVYZYO+axjngyAz8FnJZv/vb6TL4pjlqTdXLscKmAj2xqqVDp5NgR72KpmGxjnExjNQE+X+W7/ShlB7vdyaXChzkvFbexo9qZHktF+J7FsYC+ync3bc80d4ST72pZRzvTZalALunU3Bk8dlIn8yaZ8OGj8j1Mz6BTPJcrAkTVDnn8sCLurvIwZ503jnzxWX2qPe/ey9hejSlfGokXD6hz3u76ELlUKFLHPA9fFBvUR3s+vvtgwaN04q2Ksjle1jp1dB4wzrFW+IZgSpy3L5nw4YvNP3r4IGV7v3aQr6Ldb69yq0gd127gh9dYitEA+hm/O3O67bEzvXVtp458rGvJwRM70zvwXeb9WDLuz3fvztyObXvoFM9lZzp0vFXEgTeU9zvWzcKr79+PRf357oJve9euMVE+qkgb69oR5/0HcfL+43K/Y5u3btBt1IeRQL4jSx8zUD5Dy9urwlmOsWMdNyaXbtgLoGMe/ETdPLKC1W97S6c/Ec0+dvLFg3xUEUvF99ixzjAGdePIigTzKSBE3F2FTowd4eTKBJsYOz7MZ+edn9dBZ1D12kF9bQuANgFJ5/3XO9Z5P4j5uCFI3k927aY3cRgIA/Ahf46Nm6RJyAcfoYAIPUSil12BkHrpL993Xk/XzXpRUaEtK2XECZTgJxOP7Th322JTwJdF4cd9wWQSJrqnfqqshD1d5O1v9XXKA87XEXdm7saFVKXtuA7Di3w43Ixe68vJ3GnNRPRz50/ENHmnV3f37+uwYN/hEuHgLEIDJhf64jJRIFIoOK9ouodG4vN1/mMVr2gyzux2mwxn2hXjTRuWaXi5Ly2rEUOqTKKLV399t/z3+q7xB/OPFE3apNdlUqSyTfGYh6ZK48t94JgqGdlQIWmu48F35gooc3fm2UWTNOI20wZnfMD9nUGXVOV1fKUx1QqylQpXlSljwCQmCLdI6Oaqa6FzyXO7d/2iOd5u1+/paGOfm9Y4cY3k7aazEBe8Mlf0JToCOmIKoriUFnHjdU6ev43gL4De5O5922aatzg/eNihzqMUJQ8tuLJPKihDjUllYhRnwBjdrPNw3L3TEWHncHb9Y3WnaWp7bPJOKte8k32zugsNxmSUuuv7AHRENRqThpPIbilr1P4zMd3fcttb/ariw54tbVp3ywWeCwe4iHLXd0GcsJR/no8PAoW4chWnQncMoq7VHtcby/1b09VMj8WAbI0y2UaLULYModO6HMQmYSs+3YdwxNfR36TSIWd53jQqowou0vx1uZqenWs7BiyfLzHomqoy1C1YmwNYK/t/n+7DqRlA4ms1PjF+gFnGvGPzGkwhFv6i1aVLFqhrzLaypm7FZewZEzsKxXZ4lUSahLH6Kl9apvzFdUYQ9/ufNvaQso2h7TwdR4zmTdQ5utM8ChaYPwjqaf/nwJFte0qenWHo9fxCX6mjfIx/15+ZQ7bzeDz8FcfDsRf22xcbh5cDfhabljAObUwe/yDFjPAbfNqEIJBWKNLlUBBq+HUqxCZ44Jg7TR6bLS+40kfg9/iYwYmdecpykUxR7i1PhTB6Sn6lPk0eaGjwhCdDLIV3Az5Z+cncbJZLtDM0DtDUyCHIJY30eUDCxIWMLZaoSTLC8BTCC27It4xE2NoREFMWfB5YQ2Yy90Az0UY2kcGW4TiQUHYa3W+f4pC6hg5l5yZ9MvnUMikNxqjHqcq9hnvn4e5eA+9C4ClKsXkUHq8HeLfuk+kZJzBcqItxrTiM5QiOekJcW9uOqWPu/jefvCSg6wX3fIWJgw24gqkbfINv8A2+wTf4Bt/g+82u3fS2CYNxAD/kA+wD7L7zLpOm3XoaL8EE2oRkIS1UfbEJUlyDoGAjDogDHPjMe+ysynk0bVMpzzFSjH95ZOHY/7Pv7Dv7zr6z7+x7O9/XT+OzVj9G+L6hlfUpfIGBvo/wXcwM9Bl8hoOmFyN8SdJNFqfvQ2ZQJ79H+ApM2j/OAp2wT0YfFm4bxT9H+CqKMa8C0zNP1gefTOQ0xZj19yWLIhy1cye0T9AnL1lDzbkrYI6kG/N++LXhEcE9HZampsHAJ+WDWWi6uRySHpOIjXu/oymNSNRj3vnhToXKT8WnbqjCdU1xHxHCXWeUb4W6BL4e91h0vpamu1Ppn75LU83qBO7jhBB666xG+XzD6SiBwqqHWlnmILQ/3LcrS23dcZgVSRLCZ6Yxdv+JFhUnJFFCmm28XPbwI33A26U7b5NRpYNiV55hjfVZC3POkgSAUdz3pJgF9g6EH+Wz5fW3HcwK0vc4IgmltN3YyBr//2HiaOuMU5oQIOI+5tmjYcvsl/fePugePNi+vst4LHFKJ+qV5kxelU9G2mJWvAhj3BNWP07MULOhg+/kA57U2ebksWakx7HScS6aO097fX7X1q2acc4p2TcREzbcrg1TbZDe3ocUzkT3twMjWLUOdEKI4snQPeMI+V1T1zYDE4JDE6N/RN5UroXkMgTh2/kMJNcdstyq4QonJ0C5YKzoLF030XHyu2GqLesCiOJAjCjLpq5vwNJXSVDgbY/jU0AVwXBgZN+dZoyqJ0IBjkG1la+noXOs8wnH1Evdf2oYlKDgg4oxxoSyppsvLQPtY35b4L3Sp1JbwbUa0dpcdQ2jBJ4Uv+AKqGxm5KVuHvX8Jcyfc2M+tIUkcqqIEYaKElFk1dXNOlBp7ABSIjIiAvU/PigAXkLw5VqOYq1vrqqsEEmEDzhRFG3RZp3rpGUeekc+Xwr19Dk1L6dDU0Ad2ij7qH7ZZqge3KVvqST9dp+UdoGndMA7+BRQChUQeEC7B5pcxNul+1ANDeOU7G0x6EgCjWuypsnqB9/Ly1xuMo7s229q87/sXNtOwkAUfODnSCmXgFekRkixGpqmkaSmatOHpg/1od/szPQ0kKBPhouGiZrI4u7O7uyetTuHruO5dVIAZQqOICioG2uwLJM8c2G89SA0YtKYd0iTrlajBmJ+ZJYXvgmDMfYXbpUn5ctWrZy6Z1VK1NXoZtB95SFxT88H5fNEkPUeqzohilQDHbYiwg8MNje4tMRgVxk8q2KDL5tI6ZKvSLSum2V5nhTQvfZnqyPU1EmTRZ0TlXs5ca7R/p6ff841eD1nGYyyXE3XSdmSNJoCg/A6Zhj+wJJNiZLgIiLwomJOHOv8ZwitFikSM5bBEVRBENMVAi5bPsTzXaHn9CfjhYvW1Yc8gV7f11o0QmhMjewutkpDo7XRY14pNZM5foG3fBhc8X+Hgz6/Vmy/7y+94EKLilsI2NbiGRvRT+DpJ6jY3kFVQ9RFDV4wKwMBBI1lfNe/5QnmCP5dSyLjZj7xmu5ow/Cm+GWEvYJUGwmaAMMWG/XaQs2QNTWFARtxXc5thAv6sRHkdbo+4v0DGpDFWn5ygDt9n6FQZWwdRY1pktAIyDcJLh05q9lp1rpJMlCMp1uWGBz9fsVpPzFqJnekPJwrdB6LZk4n77f2VoEOVxhcu0P40DFESzPIkpzcyad1f6T0KjEUwJOKm3VUw5Be3jeDTLucMccsrswI0Z809E7+fswyPCyz3ee370cRPx8xsAROlTSlvpl3/979X2Qe3l1/q45pivX+P/C32vnTbdGcP8/3t2d+Z36/5ffFzN30Ng2DcQA/8F34EHyEItAYp8GNnDj4AkeQsSXLtnAsv2R5cZKuXbeu68v6GXmcpioSTOsqhPLvJWqTyL8++ecUBU+nk9u71ebjP/O936zubgfjSzAuZQvIyQKYqw2s8yTfh80MWIvFZDJt27Icjg+CEKK4LNt2CsionM1msOwnfRDYc/lwc3N1tbi+b8flJYqBMw7HhyIw6dIxiQRm57xbLZez2d99Z2fLh851fX0/Hl9eAizZB4QD8u1cFCFQHpjgJERK3k7h0gXu4urqBjjgARBkDCjIAdafhsJhnJHh+OLqKOGcYDAmh6BdKOov3vG4bVtA9aQ/QyXTvkptEErx4fgARVkwRWFqrxmhyWNB3eexIKkqk+bWpkIKhofjI5QyM3c5LC0visxLhLDshhnzmKbPYXissrmpgtIcU0wH1D9OSJgXijGhfZ3lLmOYh6yqQ+OVhiLtPBijvYzwuK9SjDee7L08mxslGJeEUHAP6P7JOE/nnsSSEWhQZmsu8rWzDuaZG0V2y4+V6raICFVm0jSthMiN7Hk4zDMmOROq8RJ2/A++V8fOj7EiF125IJiZXGlrG6WUb6oiFTR2q3EugCVupYWJ0/WCCJfufTxfN8rXlSnyQJ7tuzjF9/LixXH9g/nloOiDvau9NZxSjAmvXUPgO507ZzVOkrKxqYKJy9jQ33x6voUKp1BAzymKA32G72J00vOD56PRMT4K/bNN37O4VJs1NpM4RgZXk4QyY+sAZoRg1LpEfScPPqzW27RuugJiHH3l0T7I+SnPD37+/mn07hgfpiwrPMe7WyZV8wzmx4T3XjWFVRjJ2lWcVy4QrFxFkj704KPaOS0JiQ3UDMeaHueL6xudfTvl+cEvP7/+eAPvzHj7hA9YWGTWBK/j3y/MPCibMp1ut2tX1BwRlReKEJFbDT0M5d6HtDOdD1oLRxVeqwAFTHX0tcf43sFPr3+xd+bLSUNRHP7Dt/FJIBsEBAoULQpiKlogTCoCBqeEiGytKFTQcRn3qs/o75xcBDesWLTjeIbR0hmSfNybu349UW3jyirld9a4kq+EojH5J3yohtTBjx6Mumg4hqOXIzSMo9Ztd/DxaNi7c/u2292fdDq9Tvdo4N7bH6LvpsC30jvoNmkQhzLrdQZHRy/390dd6kCPzScH5Fwpf7ewkj9Ywa5AwVahD0aX8Y1vcX1q9jpTav9Gh71Ga7DfRJs4Oej2Grfx36E7RcN48PFo0uk+mLhN9H9AanYOXg5nfcWdVu8hakCzRTfycfnSAdU2sW/dX6l/iJjbKMKaovl9sSV8T8djMaSm4XSz2bp1rXFv2KS+4F536N7pdbvuuNWZPpwMD/an0wFGKYfD4WAwcXuDByPADSdTt0FFujgJebKczxMINaWWhz9YDa/m1/VZCDEqGZnUuh/wAfDprS+mSETWanh9+T235U57jUu4ZLSmne6k6U4PvbGN22g0qadooKeYfRZomEXSesD75XzwtHblTMVg00eRVuKTVGubCU0nFCuX/UvWX9T3r15g2j3+ergJKhQr4XOMmxivje8gGmOCEiUm4AD2GmBhXn/ZWsIHwHI5FnJQuwyELa3Gp0rqnrdRlzeciHzzRpnqxdL1pazH+RhEx45r9x+/efL61bvEsdaXAAgR4KacIbptuH+mHV/VHzyjqRaKn8UsyHUajrsDue6n62epFC0Q0VIKZrJYdEDMZrL0L94+wu+fPaMp74cPmOHnQsdcP0MzsIPvWVMqBu8ZmkahLUlnVs7/qUvtwoxwu2aHA1SIUM+W822IR9/kclhbeYtlCDFx58APeAust2+Dz39pfRCbNFR0gQ27hs1TMkZMoxbU9dXnD2o8Go1UDDrQNgjzBUdRobmWfTFd11dY/5ynD7mMvCK/sv6pazrSuuHMm4pTEF5FwSzsJWJ6fHU+DLCjsaRdNU1BCPHMuqzSM/J8Muj+0PouQka9LKfVoFU1AEd0iFI9Hoj+3vwvLulpPbdXJdvSI8wbNUvJyjuECLp184GQ4Hb90axi1Yy8oKtC/uyn5PQJ5P+M+tLx4B4OWGXCPN3YVacd2pLhwuAEeB7omvhwYEmj/LjyFgTCmrHtwZlV7OnXrIzmI7wTyN8a8wVAWIMNQIieIWBAHyyGVJny1mnYf18D33lK9haIqqGiVfLO6yk/MIFK/Yzk88eiJ+RHyhgxQK7DgWsCkRnh4Fj1SDiuxyg33xbcgOwJ+IMARCI7GtTr8TAsuxKsmjwHwyGcdkL37/gwPTqx9ZeAH3dAqr5XoiDEz4yFktMvzhxJkiW8/mE1fzA8c0IkdSNS7DulgokzzeFIgrKUZGx39+Tzf6JFSasRe6YPmlSMHOzmVCwYYqksrA5SBlgfvJAgvu/5g8qCP5gjOoHGN3L2QkRpW5XS7AyiQSFRBqpMPYSs8VAu1uAPwvWgZuwy6XCOM2fkYG/YE5AuQjuiWsZeIIsGmQxTglEkzRJFx1YBqiTX61Qic1lp9z1ljw8sBEI+LguE9cim7KcsfuvzB3d2fBruCtuiACTX1bk9JuxBXE/frheDwXNsTuSuX194agzBsU3B2JDMinUbyuVng5CwOLyK4eBQLBDmkholOVzz+iedIqAlQ8F627MHxRfOkCLYvyL9itVBx4Etan0dbJBWSnOBa/EAos6TucWhXExs6mkut3X7kSI7bUA/s5GDUEcBUo/SXKBctAgNhInXLAy8KOZC5CJZAWSsySJBGlXnSCJ7RkdWwz+a/xPCciAKRTIRoWugbMiAtft7jlfLCPTbuPv127sLWFSzZwYhtTmhHMnLKXjdGFjH/rw/KBRJSU2mEjluLVIUCZYHuUAJFayinBZLSjiExCRuV26XUuEkG4RZkhDRSG2qnP00+hf3HxBszSdxSQhcIT4mUcRJKiSv+lxQgRjatudBTiwnEU5swO+USCKkkDXtPOloLOixXojR09/3B89/9ge5Q2DNfwtXvZgJFPHdDKD4fRm9mY8Sf24JgZDYVPYHpdOwf7ToD14VwxfSAdkexLCGOBmTGEVwStNdTmiKct4Mo0LyRwB36vyXH8yPxF8F4MVjFDEKW3yubW4mEF7nMcxp9Xt+Nv9Dry7yYxaFP4hQeAyKrv70+0v/up/1n+9Te3fzozQURQF8gcnAhI5C5auACTRpRFIyCSEZ5ouVixmCiiZj0IUuXOvSf9/zDrfcNlVDKwzF9DArOkPym3Nf2bz05b7cl/uS+rwj8l2l8DlH5LtJ4XMLR+NbXOfzmd9fsutbXP3f66+A9Zf4/NTO6nh8t4l9drH89P5r4Rh8hfv+60S+Z8ZXtYYPhaPw3S9vT+R83yTnM9eb3ny1yr7vfnn2urbV+czM5nztotUazY+gv+Xl7KT2BL6E56MXrcrQ/4jPz7IPl3u3pROz/OhLcINBgeWhP19m2GdGq3djP6/J8ktyADwKrFfKw/bHhwz75vPLm9MSxzOJb1Ngpdzx8CFZ9b19OJ9V7eccT/q2HVAUeFJaA1vTBT44cz6e0vdiCl6i+rTA9YQC2HT6XTyKMls+88SD7uSmXj0tNWqoL5GPKxATCqBpsNxy+13o7jLz/Mg77J4YtK9nRfAwnYnqY4FmQgk0IypC7CG6y4APwB8/f3T71zNrw9PVt/2EYgkCaFc5oxA6kxfYSXR4nxmkFxNnZtWLVTsxTyeUDTYAxIxS2OxctQc8R/yAPvAG7avOzLKKxVO71CAP0wlfGiAqtE/XQimxNziUj99Rg17fmZWNjrNZC/HSAksqNCVO+70B9vAC+Jg+lgfctFOurHV2jJcKqMI6hULszgl8FB90aK9rcM1KxaqrjmtPeCmAQYUq3BDds/aiuyRwzz6096a7aE9c4lQn5SkvLTAQholci1Ovjc0BPGJ0Hz7wOBzG5rTKAa5qB7qUPAVGhSxRiEGNjnt26S/wf14RuDMf2yusFv7lmet0mooz1UV1wktdoQhBbEAYEFkjja2hM/ZGPp4+wQ0Gn//Rx8cTYRR8fzSZOp2WsRHHuYSuAZzotLzUwKgwTBSjINHk+dOR76NA8NL51tsnPkD29NwljTZpTnBRHXm7EcaIrBFGRVLpfR8hX7BH4su2Pm6s+PQJf/beo0xoYgtwzwNcVLcrIUsMiGoMIalsosyh4449793Lb99emmBzmmyhkNCHH17F77zzvLHrDFFZE7INTW3r5qS6XelUqCUqUYxRJJjqRKGtIeJcjC8uLsavwsE7iIOraEtYKhNaYJOxlOrkrqK6HZaoxJCRSFGSSefWoYowkQktZAvj9qCjMEpUYwSpTJFqwAheEmUpTGkRWzpcemLYqEgowaSTUBPrz6nDhBTFRRhkbA20iG2/OBWSyLWoRiJFCSadhJJalVc48hZRZMFFGEsjLWzDDYU46vYdJYoxQIoSTOMUqWhjEZGo6CJMZKSJ7fFw8RoVSSWZdFJKKrnxUEQUWYSJjDTOZALbXo1EUkmmQEn9a2giizCVkUbbQXBqJFKVYNKp0id8xcMrqoKLMJGRdlCbGhVJJZkCFWs8ahIWYZBliRZHkqlQWsmNR03CEljWaHGlQLcPWZmWxZxb5rhcv8l/icqTJ0+ePHkyn1+BLaC+QUcfEgAAAABJRU5ErkJggg==;" vertex="1" parent="Nt8Wr1XZAe8mfdTWKBez-65">
          <mxGeometry x="437.3699999999999" y="110.19999999999982" width="94.63" height="99.3" as="geometry" />
        </mxCell>
        <mxCell id="Nt8Wr1XZAe8mfdTWKBez-57" value="SOA Suite" style="shape=image;verticalLabelPosition=bottom;labelBackgroundColor=#ffffff;verticalAlign=top;aspect=fixed;imageAspect=0;image=data:image/png,iVBORw0KGgoAAAANSUhEUgAAAOEAAADhCAMAAAAJbSJIAAAA6lBMVEX////p6uptjJ7ykRGUJkXe4ODLzs7yjwDxigD2tnXxiQBmh5ryjQDo7vJihJjwrWX85c6NADK8ydGPEDnm4OKQpLCaNlHMo63g5urWuL/0pk3QqrORHD+yb3/4+Pjv8PD97uL3vYj869f0nz3uvIuLAC++iJW2v8O4fIugs7/61bLR2t/Wxsnzmyj50KjF0Nf4yp3++PF5laX63L/1rmPl0daTqbbk1MOlUmfq3tHtxqHs0bXBoqnY0NLylh70oUH2un2GAB/1qlmaNVH27fDDk5/s0rilWm3PwMTtxJzcwMfp5d+nV2uEABHAGFV+AAAJj0lEQVR4nO2daWOiOBiAQeuAEGiR2lrrYA+1h2sd7TE9ZpzO0Z2ju///72y4EwhCqBFh83xpB4zkmTc3gQoCh8PhcDgcDofD4XA4HA6Hw+FwOBwOh8PhcDgczv+Ck52ic8CartI9KToPbOlKktKcFZ0LlnSleh2AD0VngyG2Yb0uL66LzggzXMN6vbrV0TesV7Y6BoZVqo47i4mDU/cQQ1gd65dFZ24lNAGQbZSmEDGsy6DozK2EJuheXtnY9Q41BOCq6LythqbcDP8RGkrKc7mamiMc5AzRUFK6R0KpuFRwBuEpkmEJu/xjgLYgdakbnoobArmE/QSFYUn7+syGQPlSzvFaVsNmvXQV0COrYXkhGjr9xmy7uoYDt+MAgBuWAnIpPYEc3VS3lHpUuaVxIRieXF9dl61XpDG8WigykJXTcvWM2Q1nX2TvM0qpSm92w0n4Sflm3dl8A1lnT8Iz+l+hlGmdxukZAo6QM5jhTMZivVh3NpmAGX7AS7NSiVtR9koU5OrSnhVu44bVWDJdsppYB8dF524VXE9OHSZ2/3cDKmiIEelV5DI1ptnYUfCWpowrNilM0IoIthM/15m2ztaYrRVyggRRAgkhHN/puqrq683ZyrgMFCWZPL9o1XS1BimrobAjyUCC8VMmR6TTnblecymtIQzj9mIxeSZPnlq+X4kMZ1cUDeZFKFiYoRWQMcGz8pz5y1HBogzfDwNus6WgWKeZooK24bg17eTNaV6GWz7mebYU2Q01TNA2bOmqrrfHuXObBzMw7I2ypchueBE3tLsNVZ+v05GloTCuqQRD+9d21lpPz+0Bwi1jQ0E401WSITTX8uU/lduvZshwxNxQ6N/pJEPoyEjxMDRynVgbIoMa3LBWy5H9DBRgCDsNVSUYqnfUuc/C2g07TpPitKrRGOpMWlTc8EUQDMaGtdrU/qG19ZhhbZ5DIJV4DM2ex/Al21dQGY6h2NwZxozjhkyCiBvuCcLuyCejIJ1h2zG5c4rqWdRQvchhkAZmuGUc5vgKGkPLNVL1lvtv3LCm5rh8GrjhljH6Qf0VNIYdvzNUa06JjBjqDPrEiOFWz3DnFRRfQWM4RUY07U7ckEFFjBr6ohRfQWOI9w4XsVI6pTdIY82GZ3jLUmvXcMMWvUEaRcYwTgViOF1uWIF62NGXG66hLWVsaKWUUnqBVNZsKLSXCrIf07A3HC8rpjqLdbfshjPvRqh7NxS5e007t0iG/dxieQyvFMkH1JHjdIbT5CAyCSFVKQ1vDSroPQnKOX47qbFhUgvpDINbg6CLHqY0tNZaRilbmqZ3k14+wo5SrtNoCeWU0YopXVvqbngCA+wg9UqUVosXVJWVIKXhlauIH6Rfa7Pa0TDqbNbZbCj7w1Mp0swI+fYIj2vI2jfb+xYHwx4B83vCx2FjA75FjuXbBT2+U3XVRlfv2N6XeXlPIvHWYRPI0Tu+ufd5d6atVmvM6n5FXmbKIHqoIjvZA+LbuKpmGIcbuswZDVnWQSbDvq732WclhT+jfMOKNxhOGaytLWHr60GudPkNLZ3NhCmJPWPthmq1DONde9UMKxvDyOpaGzlVKkOrL4rEphgGz0a1pxAOyKdKYmg1wXan4ULq8jpjm6mqTp1fUKWNN4Rxg1ad7dCQ7GhTtnrourngho1GYmEtiSHqRjYkB7IMhrO+1iBBMCQ4FmJovdzvoZP5FMMdefAaM0kyjBXWIgx3e6ZpmMP94ECaoQLk7Y9xl86z8kwyxwNpYd2Ef5Ct4fdeb//gvhfu5k6Nof3w8penTkznkegXiWOH4MLW8HZo2m735nv/SAZD+zmYOrmwRtxcUqZjbA0PzT3kh00mQ3vJG5AKa8RtAwwPjC37x8i8949kNXQLayMmKcYp1PDH0BzBsmqaQVOT3dAurItB6Ehw2wBD4cUwzS2jF65u0xjahRW2rIlqG2EovAwNY3gf7tSjNLRfmaBttqHww3n8IIDaUNredMMI3JAbYmjiq6hp1TXUnm4WUv10kPLoZWkNtYdTxX6TBADK8tdiFGIIZ7gJRSu74YME5O7j09OxBJa/Zggajtk9sxa/3J75iTDtCchuWJekvzXNrotNOSmK9tpco6Gq0+SlnRXirUyEhsTFlqyG2gCAj94JoQli741A10FU9V3C1Valhq26fEcMCVfNHEMJDPzjloC8rNWKr/F4hknF5m3citHL4Yaxq2Y1/CjLD2Jg+Cw7O8Ss6MV8w2nC1VbAvnH+Gbts5+fXX9EcoIHMaKg9groYGl7Kzqui+u/eRb/bZq4mXW0VhmbP+IkrfSbkQcxhOEEMrwNDsiPOSree7Jv2AzJ7n+Iz2UDOyySdofgkA8Twg3waGCY7iuK4dXE3r+mrvCe87273Ms3R53gdQTJMbfgKwGPY0kzAM2IYlxQb49ZZe+5sj1rxEyX7/oa2nvnzl0hQy2uofQML/3dYDZUT3BBx9OKmIjvcmBh6hTVpKYLaUHxQQFd0zmjXMnBfLIgaQkcYt7u56sYN24PJyBDydTdBMIeh9lsBi8dX2G80ZbCYEQzftXXyVmiGhsYKDWFzCgfeChycAvnUG9FEDRM2QpfFEE4ubmw9eRH89YeqGULH149PTw9h71Y9w2jiTTT8y+N2dwWG2vjMY2MM+/eGabj4e8HeYDjV3Q3PkPmmGIomHAk49Hrnbza8UGuq3/ttjGHP/OUG89xchWHbLZ1n6gYZGr/6lTesfgy5ITfceMO/rD7EGlXWcMt7BGprNf1hwKYY9veM4BVn+2mGWpSoYSsY0mzQmGZ33+XT4R8hzfDDAOd31FAYty48NmZcCqPoESRINnyCE14E5e+Y4UbOLWKZXFJKv+Hvf46V0tIbig/oa8rBKyFx2Q21QagIfmuExOUwVBINRXERHJtopMSlMJzdKCDJUHvy9ZFmpnDDIaUhdBxIskSOod/YAHwQUKjhj5FhUhpCLk+RQKJjmgcl1sxgiRvrNxQE63DP6FEawuq4HTiihm5jgzQzcEiLJxXTDdWV3nty+POP55hgCLMZTzQ79gorPi5d2M2MmyrhVeD9RqKhqup6bX7RYvDo+u65U1hjhrEQYLiFFTO0GxtlJ+U151YjZui4tS+mHXZbMqz970YPMVzu5rNzIwO0WYHDu29y8l+zCBEDQz9unTVsqflz/+9uZjefo2N3f2lQko8y/kESWFjbuq5Ct/EaH36+JVW4VCKF8ihrOmu8TjcOh8PhcDgcDofD4XA4HA6Hw+FwOBwOh8PhcDict/Af7tNI7P81YZEAAAAASUVORK5CYII=;" vertex="1" parent="Nt8Wr1XZAe8mfdTWKBez-65">
          <mxGeometry x="234.5" y="85.25" width="124.25" height="124.25" as="geometry" />
        </mxCell>
        <mxCell id="Nt8Wr1XZAe8mfdTWKBez-61" value="" style="edgeStyle=orthogonalEdgeStyle;html=1;endArrow=open;elbow=vertical;startArrow=none;endFill=0;strokeColor=#545B64;rounded=0;fontSize=14;strokeWidth=2;" edge="1" parent="Nt8Wr1XZAe8mfdTWKBez-65">
          <mxGeometry x="-0.037" y="20" width="100" relative="1" as="geometry">
            <mxPoint x="157" y="163" as="sourcePoint" />
            <mxPoint x="238" y="163" as="targetPoint" />
            <mxPoint as="offset" />
          </mxGeometry>
        </mxCell>
        <mxCell id="Nt8Wr1XZAe8mfdTWKBez-62" value="" style="edgeStyle=orthogonalEdgeStyle;html=1;endArrow=open;elbow=vertical;startArrow=none;endFill=0;strokeColor=#545B64;rounded=0;fontSize=14;strokeWidth=2;" edge="1" parent="Nt8Wr1XZAe8mfdTWKBez-65">
          <mxGeometry x="-0.037" y="20" width="100" relative="1" as="geometry">
            <mxPoint x="353.8800000000001" y="163.01000000000022" as="sourcePoint" />
            <mxPoint x="434.8800000000001" y="163.01000000000022" as="targetPoint" />
            <mxPoint as="offset" />
          </mxGeometry>
        </mxCell>
        <mxCell id="Nt8Wr1XZAe8mfdTWKBez-66" value="" style="group" vertex="1" connectable="0" parent="1">
          <mxGeometry x="92.5" y="649" width="1029" height="597.75" as="geometry" />
        </mxCell>
        <mxCell id="Nt8Wr1XZAe8mfdTWKBez-15" value="xilinx.okta.com" style="shape=image;verticalLabelPosition=bottom;labelBackgroundColor=#ffffff;verticalAlign=top;aspect=fixed;imageAspect=0;image=data:image/png,iVBORw0KGgoAAAANSUhEUgAAAk8AAADTCAYAAACY/Pd/AAAuo0lEQVR42u2dC5hUxZn3e1AZprtHEROjuZtE46qJkk0+NYZI3KAQY9yo4wUDDjPT57QG3eyaqCuJjmgSjZqYYc3KRuERUTZN5nJO1enViEgSL2j8surqfiKIgmKMGES5yWXgq7d71AFmhpnuqjpVdf6/5zmPPhsX+tSpU+/vvFX1VioFAAAAAAAAAAAAAAAAAAAAAADyaG9vP5hzPkZc3xHXNM6LbZxHt0dRdLf4944oKoYyLvFnzhZ/5rFocQAAALZB8ascx2TFRIqvFGej28txl+JvKQ6PobiMFjdTli4SD+we8eBeEg9xh65L/J3bgiAah6cAAADAFihuUfzSGS8pPlOcpngNmYqJQqEwXDyIRmG3C8TD6NbbAXa7HsUTAQAAYAsUt+KMmxS3KX5THKd4jieimLa2Yi1Zq2j8lTELU+9O8AqeDAAAAFuguGVKDKV4TnGd4juejAIozSga+UWDHniPPBVX4ekAAACwR56Kq0yLpRTfsQxGIp2dnSOjKJpl4IOGPAEAAIA8yV0bNYviPp5SFYhGPIbz6AVzHzLkCQAAAORJ8nKYFyj+40lVJk6niwbcYPIDhjwBAACAPCkRqA3kAXhaQ4CxqMWAXXSQJwAAAJCnGHflkQ/giQ1KnIpTbXiokCcAAACQJ/UXeQGe2oAPlDfb9EAhTwAAACBPyq/t5Ad4cn0QhsWTRANthTwBAAAAkKddrq3kCXh6vWCMHcp5tMbChwl5AgAAAHnSswZqDfkCnmCqfNSKeJDP2PggIU8AAAAgT1pj7jM40qX8EK+z9SFCngAAAECedC8gj65N9AOkIlg2rnPC2XYAAADslSejzraraP1Tootoigf4sOUPkErJP4RXEQAAgEWJi4dsj73kD0l9eOPtF6fiVsbYWLyKAAAAbIHilu2zPj3Ji/FJzDo9pqmBN4lrGZk258V7xRWIq2P3K2of2lWcGQTBaLyGAAAAbIPiF8WxCmJfH/GzFFfv7cloLeuJuzqyT48lzXpPVtigb4kHeKf4O86nLY2tra3D8JoAAAAAeqC4S/GX4jDF43JcVhPzgyAal6CsU7GgoBFf5ZxfKB5WGl0XAAAAMCZhkqb4THFawY73QiIasaOj4wDOo82SU3ftnZ2dI9FFQQzUZLyuz2Vy/JS0F5xa7VWX6/pyysMHgExqfXaotOfjs+NTDYU6tCoAQ4fiNMVryfF/M3mF840XRdElkheM3YmpORAH6Vw4od5ny+vzfIfci63L+uFVJGZo5SqkKddxmGjLR6U/H5+vr/fYFWhhAIYOxeueqTyJAsUvToA8FRdJNM4n29qKteiOQDeUIcrm+Vb54vT+lc2z6WjpCmkK6rM+f1nl8xFidhkaGoChQ3Gb4rfEqbsHnW6wQqGQFTe6Rd5CseIJ6IYgDup9FqoNzOUMVKpx9gi0dgXPJ8eb1D8f/lZqQhs+3gCoAIrfErNPW8gvnG0sxthpErNO96P7gdiCc549pyE476j32OFo7aGT8dgNOp5PxmdHo7UBqAyK4/KObGGnOdxQfIashgrD6Ex0PRCjPC3VEZzTHvsCWnvoZP3wFzqeT53XdSxaG4DKoDgucd3TDJctc7GswpcoSQAgTyB2eWoJj0NrA1AZ5RIG0UZJs1GLnWwkWmEvbm6DJHm6D90OQJ4A5AkAu6F4LkmeNji5876jIzpMYnoOu5AA5AlAngCwHIrnstyAPMPFBmqQKE9noMsByBOIXZ6oaCYAoBo3OEOiGzQ410CMFS+TV6Ig+Dy6HIA8AcgTAHZD8Vzejruie7XXGIt+KauBcBQLgDwBI+SJjtMBAFQMxXOJJ47c4lwDcV6cL6mBtqZwbAWAPAHIEwAuUENxXVKl8fkuytMjklbUr0ZfA5AnAHkCwBU/iFZL8oOHXWyc5yVlnl5GVwOQJ2CCPNXnAxwRBUCVUFyXNG23xMXGWSnJLF9AVwOQJwB5AsCZ5MoLkpIrK11snNWSGmcZuhqAPAHIEwCu+EFxqSQ/eN3FxlkHeQKQJ8iTU/Lksa+gtQEwQ57IM5xrHFmr6SFPAPIEIE8AQJ762Y3vWuNE3ZAnAHmCPDklTy18DFobAFMyT1E35AnyBCBPkCfIEwCQJ8gT5AlAniBPkCcAAOQJ8gQgT5CnRMpT1g++itYGAPIEeQIA8gR5gjwBAHmCPAEAeYI8QZ4AgDxBngCAPIF45SkXnojWBgDyBHkCAPIEeYI8AQB5gjwBAHmCPEGeAIA8QZ4AgDyBeOUpz8aitQGAPEGeAIA8QZ4gTwBAniBPAECeIE8K5MkLvobWBgDyBHkCAPIEeRp05ik8G60NAOQJ8gQA5AnyNOiL3YHWBgDyBHkCAPIEeRp0kUy+Je0HX0SLAwB5gjwBAHmCPA0++/SGuL6NVgcA8gR5SjLNhVF1Pjs+47GJ9T7711Ig8vldIkCwrM/uy+bZIvHFvVD8817xzy7xv80W140Zj1+a9YMz0s3B6JTH0pAnB+Xp/Ln7Znw2RfSLm8Wzv1X65bEZ2Xw4rbYp+Kw98vSeRC0V78dcJe3Sc9V7/Odpn53m5Eslxgzq7zSG0Fgi+tjPxDVLtGmnGF/+S4w3D9Al/p2Lf/5W/G930n8j/tvv0dqz0rvSUKiT93tm7iP+7nPEc71JxrPL+Pz6rMcbxG8cjiADeYI82c6Etloq9EcBqzQo+ewVSVu4u8Wft0T8ef8pAtnFZQloHQZ5sleehDT9QznLoqUEQLcIONfYJU/6rmyeF+x+n1qHpVv434s+9U/iOf9GSNDzpTFDzrizTIw78+nPpr9DyMpeQ/11JO80fqmZ6mXP1LW0fxTBB/IEebKMTEvwIfEFdGGPLG3QNuD7bHX5y5ydk5o0JwN5skee6vPBCTr7yvsVvPm5kKe+L8q4WPXSNBSyGT88T8jSPbokvHT5fK2Qqnn0d6caO0cOJgMmZG654izlo4hEkKdBIW5sO+QpRhpnj8j4wXdKqW+fbYv9y1kEYspKZTx2svh1NZAnc+VJfMEfLYLJm/H0FfY45Kn/aUIrMky5cAJlgsTYs9GAcWcz/Za0F5zaX0aqNC2t5fcEJyAwyZUn8gwX5WkH5Ek/dR77OK1PiS/4DerL8EVa40DraSBPZslTbXPwGRFsXosx2G2DPPV/pbzCfmZ+rHWOFO/15UKYVpo79clW0ZrO1ES+/059J89+icyhtfK0w6mGaW1t3RvypDno+exQWuSdzfOtFgWDt8RX309owTrkKX55SjcFHyaxjTnAbYQ89X+NaG7/hEnvRXZK4YO0eUS8H+usaUefrydhyjQWDirdg8dv0/P3CnED0uWJfMOZhpkzZ04G8qQp4HntB1PhPhOm5qqRKDGA/UjqzhnI09AQApv1+bPxBzYWQZ4GkKd85yeNeCEaClkx5lxrlTT1sZSAPt5oOQHkyV55It9wpmEYYx+APCkfvIbTy2jz4NVH1mGlqcdfOC1PIhCKvvRY/MGMb6L1VpAns+UpkwsniWf1ahLaG/JkvjyRbzjTMGEYHgJ5UkddS3gcbX91eJCJaO0W5EkDVLrCZwsMEOfuagpPQp7UM6KJfyqb5/dDhCBPJskT+YYzDRMEwWjIkwpah4kg0yqjPoolU3kNkCelGae9sj5vNyLr6PELq7kVyJPibJPPJtNaIUgQ5Mk0eSLfcGna7mTIk+TBq7FwEFX5TtqAI0TxV5QdgTwpuac7zFh7UnlxTMiTYso1kGZBfiRcHr8SkUyFPEXjHGoYfoE8eYqWJF6ccvzrQiL+mtRBR9z7n2kLPeRJ6v3cZMiz/bWM+4E8ySfrdx1hxCYCyJNzUFyX5QjkGy41zNUSM09PJbmTZfOhn5Bpuj1da+IsMueSPNEgbkjRx6CSozQgT3o+2Op99jbGHciTGkcoPiUxwXK1S/J0t0R5ejypHUwEhKsw6OxcAyiuQ1Jdkaesz/KGPM+HZZamgDxJ7SPnUGVujDmQJ4Xy9LhEebobKbm+r0XJ61qtw0onqmPA6bMCNR2nAHmqMCgakMWkqSDZhVEhT7Iy3WwqMt2QJw3ytAhLe3ahUCiMkihOOzgvzk9Yv6qhSuEYbPaYhZoKeRrCNIwfjBfSssUA+X2lbkrXxxRkaSFPVU/nsiswtkCedEBxXaYnkHc40Cj8VLnyxGcka6qO3YKBZlDZi+3ZHD8X8rRn6nJdX6ZqygZs1X4z28yPUjTFDXmqpn/7YTPGFciTRk+YIdkTTnWgUaJbJTfKtKR0qHLFcAwyQzkxPeMH4yBPA2ScWoLPm3BINFUPr2/hY9R9dECeqhCn0y0/3gnyZJ88TZPrCdGtdq/UaW3dW9zEazIbJYqisxMhTjnehAGmoh1b69J+8EXI0+7Uep2fzub5X2yvHg55UidPJLQlscVYouE9CKdBm8pQXJcsT69ZfUCwsMlvyRWnUun1I13vSOXjVuJfj2JxBuoVOt0d8vQ+6abgw/U+W27I88ljuts8earLs4+IdluNMQTypBuK67JdgfzD5im7hZIbZMvMmTP3cboXTeT7iwFsBQaXatfT8P8SrVkDeRI0F0aZcvYhHSek4zWCPA0ROponz/6AsQPyFAcU1ym+S84+LbTVJI+Tb5LRYuen6/IswMAia00BuyLx8jRpTkaI5GJDMk7/oes9Soo8ydqpKAL5jzFmQJ5iTrYsVjBTdZyFDVFcILshoii6weXOk8mH/4xBRebgxLcKgfpKYuWpoTDcnFPv5VUPhzy9X+Ms1Th7RNXjjsdOpt2qGDMgTzGve7pBfsKluMCyrFP0TfniRBZZnOBsxsljh4tA9w4GFenXC3SYaeLkqTwN81tDykg8JLN6OORpp6np6vAK+4l+sgrjBOQpfm8oTlDjDdE3rWiAtrZircwTkntN2b09e3b1X1mGUiMG+z9iQFEWZG5MmjxlfH67IeL0LK3j0/1COS9PPl+bben4u6rbyeO3YYyAPJkAxXeK8wqyT0vJS2yYrrtGhT06dV7N7tN1jZZNh71j025Amr7L5uTu0jRZnup99jNDxOllFdXDTZcnKsVQuqhw6wBXhdK0XtxbR22u47Bq2yidC79k03RdadzJs42QJ6en7u5W4Q/kJYan3cIjhTluVnPzFm87HHh6JWtC7Z0+1wvl2aOZPPtpxg/PKwVxOn9sbK/aGRPaajMtwYfq88EJVJdKDOr/Jv7//tfQCuS/S4I8GXSkxhrZwmqyPFHmmNYO0QJ9a5YK+OwRI08K8PnT9PwyPptc53UdK/r0B1Jer13WtHausXNkujkYTacKiP/uJzRWlccsq9as/RC6tGvyRX55o56Zq83GljlqbW0dpmK1fM/1stUFrwYc5Pk1Rg1cefYAZcJS58/dt9J7qmtp/6gIJD8Qf9b/mDRYZXL8FJflqd7nniH9aJOqhfomypP4u+bqXAwvpX083mCYSPzfjMe/l2ksHFTxTYkxi8Yu0f8W2pBRgzz16RF7U7xXJFCLyVNMNMbvKxInd49kaS6MEi/RW4ZkmebQonXpg3RLeBINZobs+HrcNnkarIRk8+HZ5crd8e8AE7/5H+P/KNEjT7TYWvdieAkhahitRTNl0bsK0c76XUfQgeomHzMDeerXJaYpdInvG3WzjLHDxQ/bpMgWNxYKaqtFx/j1d50BL/ACFdK0K3TmnBjMlsR9v2kvkHJgpC55ovIVe2zbHD/FlDVoQuJ8MzK6euSJprWtG3dy/FwDxp1nsn7wVfX9oOsI8Xc9CHmyB4r3FPcVCdQm8hVj0mziRh9TZYpRFN3sZA+h4oV5vibGE+3fzuTCSVrvuVR3KPxxnBkSGkhtkifRVisHymzU+ex4cU8bklQ93Ch58sPzbBt6xO9+Is7MpPho/NFOayc1UNqU4/P1kCc7oLivLvsUPWbEMiDO+XR14lRc72zWKc+mxvjSPlnrs0PjunfKQmXz/PX4sk/VH3mibdqu/Lzuo3o8u/2GFj5GSPCbhqxzmmnU+6VJntI5uzayZHPhiTH2kVd1ZJv6fWdLtfTMWYcJeRo4+0TxX+H03fRYbzAIiicIi9um6gYZi651tXPEddYYVZxONQX1cd9/bXPwGSpgaesxITrlqec3r6Z6VeKf55QWxebZPFPWc4ig2GXagmnIU78fbfNiWm/43Ijm9k/E3gDnz93XlGk8yNPAUPxXmH3aRv4SlxmOEj9ghcKs00rG5FeGNgGaaonpZe2kqTNT2oF21sRT2oCtoxIRNsmTuYte9VcPhzxVyOSOA0S7bI4j010qN2AKE9pqxYcIhzyZLk8sTR6gUKBWkMfovq+aKIqYQnHaIRruLGezTnn2q1jW+ohBwziRnNL1MSqmqL9sQXXrvSBP8VUPhzxV2ibhRTGsrVxeVfkBVQjhJ/GP9f2htV9gTwJ1lkrPII8hn9F2Q5zzyxXfUNHZ3lA+c+yvmrcDL6mmbpPyQb2ZH6V/0TNjkCc7q4dDnir+aFuke1OKjEroyhDiH9fSAcjT4CEfUOkb5DO6bmQ851G3uhspvtHe3n6ws1knL/ia7oKFGZ8dbXq7iN84RXMmbnM1a78SLk+xVg+HPFXQHpM6DtS9y5XW55neLmk/+GIcU5mQp8FDPkBeoHD6rpu8RulNBEHwWfGXrVVpgWEYnelyR9B97thg6gSZ82XMC1oHsCqKOSZVnkyoHg55qujjZLLmrNOd1ozJMR1pBHkaPOQFame7imvJb5T8+I6OjgPFX7BM8XTdLa53Ap1bZWmhpk3HRqSbgg9Tqt+G7fVJlCdTqocPTp7CX0CeercHv0drZnKKRSVmvJn7xFFxHfI05FmvW9RO3xWXkudI/dGFQiHLefSEYvO7T/w9ezn99Cd3HKA32MVXU8WOr0D2HOTJvurhkKeK5OlVfVLALrFt3CmdgAB5MhryA/IEtQIVPUG+I+UHl7cLRg8ozjg93dnZOdL1h5/22Wkaqz0vsrKRGgrZep//TePUXUVbqJMmTyZVD4c8DY0RLeEhGrOTr6UaZ4+wcegR7/SjkCezIU8gX1DsIw9UXSaJDEz8YYsUm97zQRB8KAkPno4m0bcVn59ibzuxVtPPukuSPIlB/jbr+hDkqVdWJTxP487ey20dd+hZQp7Mh3yBvEHxTNiiijNQ5cP5io+onmPs6jJ3u7OCLxum6etvRUpn7QrJ1Hns41mfb9eTeeJXQp4GzDj9NpVqHQZ5slie8uynutbEZVos/hAulZHhf9GXpQuvggpVBnkD+YNiP3lkyMfDRVF0jOLq4ZRxejIpGaf3B3S2QtPalB/b31Z8oSY5mAd56jeLsNjWKRjIU6++qquats8i6z9wfXYz5MmqDNR/K/aUFeRDg/pBYRieKP4fNqgWpySscdqJCW21urIp6Vz4JevlyWOXaBrEnoA89SlOf6vLs4/YK9+Qp17ytETTBoyc9fJEh21DnqyBPIJ8QvEU3nryokFknYrPKf4hVNFzTNIeMlXa1RT01tpUnqDfqQav63O6JAHy1Gd9sEa7M5eQpx5qsnn+jo62oMO+rR+oGwrDdZ12AHmSA/mEamchLxrwRxQKheEafsQO8ffsl7QHrG0rrAOp83cHfV277lKT5mQgTzsJ5Ys2rnOCPPUx7jQWDtI0/b3KlbFa3MsDkCd7IJ/Q5C3DkXmKRZ407Xjx+Y3ODGKaDu4c0dz+CcjTTgt//93+vgN50pnBFX1mgTPjjsdmQJ6QeRpS5onAmidlg/nFmuoWtbjSZkJQ7tASAFv430Oeek3Z+fx6yJMb8pTNs7GaqvXf6lDmaSrkyQ6MWvNUzj5ht510EfD4lZoWi09waBCbrmnKYSzkaaep3xDy5IY8aSvMW2HJD0M/2r4NeTKfnt12Txqz2+5dUOdJugi0aso8fcWVNst47AdaMi0eOxnytNMUzOa0134w5MmBzJPPztIkAhc7M+7k+Nc1HWNzNRSoMoyt89RLoFBhXNYL6bOfaBnMm4PRzginH16kpc3y4TchT7ttO78D8uTAmidday1zvMmVcafOZ8dDnozPOJlbYfxdcLadXVNQdS3hcQ4J57/oWeMTjIc89SEGPvsG5MnuNsp6vEHTUSMXOjNWe8HXNGV4r4UKDQ1rzrbrnYGi04YVm959dGqys/Lksx9qEoFxDmWertIyiLWEJ0Ge+sw+vTEi3/lJG/uO+O03mZq11NoOfni6pr5ymSvjjq51Yi6cBKET8gPyBMUzYU9UnXHalY6OjgNVzzEK47vF4Wk7TVmU8Dx35Im3mZqtS8zZdj77f9kpFc77x5o9YFejqrbW+nI/c2isnoJdreZBfqB6DTZ5jpIfHwTBZ8VfslblDYRhdKaT8uTxCzCPPsQAmGf3aqmM7LNDIU8DCtSTqYl8f3ys2Pe+URkOTaUKupwZqzUdpOxSTT7VkBconvlaS36j2v7Gcx51K7S/N9rb7d7p0+cglg+/qWkQu8eVNqNK11oqjDcXRkGe9phheTx1/tx9LZKnyXqmXnjB5HagArC6MpTuZLxZpybxngEt2jPkA+QFCqfquslrtNwM5/xyxdN3RefkqTkYrSl9vtyJrz99x0psrEjsEidPpevhVIPk9QCq+o+m7ebiesHohqCz2vKsW8N71F3JR4iZGW/+F01jz6+hRoNK2BQVn3hyuc77qRE3xFTeEGPsLKd6QGPnSF1BztZFvjsFP49N1JQ5+F/I05Aym79PeZJ2oqjMWnrscG27Eg2viSWe2ct6+kZwhvXi1NLxdxqnw+dCjQaGPEBxooaRz2i9qUKhMEpxFfKV0rYLmjKg5/kabBsetJzM0bTugEOeKjjHrHH2COMzLj7bhkXjJXn6PTIpg/xo07RWrqffMOjRgOKUJg9QKE4vkcfEcnNBUDxBCNQ2ddmnyKk6GGJw+YO26RWbmTQnIwaWdSbveEmyPPUEyntTE9pqjRZwny/TNFUeGS5Pt2pqhzdN7xODGKP/rPEj5I9QpIHkKbpW4TqnbeQvsd4g53y6ygP5Ki6PbuQgxv5N14tZyQ4yg77+JutqJ5oehDxV8eXszdzH4PetU1MQ3FbX0v5Rc4Ug9DUKwTnWjjstwec1T4E/C0Xqd2brgxT/Fa5zmh77Tba2tu4tLO4xham1m13pEJl82KjxxZxpaTPViN/+tDbJzHUcBnmqKlh2pMa27m2oNEzTmImbbuoLpatcQc80+J9sHZ/Fb79L8wHcb0KT+obivsKs02PkLabMTR4uftQmRTe60ZXsE2WDdB7uWpdnH7GtjeisMH0Bj79e8UALeeot6r9JNZh3OoC2ApHlaw1tCjHypRJyK8RgvbZsbo6fYtu4M6KJf0rfGrleZVImzclAlXbPOlHcVyRPm8hXjLphzouXKkyxTXNo6u41jV+Bd1nVON7MfahejNasiSXyJH7r6mye/ZIWJ2fy4T8L8bvfsAzU3FSqdZhR/UkEJiF2W/TJuLnHbejsL6KfPmVqNrL/cZm3x/He0FQhdGlXl+DTFNaRvNS4G25tbR0mbHGxopt+2Zg0W9WpYXan1qCWC0+0pm08doXeRc+hb4c8sWJfWQ1aX0IZRmMkymezUrq3/e45KD6kMQO3ydS1hhk//L5WKRCCb8u4QweDx/XOuHScliSP2JvivaJZrMXkKUbeeBiGR4ofuFlR9ulbTmSecvxcvQGNL7OhMnTG6/ocBR+dbUPVly2QpxcGKgtA05w6syuDKJNxm0kCpXPd03t1sAwTyPK4Ex6pedxZTzWTjB+Qmwujsnm2MsYPDmfOBJSUdfqWInHaTH5i+M0Xr1G0cPxuJ3qHV9gvm+fv6M2wmH2EBFWtFjLynOat9n+uKkumSZ6yfnjRIALjmeIZbzVHoMw5diLbzI+KYQrzh0ZmdnVPNefZ/4h3u87gkaeGdozGfuwReA+K84qm664x/ubb2oq1dDqxAnN8e/ZswwvzDX4QC/QP6OFVRjYGLWaNYwDz2BU2BKJ0LvzSIKdlztNxDMcQvqiN2SVb7/MlmqWhO+2zbxiXffL4dbHsxjRwM0H5neHXG7BWcFt2UseB0KZUiuI7xXkF4rSUvMSW1NupKuwxDIsTMHUXzxofZV9+Pp8dw+6w7dUeYaNLnmg6c/BTn/wCujdTBCrjs58YIg0/iiGjsK7OZ8cneurufUH4D/PESWcl8T294/x7UCda9lOcoGjJz6mWzV0WFygwyOud6CUT2mrF4PpGHNJgzELO8s66uTFtrf+dLVMgQ5GnniyLZ5JAZfOsNe6uNqIlPCSWNvH52ro8+z9GZb199kg8mUg+25QdeLrXwQ1qXarBxWY1TtndoMAZFlhokeFxKlbLu9JR6j3+81inVOIcyCby/YU43RdjqrzqQ6dNladScPDDi40KDh6/Mv6Aye6Nqa9tqPfD0w3KuEyJcdyJYq2FRecd5tmvjKyV5rFLki5PKnbrk4fY2hgLJTfGlpkz3TD08tew/qJsvc9ViuNIibqW8Djxd6+IcaB6ScYaDJPlqTyFx35gUnCgrfJxvm9pn50WY/atO+vza4xY+zOhrVZrrbndBWr5YNfxyR5vaXG2wYVmN2VyncckVZworlN8l7zJ7AGLTVL+tkPjtxsO6WuYF2JOF68VA/tULYN6U1Cf9cNfxCmMMtcXmC5PPRmoq/B1/R41Oguw9ndgtwnb92k3YLxTubQzlN1Eu2yV3+zY1r3FO3+proPGqy2ES0fpJFGeKK6jvFEves69e02yTZ7tSofJ+OxoE9aniJf2STG4fDuloj5NQ6GOppHEfb5qwPqbv8o6DsEGeSr1sTz7qWEBIh/b++bxC+Lvg0IcPP7z1OSOA2IbeBo7R9K5agb0hVeEUH93oDpmVUSfYeUisvxZq446yvN3SqUuzC7xIB2K65KX+LxmfWFtcRO34qgWg7NPOw9mz5TWy3jsA9XeF1VapsNSY50iUFj12BZ56sk03GLQ9MT2+hxviuVlK53xxp43ZJHwejpup9br/HQs404sOxD7FYa/0LRmbXPwmaoFubFwUGknnebyFAp2a74h7uHGrB981bajbiqcpZomWZ5udaFRTpUsTzNc6jS1TcFnTaoQ3RPgtpQWdPv88tJuIY+l93gjE/n+mRz/Op3vZejagpdkfuHaJE89wfI2g3bgdWdy4aR4PlbCs43rmz5fTGLfc86ZnurkNI0upMVAaXicSlzQWELVvweR2c7W5bq+TDvoxLi1MO5lAarWQ9HsAB3ATcJNmSkSRFpyQdnUtNd+sAOeMCPR5Qn6olAojJK89XC+a9ZNa4EMf3m30yJvOnqCClqKl3Yevch05hptfRaD8OvGD0Aeb5D5zGyTp1SpppbecxX3WBzQZ+fE8LrV0NojY/uqz/8m2uVB8X7NFM/rX2laiwKkkKtGqjZPpR/oDEHxv3eJqy3dHIyuYtnAFBvWAZFc0m5J8e/z3x136MxC8X9b5ZooVZzFtOgM077lqThfpieQd7gyn7lEYjru987lLBs7R5r5FejIl1ueSd91YaE80Vf6XkZNE+f51qwfnKH9YyUXHmlatre6nXx7PsKnv3VBJCYYI1y42FKbp/dEbF8kcV30EpcWg8k8r8bJs4Co9hAGACXBZaOMtRROyBPhzdyn3mehSVPEVEYghjU/17kzrcO2kRBW1A7N/ChXRDLpV9pjX7BYnh7HObh9y9PVEuXpqZSjUFoag4D0I0L+RcWzslaeiFKtH/47k3YYZfxgvN5s7+wRxiwej/koHNNKWuCqdGlC8DWL5ekpieudrnJGCsTNXICU3OCm76iIHAYCaalsllK0ANdqeSploFi6vIbNoCKBPvsHna9bfQsf48oCY3EfnZW3BG3r5wsxXkCe3Fjawy9wxgmCIBonMfO0LOUwVH1XDISbMRhUPV23clC7dZIqT0RTUG/Smhc6ykT3wlfaUerIh0JVyxloi79JZUVwJUueOC8uleUI5BsOyVMwGvI0hIHMZ/+EwaC6hci0fVlp0HVBnnqynVmf/7dBErBO9bPbhRrauebAx8KqqsedUqkR1o0xBPJktzxVvgPVOMIwPATyNMR1CHk2DwOCuceAOCNP1NemFD5oWCXmt0r1xXThFfajk+1tXzQu5cxGj1+JMQTyZLM8kW84IwKMsQ9AnoZI6QRwfj8GhaEunOXXa5nucUieStPFXvvBuu5pkAfIvqlz9xDtVhN/7xqb+76sg77Fx8cMjCWQJ1vliXzDGQ+YM2dOBvJU4ZqUPH8CA8OgA+4sbWtlHJMnos5jH6diqCYVjOypuq3p/ruOteEA2X7lSfx+OS1RWkD+G4wpkCcb5Yl8wxkHoAP6IE+VT6m4tKVa6c46jUXiXJQngmpimXCIc6/1a69n/a4jdN0/7fij0gl2Tt1JLDhKmW+fLcC4AnmyTZ6sPxB4VyBPVXwR59lH6NBeDBD9rvfoUHMye/Lk6d0prNKxGAYdHEtnQGp7th77R9p0kPi1fpPmZEpHMGGMgTxZJE/OCYC4qe2QpyqYyPc3+kyu+OoDzZSxUBbytMsaqOZgdL3P15q0m6zW6/y0tgxUjp9i2xRexmM3SG+Isa17i35wF8YayJMl8rTdudjPedQNeao6lV5H01MYKN7LOF0b16NwXZ5KGU+fHW+SQFDtrhH5zk9qE0iPfcGmMyfF+zBXUVPQodI3Y8x5b4nAG5AnM+WJPAPyBHnq90uQTlNPeLZpU73HWuJ8DEmQp9IUnhiQS+1tzqaA5XVTuj6m6/5J1sSzfs6SWk+LlPYFP7w4yQV8SzWwPH5lubQHewXyBHmCPFkILQ41aVpF4w6sJRmfHR13+ydFnkoZGJ99w6zDY9nSdFPwYW0N4BX2s2P3GVuqvC/kwi8l8wgp9kbGD8b1Gn+/atrRPpAnyBPkabBfxS3hIUIm/pSgjNM9qYZC1oS2T5I8lYJFLjzTrGDBnsu0BB/S/MxzdISMwZmRjRplsj1BGac/jGhu/8SuzUCHjkOeIE+QJ1tpKAynE9Vt3B00hGtNJh82mtTsSZOnUrDIhZNE0Nxu0BqfZ+o9vQXxqGyCaIOnTX1XVJ7nuNs74HOPqsE7nG1aJ8RpamqAw8WzHr8O8gR5gjxZDE1lmXTIq8Svvnm6MwyQp4HkgeUNWyT9pO4yFSlv5j4ZP/x+vc/eNm/Hnd7+Ui6j4l4WSvSr+/rKNvXzTtwCeYI8QZ7spqacHTBvMWMF1xP1LXyMqQ2dVHkqi7oQB6OEgV8aRzvQuish93ebdTxRMD4WqW4JTxJt8ZQDSwOeTnvBqUN+Jzz+vbintSFPkCfIU7WIL3GajxeD2V8tHLyeFYPQWQOlyiFPBmSg8qzVoCzBglj7gpB88Rv+aER7xLoLtXVYNsfPtWV34i7XS2LMnEz3UPlHRTCOjhSCPEGeIE+247F01g8vMurA1/4D4B+psnM1g5fWgKnpyJxsMz/KYIG8yZC1KY+bkZErHe0S82He7LL4W4IkKjxT/JZHLdi9uzjjsYk0FSvlo2JSx4FxFRWtawmPgzxBniBPkgczSufT2gSjtpz7fG02z35F1axta1EdgYHqylBleZPbQUjvvxsgT3OMmtb0uj5Hle/jWEyd8fgFJrVF2g++WGoLg9aHlXZMCsGhsguKpzH/rPG+3jJlJzLkCfLkJpM7DqDUvhjQfhdLwbuyMM0TAe/b2hf6Sp22CqdpONOtYEFT1JC8xLypYKypmV9agyj6PNfzrrF19H4b2RYNhbpyuYtSvSz9O/SEvNG4Q7+Bnou+cYKNpVMhVO5SpZ3Won+dY7cfQJ4gTzYhvlTSOf6t0m4Rn/9JSbkDn68XA8dCMYhMLy0AH+vIidcT2mopKKqcxkw1do60pB/tJX7v/HjEKfyxFW1EtZE83pDx+e2i37yoIkuZybPz7WiLmfsIiTmRjlcqjQ1KamexdbQWjtbmlYpbxvyhVuexj2c99l3xe+4V4+w7ktaHbqdpYsru2e8HkCfIk90yVUcvYn2ON4kvtZ9R5oPWk9Biyv7OOCt9UfnsTREQlpXWLfn8LhIlWjhKNXGckaX+viwpCHj8OnHPvxbtMKuqK8/uEO13Y89unxq7WqJ1GAVvkijRJx4qFW+t9ir1vT4unz0i/p7/pKkRW/tNaadeufAoCUQXLbKu6BgcWqBMEu+xr1j7EpWOnOo6ojxm8Gsok1keS0rrCtf0lbUpjzt8bY+IPkz9gerdUaYvk+s8Jo7Dwofy0Up9N+OxH4jfP7vnXpfTh+ZABVDFf7dCXA/SNCjdJ5WJcMcPIE+QJ7flaq9SypsyIuJLmmTLlgXeAFhATaaxcFCmJfg87ZyiqW0SCtoFVhbT4Ix0LpxAojSiiX/K5mnvobYLZXpTTUF96vy5+5bv29Fxh8bYSXMypWKnNAVLY21DYbjrDxjyBHkCAAAAAOQJ8gQAAAAAyBPkCQAAAACQJ8gTAAAAACBPkCfIEwAAAAB5Sp48iRvbCnkCAAAAgAp5Is9wsXHWQZ4AAAAAoEKeOI/edq5xxI29DnkCAAAAgAp5Is9wUZ5WSjLL5ehqAAAAgCvyFC2XJE8rXWyc5yU1zsvoagAAAIAbUFyX4wfREgflqfiIpMzTanQ1AAAAwBU/iFZL8oOHXZSn+RJX09eguwEAAADWUyNrNz55hnOtw1j0S0nytKOzs3Mk+hsAAABgNxTPZblBFEW3OChPxctkNRBj7Gh0OQAAAMB2N2BHy3OD4mXONRDnvEFWA4k/6wx0OQAAAMB6NzhDohs0ONdAHR3RYRIbaDq6HAAAAGC9PE2X5QbkGc41UGtr6zDOow2SGuk+dDkAAADAbiieS/KC9eQZjhpmtFhSI21ijKXR7QAAAAA7oTguvGCjpDIFi51tKM75DFnpuTCMzkTXAwAAAOyE4ri85TzFNpct8zR5DRXdj64HAAAA2AnFcYm78E9ztqEKhUJW3OQWWY0VBMUT0P0AAAAAu6D4La++U3EL+YXTDSZucpHE7NOTbW3FWnRDAAAAwA4oblP8ljhl96DzjRZF0SUSbZMqit7p7Ap7AAAAwCEoXlPclukBnPOLnW+4jo6OA4RxbpbbcFE7jmwBAAAAzIXiNMVryfF/c6FQGJWIBuS8WJCbfSpdrwr7vBAlDAAAAABzKJck4BdSnJYd+4U8/SYxDRkE0TgF8vTu9RalBMXDOl9ch2JKDwAAANAHxV2KvxSHe6bo3lIV88knEtW4whYfUyhQOxXU5Ly4VDzAh8Q/7xV/bxelDSu5xJ/x23cv8WfNDIJgNF4TAAAA9iUxgtEUx3aOa5XFRvHnBBRfe+LsUoq7OuI7eUTiHpxo5PGa5EnltVWY9Vi8hgAAAGyB4hbFL/tjcDQ+kQ9QWOPDDjy8h/AqAgAAsCh58ZDtsZf8IckP8Bjb7Vc8wFfwKgIAALAocfGK7bM+5A8Jf4jF6+yWp+IqvIoAAAAsirurbI67jEXXJv4hFgqF4eJBPgN5AgAAACBPe4i5z5A34CmmSovXDuU8WgN5AgAAACBP/SyTWUO+gCfYizAsnmTj+ifIEwAAAMiT+nVO5Al4en0+UN4sGmg75AkAAACAPPU6v64ZT24AGCtOhTwBAAAAkKfyAvHiVDy1QQlU1MJ51A15AgAAAJIpT+QB5AN4YkMgiqLTRcNtgDwBAAAAyZKncvyPTsfTqkygjhEN+ALkCQAAAEiGPJXjfsKLYFZLZ2fnSNGIsyBPAAAAgOvyFM2iuI+nJIkgiMaJhn0R8gQAAAA4J08vUpzH01FAW1uxlrHou6KRV+JsOwAAAKASeTLqbLuVFNcpvuPJKIZKs0dR1CjseYEBu/IexRMBAABgCxS34t5FR/Gb4jiOWomJ9vb2gznnF4kHMU88kBWaO8A2pBkBAADYBMUtil+a4+WKcpzmF1HcxlMwU6bGiOs74pomHlabeGi3C8O9W/x7h3iIoYxL/JmzxZ95LFocAACAbVD8KscxWTGR4ivF2ej2ctyl+FuKw2MgSwAAAAAAAAAAAAAAAAAAAAAARfx/FEp3d58CGWsAAAAASUVORK5CYII=;" vertex="1" parent="Nt8Wr1XZAe8mfdTWKBez-66">
          <mxGeometry x="264.5" y="160.1099999999999" width="92.5" height="33.02" as="geometry" />
        </mxCell>
        <mxCell id="Nt8Wr1XZAe8mfdTWKBez-16" value="" style="shape=curlyBracket;whiteSpace=wrap;html=1;rounded=1;fontSize=14;" vertex="1" parent="Nt8Wr1XZAe8mfdTWKBez-66">
          <mxGeometry y="86.74000000000001" width="20" height="511.01" as="geometry" />
        </mxCell>
        <mxCell id="Nt8Wr1XZAe8mfdTWKBez-27" value="Mobile Application" style="outlineConnect=0;gradientDirection=north;dashed=0;verticalLabelPosition=bottom;verticalAlign=top;align=center;html=1;fontSize=12;fontStyle=0;aspect=fixed;shape=mxgraph.aws4.resourceIcon;resIcon=mxgraph.aws4.mobile;" vertex="1" parent="Nt8Wr1XZAe8mfdTWKBez-66">
          <mxGeometry x="58.75" y="119.99000000000001" width="66.5" height="66.5" as="geometry" />
        </mxCell>
        <mxCell id="Nt8Wr1XZAe8mfdTWKBez-1" value="" style="points=[[0,0,0],[0.25,0,0],[0.5,0,0],[0.75,0,0],[1,0,0],[0,1,0],[0.25,1,0],[0.5,1,0],[0.75,1,0],[1,1,0],[0,0.25,0],[0,0.5,0],[0,0.75,0],[1,0.25,0],[1,0.5,0],[1,0.75,0]];outlineConnect=0;gradientDirection=north;fillColor=none;dashed=0;verticalLabelPosition=middle;verticalAlign=middle;align=left;html=1;fontSize=12;fontStyle=0;aspect=fixed;shape=mxgraph.aws4.resourceIcon;resIcon=mxgraph.aws4.amplify;labelBorderColor=none;labelPosition=right;" vertex="1" parent="Nt8Wr1XZAe8mfdTWKBez-66">
          <mxGeometry x="33.25" width="106.75" height="106.75" as="geometry" />
        </mxCell>
        <mxCell id="Nt8Wr1XZAe8mfdTWKBez-2" value="Cognito: Guest Access&lt;br&gt;" style="points=[[0,0,0],[0.25,0,0],[0.5,0,0],[0.75,0,0],[1,0,0],[0,1,0],[0.25,1,0],[0.5,1,0],[0.75,1,0],[1,1,0],[0,0.25,0],[0,0.5,0],[0,0.75,0],[1,0.25,0],[1,0.5,0],[1,0.75,0]];outlineConnect=0;fontColor=#232F3E;gradientColor=#F54749;gradientDirection=north;fillColor=#C7131F;strokeColor=#ffffff;dashed=0;verticalLabelPosition=bottom;verticalAlign=top;align=center;html=1;fontSize=12;fontStyle=0;aspect=fixed;shape=mxgraph.aws4.resourceIcon;resIcon=mxgraph.aws4.cognito;" vertex="1" parent="Nt8Wr1XZAe8mfdTWKBez-66">
          <mxGeometry x="58.5" y="356.4899999999998" width="78" height="78" as="geometry" />
        </mxCell>
        <mxCell id="Nt8Wr1XZAe8mfdTWKBez-4" value="AWS Pinpoint:&lt;br&gt;Push Notifications" style="points=[[0,0,0],[0.25,0,0],[0.5,0,0],[0.75,0,0],[1,0,0],[0,1,0],[0.25,1,0],[0.5,1,0],[0.75,1,0],[1,1,0],[0,0.25,0],[0,0.5,0],[0,0.75,0],[1,0.25,0],[1,0.5,0],[1,0.75,0]];outlineConnect=0;fontColor=#232F3E;gradientColor=#F54749;gradientDirection=north;fillColor=#C7131F;strokeColor=#ffffff;dashed=0;verticalLabelPosition=middle;verticalAlign=middle;align=left;html=1;fontSize=12;fontStyle=0;aspect=fixed;shape=mxgraph.aws4.resourceIcon;resIcon=mxgraph.aws4.pinpoint;labelPosition=right;spacingLeft=4;" vertex="1" parent="Nt8Wr1XZAe8mfdTWKBez-66">
          <mxGeometry x="517" y="458.2399999999998" width="78" height="78" as="geometry" />
        </mxCell>
        <mxCell id="Nt8Wr1XZAe8mfdTWKBez-5" value="Lambda Functions" style="outlineConnect=0;dashed=0;verticalLabelPosition=bottom;verticalAlign=top;align=center;html=1;shape=mxgraph.aws3.lambda_function;fillColor=#F58534;gradientColor=none;" vertex="1" parent="Nt8Wr1XZAe8mfdTWKBez-66">
          <mxGeometry x="517" y="348.3699999999999" width="69" height="72" as="geometry" />
        </mxCell>
        <mxCell id="Nt8Wr1XZAe8mfdTWKBez-7" value="API Gateway" style="points=[[0,0,0],[0.25,0,0],[0.5,0,0],[0.75,0,0],[1,0,0],[0,1,0],[0.25,1,0],[0.5,1,0],[0.75,1,0],[1,1,0],[0,0.25,0],[0,0.5,0],[0,0.75,0],[1,0.25,0],[1,0.5,0],[1,0.75,0]];outlineConnect=0;fontColor=#232F3E;gradientColor=#945DF2;gradientDirection=north;fillColor=#5A30B5;strokeColor=#ffffff;dashed=0;verticalLabelPosition=bottom;verticalAlign=top;align=center;html=1;fontSize=12;fontStyle=0;aspect=fixed;shape=mxgraph.aws4.resourceIcon;resIcon=mxgraph.aws4.api_gateway;" vertex="1" parent="Nt8Wr1XZAe8mfdTWKBez-66">
          <mxGeometry x="257.5" y="366.4899999999998" width="78" height="78" as="geometry" />
        </mxCell>
        <mxCell id="Nt8Wr1XZAe8mfdTWKBez-33" value="Flow &amp;amp; Services" style="text;html=1;resizable=0;points=[];autosize=1;align=left;verticalAlign=top;spacingTop=-4;fontSize=16;fontStyle=1" vertex="1" parent="Nt8Wr1XZAe8mfdTWKBez-66">
          <mxGeometry x="147.5" y="79.99000000000001" width="140" height="20" as="geometry" />
        </mxCell>
        <mxCell id="Nt8Wr1XZAe8mfdTWKBez-34" value="** Dynamo DB" style="outlineConnect=0;dashed=0;verticalLabelPosition=bottom;verticalAlign=top;align=center;html=1;shape=mxgraph.aws3.dynamo_db;fillColor=#2E73B8;gradientColor=none;strokeColor=#FFFFFF;" vertex="1" parent="Nt8Wr1XZAe8mfdTWKBez-66">
          <mxGeometry x="517" y="229.12000000000012" width="72" height="81" as="geometry" />
        </mxCell>
        <mxCell id="Nt8Wr1XZAe8mfdTWKBez-42" value="Auth" style="edgeStyle=orthogonalEdgeStyle;html=1;endArrow=open;elbow=vertical;startArrow=none;endFill=0;strokeColor=#545B64;rounded=0;fontSize=14;strokeWidth=2;" edge="1" parent="Nt8Wr1XZAe8mfdTWKBez-66">
          <mxGeometry x="-0.037" y="20" width="100" relative="1" as="geometry">
            <mxPoint x="297.5" y="331" as="sourcePoint" />
            <mxPoint x="297.5" y="221" as="targetPoint" />
            <mxPoint as="offset" />
          </mxGeometry>
        </mxCell>
        <mxCell id="Nt8Wr1XZAe8mfdTWKBez-44" value="&amp;nbsp;Rest Calls" style="edgeStyle=orthogonalEdgeStyle;html=1;endArrow=open;elbow=vertical;startArrow=none;endFill=0;strokeColor=#545B64;rounded=0;fontSize=14;strokeWidth=2;labelPosition=right;verticalLabelPosition=middle;align=left;verticalAlign=middle;" edge="1" parent="Nt8Wr1XZAe8mfdTWKBez-66">
          <mxGeometry width="100" relative="1" as="geometry">
            <mxPoint x="102.5" y="226.74" as="sourcePoint" />
            <mxPoint x="102.5" y="336.7399999999998" as="targetPoint" />
          </mxGeometry>
        </mxCell>
        <mxCell id="Nt8Wr1XZAe8mfdTWKBez-49" value="" style="edgeStyle=orthogonalEdgeStyle;html=1;endArrow=open;elbow=vertical;startArrow=none;endFill=0;strokeColor=#545B64;rounded=0;fontSize=14;strokeWidth=2;" edge="1" parent="Nt8Wr1XZAe8mfdTWKBez-66">
          <mxGeometry x="-0.037" y="20" width="100" relative="1" as="geometry">
            <mxPoint x="159.5" y="405.9899999999998" as="sourcePoint" />
            <mxPoint x="240.5" y="405.9899999999998" as="targetPoint" />
            <mxPoint as="offset" />
          </mxGeometry>
        </mxCell>
        <mxCell id="Nt8Wr1XZAe8mfdTWKBez-51" value="" style="edgeStyle=orthogonalEdgeStyle;html=1;endArrow=open;elbow=vertical;startArrow=none;endFill=0;strokeColor=#545B64;rounded=0;fontSize=14;strokeWidth=2;" edge="1" parent="Nt8Wr1XZAe8mfdTWKBez-66">
          <mxGeometry x="-0.037" y="20" width="100" relative="1" as="geometry">
            <mxPoint x="360" y="404.9899999999998" as="sourcePoint" />
            <mxPoint x="441" y="404.9899999999998" as="targetPoint" />
            <mxPoint as="offset" />
          </mxGeometry>
        </mxCell>
        <mxCell id="Nt8Wr1XZAe8mfdTWKBez-52" value="" style="shape=curlyBracket;whiteSpace=wrap;html=1;rounded=1;fontSize=14;" vertex="1" parent="Nt8Wr1XZAe8mfdTWKBez-66">
          <mxGeometry x="460.5" y="242.49" width="20" height="326.25" as="geometry" />
        </mxCell>
        <mxCell id="Nt8Wr1XZAe8mfdTWKBez-60" value="Outbound&lt;br&gt;Rest Calls&lt;br&gt;to Xilinx Internal" style="edgeStyle=orthogonalEdgeStyle;html=1;endArrow=open;elbow=vertical;startArrow=none;endFill=0;strokeColor=#545B64;rounded=0;fontSize=14;strokeWidth=2;labelPosition=right;verticalLabelPosition=middle;align=left;verticalAlign=middle;spacingTop=4;spacingLeft=4;" edge="1" parent="Nt8Wr1XZAe8mfdTWKBez-66">
          <mxGeometry width="100" relative="1" as="geometry">
            <mxPoint x="289.13" y="486.7399999999998" as="sourcePoint" />
            <mxPoint x="290" y="613.25" as="targetPoint" />
            <Array as="points">
              <mxPoint x="289.5" y="516.7399999999998" />
              <mxPoint x="289.5" y="516.7399999999998" />
            </Array>
          </mxGeometry>
        </mxCell>
        <mxCell id="Nt8Wr1XZAe8mfdTWKBez-69" value="&lt;span&gt;Upon launching the application the user is asked to authenticate with Okta via API gateway.&lt;/span&gt;An anonymous user session is create and used to make requests.&amp;nbsp;&lt;span&gt;Once authenticated the app makes rest calls to AWS services to retrieve the data. API Gateway sends these requests through to Xilinx Internal via Reverse Proxy. The reverse proxy will be configured to only accept requests from the aws instance. When data is returned it will be processed by a lambda function and possible stored in Dynamo DB (TBD).&lt;br&gt;&lt;br&gt;PinPoint will be used to send Push Notifications to the app. The push notifications for this application are triggered from Xilinx Internal XRM database.&amp;nbsp;&lt;br&gt;&lt;/span&gt;" style="text;html=1;align=left;verticalAlign=top;spacingTop=-4;fontSize=14;labelBackgroundColor=none;whiteSpace=wrap;" vertex="1" parent="Nt8Wr1XZAe8mfdTWKBez-66">
          <mxGeometry x="580" y="23.25" width="449" height="166.75" as="geometry" />
        </mxCell>
        <mxCell id="Nt8Wr1XZAe8mfdTWKBez-71" value="Outbound&lt;br&gt;Rest Calls&amp;nbsp;&lt;br&gt;for Push Notifications to PinPoint" style="edgeStyle=orthogonalEdgeStyle;html=1;endArrow=open;elbow=vertical;startArrow=none;endFill=0;strokeColor=#545B64;rounded=0;fontSize=14;strokeWidth=2;labelPosition=right;verticalLabelPosition=middle;align=left;verticalAlign=middle;spacingLeft=4;" edge="1" parent="Nt8Wr1XZAe8mfdTWKBez-66">
          <mxGeometry width="100" relative="1" as="geometry">
            <mxPoint x="552.5300000000001" y="609.2399999999998" as="sourcePoint" />
            <mxPoint x="553" y="551.25" as="targetPoint" />
            <Array as="points">
              <mxPoint x="552.9" y="639.2399999999998" />
              <mxPoint x="552.9" y="639.2399999999998" />
            </Array>
          </mxGeometry>
        </mxCell>
        <mxCell id="Nt8Wr1XZAe8mfdTWKBez-67" value="" style="group" vertex="1" connectable="0" parent="1">
          <mxGeometry x="106.5" y="161" width="297.75" height="417.75" as="geometry" />
        </mxCell>
        <mxCell id="-QjtrjUzRDEMRZ5MF8oH-26" value="Mobile Application" style="outlineConnect=0;gradientDirection=north;dashed=0;verticalLabelPosition=bottom;verticalAlign=top;align=center;html=1;fontSize=12;fontStyle=0;aspect=fixed;shape=mxgraph.aws4.resourceIcon;resIcon=mxgraph.aws4.mobile;" parent="Nt8Wr1XZAe8mfdTWKBez-67" vertex="1">
          <mxGeometry x="106.75" y="301.25" width="66.5" height="66.5" as="geometry" />
        </mxCell>
        <mxCell id="Nt8Wr1XZAe8mfdTWKBez-17" value="" style="shape=image;verticalLabelPosition=bottom;labelBackgroundColor=#ffffff;verticalAlign=top;aspect=fixed;imageAspect=0;image=data:image/png,iVBORw0KGgoAAAANSUhEUgAAAggAAAFbCAYAAACwDnanAAAgAElEQVR4Xuy9CZwcZZ3//36quufK5JiEhPsKIEgUhQTk1KAiHuC1v+CBe+lf9oe77nrtrvrfXYb/nrr8FtG/F+u6rgiyjLoqKIIK4b4SBDVBrgBBE8h9zdnd9fxe329VdVdPJumZTHfm6G/pkDmqq556P9X9fOp7OmwzAkbACBgBI2AEjMAwAs6IGAEjYASMgBEwAkZgOAETCHZPGAEjYASMgBEwArsRMIFgN4URMAJGwAgYASNgAsHuASNgBIyAETACRqA2AbMg1GZkexgBI2AEjIARaDoCJhCabsrtgo2AETACRsAI1CZgAqE2I9vDCBgBI2AEjEDTETCB0HRTbhdsBIyAETACRqA2ARMItRnZHkbACBgBI2AEmo6ACYSmm3K7YCNgBIyAETACtQmYQKjNyPYwAkbACBgBI9B0BEwgNN2U2wUbASNgBIyAEahNwARCbUa2hxEwAkbACBiBpiNgAqHpptwu2AgYASNgBIxAbQImEGozsj2MgBEwAkbACDQdARMITTfldsFGwAgYASNgBGoTMIFQm5HtYQSMgBEwAkag6QiYQGi6KbcLNgJGwAgYASNQm4AJhNqMbA8jYASMgBEwAk1HwARC0025XbARMAJGwAgYgdoETCDUZmR7GAEjYASMgBFoOgImEJpuyu2CjYARMAJGwAjUJmACoTYj28MIGAEjYASMQNMRMIHQdFNuF2wEjIARMAJGoDYBEwi1GdkeRsAIGAEjYASajoAJhKabcrtgI2AEjIARMAK1CZhAqM3I9jACRsAIGAEj0HQETCA03ZTbBRsBI2AEjIARqE3ABEJtRraHETACRsAIGIGmI2ACoemm3C7YCBgBI2AEjEBtAiYQajOyPYyAETACRsAINB0BEwhNN+V2wUbACBgBI2AEahMwgVCbke1hBIyAETACRqDpCJhAaLoptws2AkbACBgBI1CbgAmE2oxsDyNgBIyAETACTUfABELTTbldsBEwAkbACBiB2gRMINRmZHsYASNgBIyAEWg6AiYQmm7K7YKNgBEwAkbACNQmYAKhNiPbwwgYASNgBIxA0xEwgdB0U24XbASMgBEwAkagNgETCLUZ2R5GwAgYASNgBJqOgAmEpptyu2AjYASMgBEwArUJmECozcj2MAJGwAgYASPQdARMIDTdlNsFGwEjYASMgBGoTcAEQm1GtocRMAJGwAgYgaYjYAKh6abcLtgIGAEjYASMQG0CJhBqM7I9jIARMAJGwAg0HQETCE035XbBRsAIGAEjYARqEzCBUJuR7WEEjIARMAJGoOkImEBouim3CzYCRsAIGAEjUJuACYTajGwPI2AEjIARMAJNR8AEQtNNuV2wETACRsAIGIHaBEwg1GZkexgBI2AEjIARaDoCJhCabsrtgo2AETACRsAI1CZgAqE2I9vDCBgBI2AEjEDTETCB0HRTbhdsBIyAETACRqA2ARMItRnZHkbACBgBI2AEmo6ACYSmm3K7YCNgBIyAETACtQmYQKjNyPYwAkbACBgBI9B0BEwgNN2U2wUbASNgBIyAEahNwARCbUa2hxEwAkbACBiBpiNgAqHpptwu2AgYASNgBIxAbQImEGozsj2MgBEwAkbACDQdARMITTfldsFGwAgYASNgBGoTMIFQm5HtYQSMgBEwAkag6QiYQGi6KbcLNgJGwAgYASNQm4AJhNqMynt4j+NyYmaXDXthT/L7MRxvr7suw1f9/fLMT914x7C/1+u8dhwjYASMgBEwAlDnRW2aIfXgZCFWYZDdRCSkAiEVBsvqfPE9meOJWMgKhMticeBc/K+MU3820VDnSbDDGQEjYASal0DTWxCGLf4OWfBlsV+eiIKNeHcRpcl4i+jYewiYXxkrFcuDTwXEZBy7jckIGAEjYAQmN4GmFAhZUTD8KXwPhnvHSkKGyBGRIyBPjhZa9HfyUwjk9W8RIXk8Q/s48RGeIiXyDOEoEuAYoEgbQwwREVBkJgNuUXyG3awbrtqSMPzvJhr2cV7sZUbACBiBJiPQVAIhWSxjK8FCAnbiuYPIdRPtad79k7TyIvNooYsis8kxC5hHwEF4ZuJoxdOJZy4Bc4hoIzb9xzEEw90Tw0+UuAnK+4kA8DqyF5MRyhztxPEiJfpw+re1zOF3bKaXMxhybmQLh/cEKmxkk1dtxCcWBrMuNNkb3S7XCBgBIzBWAk0lEEaCk5jp85zADCI6KNFOgQ4cLQS0UuIgQo4gZD4lFQSz8BwAHIRjJp5WoBPHDDwtyTn2hWsalOhwFPBsB/qT4+0ANuDoTZb653Gsw7GdIttwbCVHLyW1NexSYbGZXTxIYU/iZyQrylhvHtvfCBgBI2AEpi+BfVnIphyNKjP7ckIWELCdUF0CMJN2DibiaOAwHAfq4u/13wX6d2jFkcPr/vKV1995QhxBVbBnahHYV0picZBjVOcwFIECqKWgqE6HKHFBOIbw7AI2JaLhGYo8S4lnaeG3KiByFNlJxExKLKakAY+X4TTOQqwKq/FchlkV9nXO7HVGwAgYgWlIoCkEglr6xdx+N7NpYT5wICHzgAMocRg5DlZREDEPx1x1F6CuhLZRZnrELgVPlLgXxneryFiHC4/dj1ixOMTuDLE2bANeyHytx7MB2KxfRV6kyAvMYzOLKGSzHjIiKr0nTDCMbxbt1UbACBiBKU1gWgsEWfQkKE/TAFfo4r+YiFfgeAmeY1QUwGy1BsRWAbEOiM8+9tvHz/HxM31l29P3u98Ie6I7UlzC8FiE4Uertiqk8Q3xXvF5xJIhvxf3hAQ4phaHAbUuwHM4HiNiNY4n9Hct7GIn/XQxyIkUR0ql1MOP1yoypd8iNngjYASMQHMSmNYCIZ1SfzudtHMGOd6HZ7GKAs9sHB2JGJCFtfzknCy0Jbya9OO/VUjF3w9f5CuvriUg9vZ3+Vt89NEIhOp9ql0dlb/JscRFsVPjGOJYBvl6gYi1RDyJ5wlmspYe+rIxC/4GjbyI3RAXEVmdheb8kLCrNgJGoDkJTFuBULYefJU8r+RoHL+H4wPAUeUF2BFmluLhLHZfpOtxj2TPUi0y4vOlloKRBUc6gpHGWhlvxfKRWhpil0XsAhHhI/8OAi/i+TUBv8DzGAWe1+yJiB2EDHCG7qOjzBaMMotCPW4EO4YRMAJGYHITmJYCIfWnq3vhXtoJeSUh7yLiXTjNPpBqA6lZfrLMUPqknxUmqUUhlg4VK0f2+7KhpOpCql0S2f0rsQtiIXFIhkQvnh04nsXxKI5VFHmcuTzhjtO/U7YmyA9LNS3UYhQmy51j4zACRsAINIDAtBQIuqCl8QcrNLbgCOB8PO8FXq5uBa8pgwPquUeLDslCKBkBEn8gv5Wn5/h3esBkzz1NQrwgpzxzOK2H0J4cTxdU0DRISYdM4x3ExSGBkJINIeeVGIhac5LWWEgtDnLmWm6NNIhS9kxrPoirRKwKWaEkTH4HPKu5DQEPAb+hyAaKbOcsel3yekuTbMC70Q5pBIyAEZhEBGotRpNoqGMfSpVIKHAsOS7EcY7GIESsJ2C9GtvjpMc1mgwodRCljqGIA8fzDKm5PdCv4cmHIw1Jll2poeCTLAn5XgIHI12YZ+E4ROsmeGbgWJDsJyJB/jYPr8JCziVuAUnFTFMpRbTEcqaSLRGLg5GCKKvjJEbjLkmFh8RdiDgSsSCpk08ScS+eB+jkSWWUo8AGomzhJTVxWDDj2G9Se4URMAJGYJISmN4CIWm2pGvqCjooqkhYiKMzKTC0JZmXPgJe1Ih+qZGwmZCSZgHscudqgN+YNn26fooW+unQKgRztHiy2CykAJOkUIrbo5WcBktKnQURFCIYunRsETMINM1S/j4HlwRVxtYHOUZ7knUxfFyyyKfWilouiVhqxF+xyyUWGrEIqQRLilD6DZ7HgccJeAzH40Q865bQpwfpJtDmVXF9BXM9jOlusZ2NgBEwApOTwLQWCCnyconl1WrClx4KAX2U2JKUKF5AJGl+Yj6vKqqUbYQ0lvmLSxpXlW/WeAixCvSQ42QtuyTe/5B+Qv2+n0BlgxRvymkFR6nHIMWaDsZxsH7vVCyIleFQLfecpmZKNUcp+Ry7KNKFf6Q4heFXEc//SCmUafZG7DgRi0IBxzZ1PTjupMQ9GrOwnR0UGOBNKqhiZ0dirzCLwlhuGtvXCBgBIzC5CDSFQNhX5MmCPnZG0lHR4fc1LVBFykpydNLGLjoZYBatdBDSRkGtB5KiKeWepfKjiAX5iqtARmqFSIVCKhZSq0JqGUjFw0jXpmMvM6vEN8i+YgfZTsA6sSBoMGOJFYQ8LO4Yt4SCMltOkLgfIhMJ+3r32euMgBEwAhNLYOyL38SOd1xnLy9echR5ys9uSbnh7K/Gu7jt1mkxPnjcLCrdpM6AdHiQTSo0rNR/JTJC6w5UNZhK21Av1f1aKCC2jyNo4Sicpm9Kuehj8BrbIC4LiW0QQSHWBQmCHG4xSJ/40/GMnD4ZWxFEZKT2gTgew2mMwn147qLEQ7TzBPez1f2JCgUtUjWuCbMXGwEjYASMwIQRaCqBoI/Te+iuuD8Xsz2NgctxY/Hhq+//DbQSalxC/BVXhjwcx4lEHINT0XCclpWOszcq3R4qGQ1pkaU9p09WV3pM7xuN00i6TUqcwo2UuIVHeZZLNHZD+j2oNcFdNHLHyQm78+3ERsAIGAEjsFcCTScQpsr9oCIiFgyULQ6pBUEsDtK+eSmlkYRNEpApVoXDyXMYnqPxLNR0T4lliFtTp90n03ug4lqoditkkWVTLNMiTBLaKNaJXhwPA7fj1UHyGJ2sdccxWLaCxJkOe2ytPVXmxsZpBIyAEWgGAiYQpsAs783qoX0mUkO+CArZRFRIQOZWWukiTy8tSczCy3FaB+IEvFoVpEmVuCDSGgwpjdiSkJUOFU7VboNKgKMs/AMaoyDBiwE/BW6ijzValbGForpOwOISpsA9Z0M0AkbACJhAmML3QFkc7G5p2G0R9tKq+iEOIK9dK8WqIBaFYzVuQSwMcKQWcapIBHFGpBaDrAuiQqxSkbJSnTGOU5Csh2fw3A8aoyClnJ/gdHYmcRWBpERm+z5M4WmwoRsBI2AEpiUBEwjTclqTWAsRDifitOGSbEvx9BByPHlNpdylcQmLCDkVzytxHEnEAUnYpAQ2pimLw++T6p+zVoRsIWdxhEjtBM9twE+J+BXPsQ3J8sg0pNqf8R/TdLrtsoyAETACdSdgAqHuSCfHAXezLozg//e3k2Mmcwi14fOB5DkWr2LhtCSwUYo4pYGL6h5Ifo7bYVdvcQxDJQhSrA6SjSHFlNYnpZt/Sokfciq/TV6aFmUyt8PkuG1sFEbACBiBMgETCE10M2gsQ1r8KS7m5NPqhxoQ+Tpm08pLcbwKxxIijVM4hIAD8Foyek/bSOmRUrK5Iiji8tC/Ar6JV2vC86ylN1tQyiwJTXQz2qUaASMw6QmYQJj0U1TfAWY7XWaPXBYPC2llUEs0ScVGiVM4Dc9rNbBR+kVIM6uKSyFu+LR7g6nU0ZCNTZC9JC1yLZ47KPAj4EFa2MBiSqwkZLFWs7TaCfWdcjuaETACRmCfCJhA2Cds0+dFGWEQsIaIi+ICTXKF/hZmcIB2wjydiMV4zYA4Xss9x2WdsymLeyq2JH0e0hTK1DWxHsc9wG0Mcj+7eNKdr82hpE5FYKmQ0+f+sisxAkZg6hIwgTB1565uI98tjbKSLilCIeBXzKLIwRQ5BXgjgcYozE+aTInrIdvgScaVva8qFoE0RiEWINJK+ykNYAz4PvArFjOQvNZiEuo2u3YgI2AEjMC+ETCBsG/cpu2rskWN5IE+Nfn7FeSJ1HLwEgJeCSoWTk7qKUgtBbETSJxBKhBS0ZCyqgQxxoJCRMKA1kyQUs0BNxFwtzuZbZkxWGfIaXun2YUZASMw2QmYQJjsMzTB49NyzpIqmW6SFDnIbEoswmlswrlEKhqkNXU+2S17X410j6UZEepV0FLNnnvI81V2cS9ns93SICd44u30RsAIND0BEwhNfwvUBjA8sFF/vodOAg4k5OUEKhSkhdQxoA2iUgEgloI9BTEOL8K0A8f9RHyHFn7M91mvI7tMBYQ0frISzbWnyvYwAkbACNSNgAmEuqGc/gdSa8JrCLT75GItmVzyT9LKVk4C3oTjbBzH47WEcy6xO8QhivE2/H5LhYSIALE+DGlmg+c68tzMK3lezyEtpDPujulP2q7QCBgBIzDxBEwgTPwcTKkRVAU0yt0jS/tyWpnBfCJOIOR1wNtB209LpkNaOkn23j0uIb56tRIk/0qZ5lU4riHif+hlvbbmTqovWhrklLpdbLBGwAhMYQImEOoweeXOi+mxpFnSvmyXZ14Um9al++GkrAtQDiRMeiroz8uZQSfHJXUTziPQIEYJbIyrKsbbnl0OcZCjWB568awAfqAlmgs8zZnaCKpsh0hTMfcFs73GCBgBI2AEahMwgVCbkeTm78apHN2f7aZYOdbYuYo4SERBdkjl8+xlDKO4hIbuUg5klJ4PGwmYzyxmcQaed+M5A1gAtKqrIS6spNpnhEGlIkL+FUvCkyoSPD9iiN9wFrvS10xW4dRQ0HZwI2AEjMB+JDD2hWw/Dm6iT1UWBlKeWLZlak53Go4XPxHvlzS85Ok8TH3/9OhYNMhvMiyU2dRICSbUn+9mDi2cjONcjVyIiyzNTua0pEIhji3IbtkmTiImhvA8q1YEz3cIeISb2CldIOUck+HaJ/oetfMbASNgBBpFwATCCGR3i9of2Uqg5n8NoFtJG2HSq6CFgH5a6SdPgEMqBPTvZfrk74M4WhligAHaiSjp4l9gJ0MsJSr3S8gexukjeNn9kLVyTNTCWRYKSdlk7qONGRzDEK/H8SY8p+DpUjtCHHGwp+BFua4iIJUX5Xspz3wjjv+hgxVuEbsscLFRHwl2XCNgBIxATMAEwvBH2BsIWZg82e6hN4B2SlxBjnYVAnMZ5ChCFhDo61pwHKILYaBBerIY7h5HED8ry3/F5y79DV6kxFoiLR4kEmEjeTZTZIA+bZu8zZ2ri2b1I3fs+4+tC1JNQAL6VuPlKXsibvLdxNWPaWUu8zUd0nMB8E4cB6kFJo45SFMhq4craY2xgIivw/MCAd+jxDeZy684lqFUoFkK5ETMtJ3TCBiB6U7ABMJeZlifUh+gkxxzCOikQAcRnclyPAev388FDifS0sNiM2jRND/PHA24q0Tn716AOBYOYdIASZb253EM4hET/EYRBXi1L2zEsZYi2ykxSKC++B3sZCdd9Lkl2gSpWjhkrR7DrA3746Yup0SKBUSW92dp5QUWk+MPgPOAQ1VMVTo+7i5Y49oHhaSTpIij3xDxPQK+wy5+I4LJi6BbpimXkzKYc3+wtnMYASNgBBpBwARChmrG199CiXZKzKeFY4h4KQGH4fXJV5oXzdOn/vgJV/L323Dkk5/ldxKQl1O5sLct26UgXghFDMQLqvws3Q/jp+wiXh0VWwl4gYjncDyjX57nyPOi2jK2UNQah6uQVsvSLUGkhVoUJAByfy+i5eyONPjyJtqZz0vJ8w4i3gkcrdUXq10O1X0c0oU/traISHgMxzco8l3Wsj69NlUXJhIa8RlhxzQCRqBJCZhASCY+cRu049UacJIW/HEcCCoKDk+aE0mQ3czkyTc2fDfeTZOtESALv3Q9FOvCi8ALeDbovyHrKfGCfl9knbRRHm5ZUItID25/PnHvFsC4ihYGOAHPm/G8FXgF0AEqavaU4SAiSdwuYpHpA1bi+C6D/IAzWZtMoVVbbNIPMbtsI2AEGkOg6QWCmMKTqPiQFRyJ53wc7wAVCWIJkK01sRSkTYYq5vDqYLt0lnbnGvvUR7NlBUG6f6YCgEY0yIIpVQeLycIpKYGbNJgv4nGN9nf8mkjtB3300ctSBpEujXGNBrUmDI8XGM3g9nWfjDXBsZKAkEMp8DYCTYV8uYZzxhaZ9PqHM5Tfp3EVcu1yfV8n5MfAehYn8RkT4E7ZVyb2OiNgBIzAZCbQ1AIhdSmoL1tKBm/TnP33g0bdH5ik4WWfbGPPfmzujtntPRo/u8DLcUYKHJQjZgMZ05+r6wvG55KzpV/Z+0pGJHELYl3YpFYFxzoczxHxG+ARBnmKs9mWqasQsJyApXot+8WHn1oTNBVSukOKtcbxBjy/j+dVGuQZi5+YwcilmVPq4nJZjeNbFLnenc6L/nZyIoncRYmLZTK/82xsRsAIGIFJTsAEwkpyYor399JOnjcAH8ZxOp4ZydzJop4uVmme/uhsAZXJH2mxq/5rRUqkT9G7J1dWzlqpF5BG+4v7IK4tIAusLK8iSKQr4hNJf4MVRDzJEBuYyxY2MMC5lNJUyf1sTQiTehIRD3AILciS/h7gpYm7Ifu2GX6PynyI5SSX5DmIzLmCNu7mRHU/eLGUTFQWxyR/v9vwjIARMAKjJmACYTlhxoJwDvABbWEMB5RLBMf2Asku2IXTYME03TC1IlQLhkp+vzzZy4ItLgopOSxVD2Qb2YxesUak5vQ42DAVKLGlYXjtgGr3Q/XSKm4NcT9sw7FV4xYCHqbEbQzyCAU2iEjgBq1+GB93KaVGB/tlxYhmISxkASXOI+SP8ZyacNqTuyFmE4sh2Ueu6VY83wLudkvoU+vETZRMJIz6c8B2NAJGwAjsRqCpBYKu1J4gqf4X8giHU+QcHOcQcTSBBsYNJIJAFtlNRPQRlF0Flaf94WhlCRMhIMeIWyDP19oIkvUQP+1Lil9HUkpJYh1EPIjVojNZIOXvwysNpuIidnNUXA7p79PWSLEVIa5UKMWGUpEhT9+/1WbNaGvlVRR4lj428Xp2pvUE9oc1oZwxcgeRxoDcr62jpcmT1Ks8LQkGTSkOt8CkokjSOyVwcR3wbQb5L7p4khMpWm0E+7QzAkbACIyPQNMLhCw+ffLsYw7tGn8wC88QBa2JWKCFIQYpUiSiLQk3lJJG6fcjzUP69yEVBHnyhBRVXsiiLS6NA3DaBXGOWhgCrZ8gXwfhWICjU2sAeN1fCirlEnEh4kBsE3Lc4VUJK66JrCWjYp2Q1EmxhGwDTZMUsXCndlDsYivXJjUVMsGM47vF9vzqTPVHp9UiL+BASrwNxx/itDSzCKs0MHQkkSDiSwSCWEl+ied7Wm3xGZ6SOIRU/DVq/HZcI2AEjMB0JmACYdjsarpjJUCuYcF7ujiupJ0+ZpBnBjk6CegioouQ2SoavBZhEuO/iAhpeCTFmERUiCVCLAzplrok0ifr1GpQsThUuzXSxbYPzxoCXVwfwfMgg/xSghn1wGnWg8M3qntiVaCoCKH7OJoW3kSkloQliYUlDRTN3q9pHEZqxZEOkL8AvkGBH/FTNk1E7Yfp/GFh12YEjEBzETCBUL3KOroTX7wU95EmTWmDJtkvjvjf900aPaWbJCAuy7RAltS/eYQ8qyWcA1oJ6KOFGcxhkMO0qJDjKAIWAsfjtUaDPGGLUBA7hpRr3t2akJ6v4gypBDjG8kEKMkna4GbgLiK+T8CjODazU9MjJTuiqu/DvgMY+ZWJKJNGWLGwmc2hlDTV9N2gloRs7Ea120WCNCXSIs6A2KKNncTdMIfl7jh2pOmVFo9Q71mz4xkBIzDdCZhAGC4QEgmQqRPgkuJC4xMHch4pUiTbGDoxahDf8bTRq6WbZxEwhxwHaYqg5zjgmKQi4aHqkogDGuWJOx5vJbCxkokRxyfIlg14lNfIArsaeADHnfTxoHu1FmUiKWms4qIRQYy7pUCWOIxAs0r+UC0J4kqo9G4Y2ZIgf5ciUgE34bmKJaxKAzxdnNVhmxEwAkbACIySgAmEPYDaH+2Eq3zwqYCoZBOIC4I0Gj9bkVCFxkl0sJ3jyXE8cCKek/AqFsQ1MQOnAY9pN8T4KmNhkBUFaZZFnMoZl4+WwL/f4rkfr9kB97KW59xFDO2PjpFeLCFxS+0SD3EYjt9PLAlynWnvBrmarCUhLcOcNn56nJCrgB9yMi+kLagbIWxG+T6z3YyAETACU46ACYRJMmXZxVeHFPv/9/i0nvjuWxOHxCzyLCDkaCJeoXUcIl6JY2Y51yG+zjizIe6guHsGRnw3yGIrgYxSdGk9np/juYY+fs1GCupyibeGxGdkXQJeyjL3chwB78LzBzi1msTFpiq9MMrjydSrkLGLwPmWtIl2r2KzNXWaJDe6DcMIGIEpQ8AEwiSfqiorg1gOUgvDHURZAaH73UOnNpcKeIVaFCKOIdRF9UjQwEYRBtlqjtXWhPhv6d8lO0AW4t8CP6LErRqbsIt1WrZZth6CRlUtVEuCjEXiEjo4NamRIFUXxZUiY8sWsEqFjfwrrgR57U6ctof+Ipv5FQ9SoDt2rDQq4HKS30o2PCNgBIzAmAiYQBgTrondebiJvxzcl1gbdO27j1YGNcRxJu0cTsCpeF6bBPtJVoR0nxRTfRyTEN8BaeZGGmeRxi+ktRa24HhYhQLcTp41nER/Uqq5IYWVtF10sqBzOzOYzWJK2ipaGjxJ0SkJnpTAxOGuhjT1UUIXf4XTxM0b+RVPuz+hIJaERomaib077OxGwAgYgfoSMIFQX5779WhVcQlSR0AyL5KMg3IaJRyM4zg8J+JYRMTJmgURd1CsWAyqF9s40yGOWBCXhPwsZZsl6G+5uh1KPOxOT7IE4myPurscqtwNv2AOBS7AaaXLU5KCUjI2EQKVAMw0nTOOt9gFPAR8jRI/1vFKrYvFWkhp/EGn+3W27WRGwAgYgf1LwATC/uXd0LOVLQyyYKeuiCdwvEQrK8ykwLE4bUQl2QHHlltX7+7PT8cp94eIiLQOgbgWpL3yciJ6CFnJYnYmO9c9u0GvJ3FjaCOmDhbieCtO0x+lTbS4GqTstbgU0ns5FTdShVGCLqVx1bdp4T84icdlfxMHDb0N7eBGwAhMEwImEKbJRGYvI2NZKC/a+uLdADMAACAASURBVLtb6WCOFlxaRMAZeM5OKhZKJUd5phazffo0nl1ws/5+CWDcqC6HgO/hucktYVMSBEij0gmlKiIrCRniBPL8SZLZMDcZc1YgyJWIVUHGLAJCSmVLASURNN9zp/CcsLIqi9PwxrdLMgJGoK4ETCDUFefkO5gurBKcuBLHTrw2phIzu1gTcrwO9EvcDockC6qun8NqJMjv4toK8V9kQZaf78HxRWZwGyewVdMJJXZgL9kX+0Koqtri/czC8VpCLsZznpZViscrgiCtIJmtsii/lwZbd1LkX90ZLC/3gdgPjan25XrtNUbACBiByUDABMJkmIUGj6HsesjaBJbTygHMpp8jCDgHz+8Nq1ooo0rrCqSiQf6VBTcNDJTyxg8C3yqXN76AUMIJ690sqSqb4wE6aeW1FPl0Eo+QFocSi0H2nk6LI4lwWIPj8/RxHedo1UixdmQzOho8C3Z4I2AEjMDUImACYWrN17hGW3Y9SLpkUs1Ry0kfy2FEnIfnfGAxEthY6fWQPpmn+Q5ivk+f0GVBlkDAOwm4DsftPMWL2iipAdkCGoewEa/Hv4cj1dXgVNgclWRnxOGKlcyGVACIoNmB4y7gOob4iTuTLfuja+W4JsxebASMgBGYQAImECYQ/kScuqogk6RHyib5DQu1UZQ0R5JMAbEoHKUVGePlNi6sJGF/lej/1A0hi7AEKj6E55vkuIWT2ZStuVCvoMCqsUujq0hjKS4m4l04DkrcHnJFWVdDavWQf2WcN+P5R3caqxL3i1kSJuJGtHMaASMw6QmYQJj0U9SYAZatCZeDNDJK/PKzmcGJhJxFxLnAaVpzoBL0V50tEKcSilAQASFpkPcmLa7iwMU4HsHVM3AxzWzQRldP0cJmLiTko2r58NoSOw2yVC9CEjcR10yIx/kI8A84fpZkYMTFkyztsTE3mh3VCBiBKUvABMKUnbr6DbwctCfVGS8mzxYO0biE2BFxZhIIGJdVqtQckAFkO0PK9/0akxDwFUrcxnNsSztW1msBToSN1j+Qioh+BSfgeR/wNuAliWskzsaouBqy7aLX47hBhcxBPOwOp78RgZX1mx07khEwAkZgYgiYQJgY7pPurGlzqrJYCOmilZcT8HbtP4ma8IuJi0E6K1ZCHitNoOR3EpOwQgMXd/EDdy6bsrED9bjwqrGuJk8fi0BTHy9KSkpL+2qJj0iDKdM0TTl9CY9Uh/gaId9yp7BRx2cZDfWYGjuGETAC04iACYRpNJnjvRR9kn5NsqhKN0UJYDyKU3BcqsWVPAcmC2/2iTxrSUgDGmUR/jHwfyjyEGcwWO+OijrWZeTcIoa8pD7meScRf5pkYkg56di9UCkpLcGVMu48Dsm+uJaI/8PNPKXXbAJhvLePvd4IGIFpRsAEwjSb0PFeTlreWMs2y/YsrWzhlUS8F9SaIPUS4lTHuDzz8IJKaafI56WTIvDfvMgKdyF9aQOmergbUleDxDdo18cBTiDinYlb5AQdX1z4Kdu5UqouiniQltb3AFerK2QtmzQzwmu8hJVgHu9NZK83AkZgWhAwgTAtprG+F5Et2awL5+200cnpSfVCKdN8uFoSnLaFTmsPiFRImzzFpvy49sC1mlq4k+e4g0gCIus12qrS0gtp1SyMgD/DcwHQlunsmFoT0oBKGcOLwM9xfJ3Z3OuOY9BcDfWaGTuOETAC04GACYTpMIsNuoaq4kSr6aCPV+B4HxEXJmmFsuCmKYXZOglxmePYlH8fnusocitnsE6e0OtZ5riqX8PdHEIrF+sYvTakGu5qiN0hUoY5DmJcQ8CVFLnWGjk16CaywxoBIzBlCZhA2A9TV5W/P+x8k92knaZDagzBKjrpYwlocSJxNxyW+PnFWpCmQFbKHMtCHLBDRQJ8lY3c4t5c3yf1qo6PsaXjJBwX4dUlIp0s48JOqTsk/jmORYBNBFwD/DuepxpRAXI/3F52CiNgBIxAQwiYQKgD1t0EgBQgGkM/gt38/smYJot4qLIkLKeFDk4m4IM43oJnXhKPEC/DlVLHEqgov5GOii/iuJ4C32Q2qzhRYwB0q9c1pkWPuI9WWnkdEX8HKmZiwVKJl0gtCCJoJONCajdcTys/cq9gg5fxd+Pq6Qqpwy1mhzACRsAI7HcCJhDGiVyj6aUSobRXnpkE7LUn/24g2lt0fDmlcEGSOSBVBGTbqf0SPavxYxEa47yUvb48W5bYP0MbmzhJn9LlaT0uzSwBgLJJTIJsqSVBghkl7fBp4Lu0crV7Oc/rgt6DkxiHeow76SYp3Ssjfz/HkeOjRNoaWjIvUjdIeqpKLIKIl4Af4bnKncqvsy6LeozLjmEEjIARmKoETCDsw8xlzdq1Xq6Bb/2EHAccq4bsmPkQnlWUpJBQrafoKguF00f0CYm0L1dfFO/9DQQczTnAn4FWXZSuipIxUEktjP39adEiGbjEI/wjRe6Q1EfZt9a11+JbXvEzXST9L5hDgdfiuDjpViljS8eRzbqQl0u8xANE/D2n8VMdfw9BvYTLaMdv+xkBI2AEJhsBEwhjnJGyxUBKB8lispwAsQBsJ2SQkHYCCoSEOHK0EDGXFmZTIqCFopYakt4GJUoUtTeANBESCVGkk0jL+PQT0U6REylyOXAZyNN22mBJA/3UOr//hYJefzdeqxjewwJaOB/Hu/CcjWMWkcYdpFUMKwGBsXh4gYDvJBUWVrgl9NW7imFZTK3mQPr5IzyXAkeoUKmMS+Yu2+nxGSK+QMj1LObFetdsGOMtZrsbASNgBCYFARMI45gG/zztbGQBRRYQMpcCXThmEzAbTyuOVmAOjk4t++t0UYrLFcethvvw9AK9ROxQmSG/c+ykyAvkWMdstnAsQ9knbTXPizBZqtH4uliP4zLG9NKqKoay6N/P4eR5K553J0WKOvQaK9UV4+PHP8v1P4fjGop83Z3Ob7U2wuX4evj8U5eNO5eiX6FBiBIj8QltCe1pSWoilI0OyTciXKS51A+IuI42HnCvoDfrUhkTINvZCBgBIzBNCJhAGMNE6qIhhYM2MIMSXQQcTk7T6Y7Rp9TYF38AnjmJL174ygI03AeenlUWzNhXL3YDx1a1KMAGHE8AvyHiWSI2kmMrRXrZwiC7KJbbNScZ/vUy1Y8WR9rO2d9AC4dxvIqEuNTxicm1S0xCJbMhdjVIiWYJULwFz5WyGHMS/QmDcQcsVqU8ioh6gJcR8j4cF+J1jvKZ4knppYp0GcCxCse3ibjWncYLatkQXVPHug2jZWv7GQEjYAQmAwETCKOYhfJTs6TRdXA8IWfgORXPkTgVA+LjFqtBJ46WTA+AsfAVoSAOBnFCiFVhM7BNvxzr8TxJwGOUeJxWnpWnXBm6BudJgKQENV4UNzAaxSWNexeN9tcB4HhKGzy9HMef4TQFsjOpVlgpohTXHhDHi6QZPgt8X6ssbuRRTX0USwK14zFqDTxbDVFLMOc4Ha99Gs4HbV9dSDIr0rlJayKISPgBBf7encFj2aDHWue0vxsBI2AEpiOBsSxg0/H6a15T1VPp/RxIwLsIuBjPIrxW64u3uM2wbGIVkIU++/vRcJZ9su2U04qDcqQBPNKFcDWOFZR4iAHWkGM7nfTKU7j4zXW9Tkof7w+LQpJaGDhH0a9iLn1aG+EPgVOB9kQ+iHUkDV6UIcbZDo7f4PmipD+6JWxXl8BiivUYdzk7RPpJ/JJDGdLqih/AccBuAiG2bKTcpfzy37CLu6Xq42TJIKl5k9oORsAIGIEGEBjNwtWA006dQ1YJhIc4HscnE3+7iIM45DBelGWBlu9K+oycFQ7ZvofZJ+9KzYBUYGTrCKRHSI8uT7qSt78dz2YCnsZpP4G72MRveAN9uuxKMKNso8iOqMcslK0rYsmYx0HM5M3AX+A0+TMOUqwIH/k+LVK0WRsmBXyZxTxJD9QrcyARSaEKF7EihLwNxwfxLMbRlgiWtMNjtsjTKkL+f3r5Mev5nZaZ7iYwN0M97hQ7hhEwAlONgAmEGjOWZi3oYrGCE/B0A+/MNP1Jzej7OvciJmJxkRUM8dEqVQmr4xjEXiFljH+J5x4cd5PjUTpZrz0FRFKMsVjTvg5eB9lNjhNjFwf3cjwtfAyvMQnyxF5JfRTBIOIpfmIXQSNFiqRXw0/E759YQMQiMa5+DcOqP6aNnN4BWl3xJSpcJNsibuQUN56K2T+vrg/HDQyx0p1Jf+JqqJmKOh5+9lojYASMwGQkYAJhNALhNQQaGf8ghxNwKZ53AXOTmv7p4j7SkdKOhxrwlixEIihSk3a6MKULYmxBiAMP00yAtHFx5edYOojhXkoriVVBihDdTMQttPAU6+kvBzLuhyyHbKqi1iAo8jrgPThei6crWYRl1ElIZbJEB9ow6acM8SV3Jg9qXIPUV6iD9aOc7ihC6QLaCDiTEp9OajbE8R6x9SfNuZCxSdrpAzj+E/iRuj7EMlKH8UzGN7+NyQgYASOwNwImEGoJhORpXMzMfgUdOE6ixNkEmr0g22YiepPguwpPkQZSzSDQIEZJ/ZNFXf49UFMhJaAR5uG1/qIIhuHBhVmrQioahlsV0iwJyQR4SnseiDWhyAq2skaD//ZTNL4u7vEVBNzLPPL8HgH/G69ZDanrJFukKLWO/FqqGDLEdzmLXWL5qJdJP1ut0T+gloNPa80GNP00FghxiKJsqcvhtzj+nVb+3b2cF63Do32AGgEj0KwETCCMYeb1qfRmWjiSLnZxWFLuaKMWOqqEJcZHlHj9kBZyzKXEzEQgzAIWAgvUAuE4nJJaJeaomHAa2CciQhawytN2/Oyd9jpI/5IusPHvY7P8Njy/UmuCfBVZk1Ys1EOkS/gYrnm0u5af/sXNICN7SFsvX0KkhZSkaZL0ZEjdKKnFRISRWBGkeNK3OJRH3eH01yvQskog3MnBdPAHwB/gOTZxEaVc5TLT2AixIlxHgSs4g6etquJo7wDbzwgYgelGwATCPsxoEriYZ6GGve0x8j55qg65mZAjkUS+VrYxm1ba6aeNUNMixZqwAMehoEGQL0vqKoiYSJ+84+C+WAiIWyKbFZCNXZDvJTZhDY7bKfFDtvOgO18L/4hrQ3zp4/Lv7w1XNqDP38tccizF8YeJq0GKRRW1imS6xdkNUv/hUS3e7Pl2uQbBZSpoxjXWqk6P0olyJ2eS593arlriIyqdHkU6pQJBrDE/xvN5ijzEmQxo1UiPa6TA2ofb0F5iBIyAEWgoARMIY8CbPNlKFUOnMQmygN9OqE6CtEFT9nijadYk+y8nZIYG9C0CTsbxci3s4zhI3RCxVUEqA6bRCbExv9I9UX6W9MG0SqMsvOuBG3F8i508wlJ6tURzg6PylckKciKcuI9DyGkNAun8KNcyvAZBeh29hPwA+Ce3mMfq2cipKhbhrcyjxDuJ+ASBWhFSN47wEoEgImpQ60MW+RYD3MKr+V1SenncwZNjuNVsVyNgBIzAhBMwgTDGKRjJ/F3OGsgeaxTtnsuLV7zsB6ymnd6yVeEg7RPpOROnpYKlUqO4INKUSjlbak2I5ULlS8z50nvgBZUwEf/FC9zrLqSvnvUGRkKn17SSnFtCwT/KDIZ4Y5JieEa55HTF3y+LcnwNXmXF37Gd21mqjZzq5hLJBhr6B5XnP2nviLg3Q7ylraljoSUWmBvV1bCTX6oYtGDFMb5TbHcjYASmOgETCPs4g2Pxk1d1Y0xTGaVegVRAlE2qIA6LlNfguJnMJ+IVBLwSzyvwnITjyHLQYyWwMXVFpGWbk3JJSYMkx02UuD4pbSzphfH6O04T/h4FQnJsFSNeYy6k7bIUl3p5IgjSMszZFMPngKsp8j88z9PuIobqZdavEggSrBhqf4YL8MxPMkpScRVXepRaE3CnFnJ6hjt0LDIfSymZm2Ef3zD2MiNgBKYcARMI+3nKhomFZKWOuzPq02xcvyB+pu0h4CQ62KbZE4cT8no8bwJtHi0xCmkwY8Wvnz4PqwTQo8iCtxH4OY6vsp6HuYCBpDtkQ/L7q8z6r6GFGZxCyJ8TaW0EsYKkBabSUcpId+C5k5Br2MGt7ly21eupvSoNM+5AKTURJJvhtKT8ctxEqxIYKsykxsRn6eUH7lwGkhgOEwj7+f1ipzMCRmDiCJhAmDj2u505LfCT/MFrzEASHOdX0UIfR6s1IeLkZHFbrEIhDbbLphNWB+DJPP8Oxw9VduxihTuXXUmpZD1PvTFUVaB8mEPwakF4H56XJMImFkGVRVm+k0JFX6t3imGZYZqFMpeXkeP9WtopLuYkFg1xOKSCSppKSZOsq+jnG6lYqVelx3qztuMZASNgBBpBwARCI6jW6ZhlwZCWT45dEtIw6hACzsHpAncKkbaZrlQsjM8fpz7Gzoa0WuMGbZAEX+VHPJlaKhomECquBgmyPEW7PYozBQ7aQwaB1JP4JiX+1b2KZ+rVwCmdjnIHyrvooo0/wvHn2nArWzQpjo+QYMUXcXwDx9c4hadTRvVye9TpFrHDGAEjYAQaRsAEQsPQ1ufA2ViH8pNwHJ8wB8diIi37/GacPqVnt0qKZFx1Ma4aCCv0KX2IWxjidxqA18DMhrLrZDkzmMGbCaQFkhZPkoU4Lnecphg6BvHcSsTnCLmfJfTXK8UwbeCk1/tjWpmv3R0/AryqHPwZN24SSiIQtmjZ5YhvMJcHyyWs6xg8WZ87xI5iBIyAEWgMARMIjeFa96OWCxEtJGAnXhc6cTvs5DRyvBfPG5L201rvYFhfh3QhlvmW9tH3EHENAT/RcsINCsArp4Eujesv+PtZTMgVwDmZbIy0H4KMW0z9DwPXMKANk57THhiecacYVrk85HpnaDqpFE56c8JNijbFnSZFIHh2EPBz7RWxjZ+589ie7fFQ9wm2AxoBI2AEJhkBEwiTbEJqDSfbiEkDGqXPQJGXascAeDuOo4mLIlVXYowPHLc2lm6QUr0w4GvM4tccS6ERGQ1yQg00XI3XUtX3cRQtXJpYPY7E6UKcuj9iYeNYq4WKAr5FKyvdIobqEaxY1cBJ7Cn3cwR5FQcXA0uAFq3TEHOTsfRpwqYUcCrR407nRRMIte5O+7sRMALTiYAJhCk4m+XYhOVJE6lnaGOz1ky4EMfv4XnpsNLGqViQJ2QpuDSkUfpwA47vcRPP6AJehyf14TirXCR3M5M2pB7C+4h4S9LwSjIIZFmOUwy9VlZ8EMcXGOQn2lGxThaOsotG+lO8Q6tZnkbIn4Fmhkh2xZDWu4x7YwijJ5XPIP/hzuK5rBViCt42NmQjYASMwJgImEAYE67JtXNV1sNKQoocR04zBSQu4WgVA9U9HOJyQHHqY5+2VZJGSbv4qbosZHGMyzHXNashM07Pg8wlUNP+X4AGCMYVICsFoGSBXgNcwQDXurPZWc/iTuVqmGKtWMHROD6u2RVxNkgsEOLiTSJWxNLyIxyfcafyuAmEyXX/22iMgBFoLAETCI3l2/Cja6ri5aAWgNtpYwYn4Phf2m4Zjsp0iUxbS8sTuwgAWQif1doIRa5lLetTV0C9B10VICjujwe5gIBPJpkN8bhi6SLCRSwcL1Diy5T4ijuLDWn2QT3GVTWWh5lPiT8GLklYySkkaDLu8Sj/BtxJgb90Z/Cw1lN4DQHnUpLgyXqMx45hBIyAEZisBEwgTNaZGcO40vLGWi9RFrCZnAR8gIg34Tgs8amnVQvThU0W5u04lhPxbQa51Z3D1jTGoV4tl+Uy0qd25yhpPMGRnEbApcB5kFQzlEZOseVCBII8uX+bEv9OP6vFupEeZ7zWjapgxfuZRcgbtKGU18DJ2UnR5bQugoioRyjwEXcmdyQFl6QCZewWsc0IGAEjMI0JmECYJpOrloT4ORxWk2eQl1Lig8C7teFTnEIowXdp1UWZe+kQKYvxDwn5jFvMU/VslJSirVqU5Sn8LRyF4+1aFwEtIy0VISVAUDYRCDuAnwLfxHGHZFo0RCCIxaWTk4j4XwQ6FnF5CMFCJhbhcUp0E/ED6eyY2g3GK1SmyW1nl2EEjMA0JmACYRpNri7Eq8lr5P+9tJPXp+MPJbn+MzNFk2JxEIsF+f4+PJ/iWe4RN4MUUKp3VkNVNcOV2vtSajiIFeECYGYSFCjjEREjgYorieihyHfdmfwuqadQl/4Rad0HtWYcwcGEvBn4MPCyxM0hAkHGIfEQT+K5gojvulepmFKLiAmEafTGsUsxAkZgRAImEKbRjaGLaDcuiUfI0cqBtGj/BvGzn5Gk8qV9EFKXg/jc1xDwOSK+Ty/rk4DFui+CaV0EPf6dHEwHH8JrO2hpmiSLslhBZFGW76V5k3RU/Gq9AwRVSKV5HU/RwhaWagEnYRTHQVQEgucZAq4SocJPWJdke9SdzTS6De1SjIARmCYETCBMk4nMXkYaiMdSIh7gGO07EPFe4NBkaZR5z3ZS3KSLseN62rnXLWJXtsFRvRBVBQj+gjmUeDdeLRwnVLWujmMRxK3wUwp8RgME45LRUjCpLv7/5PrUIMAjvIKihHqqJSEtmBRnMzjWadvnEv9NH79OGjfp+8asCPW6M+w4RsAITEYCJhAm46yMc0xVPn+pPdCqAXiS1SD5/vMSP7sstLIIytO0xCeIc+G/KPDtNHNgeAvqcQ4rDlbsIdDqiI8ygwJLgT/A89qkaZKcIu2sKP/ejedv3GncWxY9dcogyMZa+LtYSAcfJeLdOOYmcQZx6qVnCwE3U+Q6itylaZcSR3EZDWlyNV7G9nojYASMQL0ImECoF8lJdpyyGf0GAhbSpW2iHZ/UPghiRpf/xf0ZxJIgQmEXcC3wr+5U1mhNhMvjCoj1vLS0GJOWid7FS7VkUSxepMtjHCAYx0ZIDICUXf64O5XlDREIsRUgUndHu9ZCECvLSzPdJuXSpSfDrSoQJGDydHaYQKjnHWHHMgJGYLISMIEwWWemDuPSIDzZlmlRoEXA3yRm9M5yfQSnKYT5pGHSTTj+nsU8oq9z+Hrn+1cFK95CFwfwOiI+huP0ZEyDiTgQgfAYRT7J6RqLgFgfuIioHmPSRV4uUepHxN0dX4fTnhbnAnMy+MXVcQcB1xJwqzuZbSYQ6nBz2iGMgBGY9ARMIEz6Kdr3AVYVUXpAUx3fqIsgnK2VA2NzvnxJH4LYpC8BeTu4nXPZXq9OisOvQBdYsWOIcFnJy0BsFWpJEAtCRSA4ngWulBgAtwSJk6hbBkFVCWjp7jiHl2jTK/h9HIdmCkyJReMJAm1DfY07jReyXPd9duyVRsAIGIHJTcAEwuSen7qMLvX9s5AFwMVE/ClOqyyK9UBcCCIQpHqg9Gf4FiVupI81STbDuDsp7iYQJFsh7SMhDZxy/LXGIsT9EOIiRbHbYy2OrxBwHSfzvLoD6phiWCUSVtFJn9ZC+DRwTMJFBEscqOj5Brv4ijuX3ybNoyQGoa7ul7pMth3ECBgBI1AnAiYQ6gRysh6mqveADHIFb8Tzt8CpSYCiLIJizpcQwufw3ITn23Sx0h3HYD06KY4oEHpwGqy4goO1N0PEH+rC7LVQkmxybz4vaY7kuJYneT5p/Vy3FMNMO+qSZCT4BzifgH8FXp4IhHTov8XxDYa4WmsyiOtmmQYpmkCYrDe+jcsIGIFxEzCBMG6Ek/sAWYGgi+AKTtGiQJ7z8SzAlSsryoVIQN5y4OtSgtktoa9enRSzlLLlnL2kOxa1VsN7cbv5/1/E8d+aZjiPR93RDGSf+sdLfjeB8CBn4vhHPGdpK+p4E4vGM1rVcZD/dGezzgTCeMnb642AEZgKBEwgTIVZGucY08qBchj/CIdS4AKc1iB4VWLWF/eC2BDE/y+ZA1+kgxu1HsIK8iymWM+c/938//M1IkHM+7+PV/9/um0DfqYWjYCfS8nleveKyFpI/P2cRMhHgDeCumPEzSHlqF/A8V/SQMqdbi6Gcd6O9nIjYASmCAETCFNkouoxTA2uk7bQQ5xAXjsYSlDe3CS1UOohxFUVHf+WBAZu13TEHooNSHdUV4Eu+PfRRY7fw/FXwLGZa5UMguV4riOfySBIsg/qxoS4poF/gKMJlIm0y5asD4nNkPfIEI7rGOQf3Fk8rVaVjXhxedRjDHYMI2AEjMBkJGACYTLOSgPGlHZ8dEsoaFpfq0br/zmOozXFUSIRnPr/1+P5N/J8TVP6GiQQ1JohgkXsFpfjeIs+tf9L4v+vtiBEXEfIbWpByKQn1gNT2uRKMzYeZQGDvAWndRnOBDoSgSCj/CFD/JU7m8dNINSDvB3DCBiByU7ABMJkn6E6ja+qzPEKOvCch9Nuj7IQzk4KJuXwbAA+RxtfcSextcECoVyMyT/AEgI+C7w600RqK/BzGisQykGP/sfMoouzyGlGhQgWSQVNKyr+UCwc2hfCLAh1uivtMEbACExmAiYQJvPs1HFsVWWOJe//AE7SdsuOdyRWBLEhSKOkDZS4ina+3HCBEGcDRGrev58TCflbnAZPysIs1oUtOO4k4vpGuRhSxEm3yICHOAGnDaTE1SBlqWUTC8t3iPhbdzpPmkCo441phzICRmDSEjCBUP+pGQ1TWYz3+1YucywL82EcRI43EHAJPkl5jHP+NxDtNwuCuhiS7IojgA8AbwOOw2tLaCmOdDslrm+Ui6EsEG4g1DTKe5lLjvfhNEbj8KQNtYzjegp8rZzmuLr+Zaj3+w1hJzQCk46AFG/d2+Ym5LNz0mHaTwMazWK2n4Zip9kfBNIsAE4kx9G8EvhLHBfiadXze17Ec6Xm/J/TYBeDxBN0x+WcvRQq2sVrCLgYOF+DJ+MCRd+jyPV4HnZn0l/PNMcs76oeEf28DK+ll0WoSIDi4zjuZR2PuQvpa9QY9sf82zmMgBEwAqMlYAJhtKRGt5+TsPxamzi9M6V8a+1e179XuRqkSFGkC7K4Gg5M/O1P4/h3BrhROxc2IM1x+AWlCy73cQg53pakPB4NPE2OB0oqZAAAIABJREFU6+jlx/yMF7RvQh0rKY4EVsdyMy3MZrYyyRESsZ4cW+qd7lnXibWDGYGpTyBus7K3j9C40XrtD9mpz2JSXIEJhDpNQ3d3d27dunVzSqXSjKGhId/a2rpblb3BwcEgl8v5jo6OvjVr1uy6+eabhyZCKJQbJj1JK9s1i+GVWno5oojjSUIeYTu/S0ot161yYS3U6tufySFaUbHEbEK2M8gaWlkn2Re1Xl/Pv5eLKM3EmTCoJ1k7lhEYgUC3D+j/2Ux8biYuF5AbKlEI4vWpGDjygWPQF2gJdtFxVi/dzqqY7ocbyQTC+CC77u5u+Yre+973dnV0dEgE/klBEBSiKBpwzgXee+eck/9E3nsx45eCIHiyWCw+Eobhuquvvnq/Lnzp5VYVK7qBdl7CXEKKDLJlfy/G45uC+r9aUx974mZSGh8hwmWpPtfoz/U/ox3RCDQpgWU3hPRcVOKj97bTVjyFyL0KfBuePlwU4HJiUpDYqDxRtBXvfgHBY3z2rF1mSWj8PWMCYRyMu7u7g1WrVrmenp7SpZdeurBUKn0qKbIz5L3f5ZwLVR3EfgcpqtPpvR90zv00iqJvBkGw8uqrr+5LhhDXMpyATZ+Wu3Fcpv0Y5P8TMo7h4kV/nkTjMXEwATennXIaE/COS1bmuHpJgU/9bB7k/xicpF7PwfvtcblzJ59JYSIanqXkvwm579Pxsxfo7o4kxtmEQuNuERMI42C7bNmycOPGjW758uXF97///ceHYfhZ59xbk4W+6L3PiUBIGv+IQMg75/q99z9zzn2pUCjc8/Wvf33nRAqE4YWH9OfL4syCcaDZ55fq0/tyAsS0vxPPHUT1ruI4lsE1OuZhLGOxfY3AtCLQ3R3Ashzdi4b41J3zQcqc+0uBrqTtex6ffA6pSOB5PF+F6Fralq6N3QwmEBp5T5hAGAfdrED44Ac/+BLgM865t4vFwDknfQ2k4Y+k8om/TASCuBj6gVtEIIRheN+XvvSlXRMpEMZx+Q17aTloUQwIEyRUGnZxdmAjYARiAsMFgi/9BS4QgSDl3/vB5/FqQZB1SqwJzxH5r1AsfpuZr33eBELjbyQTCONgPFwgBEHwL977d8S+ajfovZfSxVkLQpvc+M65n0RR9KXZs2ffd8UVV/SaQBjHJNhLjYARmJoEdrMg+D8HPpQIhD5t/e40Y0G8nvJZ+iy4LxMNXk/7639rAqHx024CYRyMa7gYCiIQhrsYRCB472/13n9xzpw595pAGMcE2EuNgBGYugR2EwjRR8Dt2cXg3Vq8/zIMXTc9BUKtIlHpVA9P88y+rlYKaLpvrf3ic5lAGMfba19jEIBbS6WSCYRxsLeXGoHGEhjNh/XoPmQbO84pfPSxxiBMa4HQHdB9Gazqqb0mL1rmpcBcPPOXu6rX6d9GSgH1cSC6bHKO8jH2fg/XHswUvv8aPfQ9xSCIi8F7P+Sc22MMglgQzMXQ6Bmy4xsBIzBpCZhAmLRTU7ZVTPoRTuIBDhcIzrl/TtIcJShxIM1iSGoglLz37UkWwy3Al/L5/P0WpDiJJ9iGZgSMQOMImEBI2HrHsp6ARfPjB/Z1TyQP7osz7FdWvj/kJZ7Llpa4/HLHiZc5fnZ1AIth6xrHovkR3XdEcJlkr2cy0ZJzdG0N2Nrl6FroOeSmUpwquufNLAjjuP331cUQRdHPRSD09fXdc+2110qaYxKIMzGpheNAYC81AtOMgHd8+OYW2gstuEMD2oqZD9ktMLDA0Se/2zLIF940ZDn445h+EwgxvM8/2cozaw8gCGaSy4eEBUdJqkiWJAMOQikWVYr0d6FzFMJegtZNDO50tGnNiBm4sIUoDAmCbQz+9ndceZFky8WbFKM6+pAO8qU5DEazCfJtRIUBSq3rmH3rtkQkjFiHxwTCuO7vSqGk97///QuDIPhUEARSB0ECFCVbIZdUUhSXQ8k51y75vV5q88E1AwMDK6655hrLYhjHHNhLjUBdCfzR7W0cxGGQOwrnO4miEmEQ4UsO5N+glRIFcsWnaF2wRnP4ZaGr8SRW1zFOl4M1tUCQGhDJ0/un7zyYyL8a748nCGbgI4dzJZy2mY8rScYl7FoQSeDd0wTcwRBFQv8y4AjwXbiwFR89hg9v5LNnryvfJh+9oZ2WrmNxbS/DR8fgmI93L+KKt9DmHqX73KKKCKloOWwzgTC+N1vKzy9btmz23Llzl0RRdHwQBFIkSSomBlEUuSAIfBSJRvAtUg/BOfdcqVRafcQRR2zo7u4ujm8I9mojYATqQsB7x6W3zmdO27k4/3ZccBieAa1hIn9zFMHNxrMTF91Av/8fPnfuNrpvz9G9tGTWhDHOQjMLBF2Ql0V6z/z1bYtw4YdwvDYpEiUgpY7OgIqEiBxO1g4nafKyhvwSz5dxQS/en4/jZPDSbK8dx/2U+Dfaowd14ZdNqlT61jeAfxOOE/H+YBzP4N2V9O66iS+8eZBLvprn6kvk/q4qkGcCYYz39F52d5dccklu69atuRkzZuy1CmFLS0vpkEMOKUkPh/qd3o5kBIzAvhFIqvFJw6DCbYdTzL2HQEr++iOkVZAeUwWCk74p8iEtPQG+guML/POrN/LVFXnW1/bn7tvYpvGrTCDEAuGvbjueIPxjnDtbLQEiAjwdiVgQq0EB/Ga864uFAr+A8D/wtEP0Phxn6L6eEOdX492/EQ3+hI78BhUJn7jjaEI+ROCXgVuAp42AZ4n4B9qi6+g+d0Dv4UsWF5O6E+WbzgTCNH7/2aUZASMwGgIZgTCw/Ah8+F4C/7+Bw/FaAVUSwuWzUgSCVEPdqgV74HMqELpXtUBP0dwMo2Gd2aeZBUK2RPQnbplB24zDKPk5RJG4CebigrMIeBdwKPhngP+mFNyGKw1SCndQLK2l1b8KF/5pLCyYra4IWI/nu5RK36HXreRLS3v5xB2nk3eSGHlekugo7orn8KV/YHDjtRqvYAJhjDfv2Hd3S5cuDefPnx90dXXt1YLwxBNP+OXLl8sHz4T0Oxj7pdkrjMB0JpARCP0/O4ywVT6YL8X7o8ENSdZy/HmuAqET2IzzX8IHsQXBBMK+3RxNLRCGI8v0lLjkxg7mzX4z3v8djpfieZASn8eFP+azZ8e9e8RFsXDeWbicVJ98DY45au1y9BH5J/DuGwRt32Fz2E9X31sJ+BRIvILfgXetODYS+X9gaMO3TCDs2+27L6+Szo01XycNHmvuZDsYASOwnwgMEwiu7T04aRrkj8T7kppdsy4G57aA/zLeXWUCYRxTZAKhAk/cW/KML8WMtt83h3zhQkI+CRyrLoUSV9HfeiNfOH2H2rOW3RCw8MCzcHwEx+vistR+Hd7JvzPA/Sel6CpagjxFPoDj/eoe8zxG4A5G2wC4f2Ig9w2uPNMsCOO4je2lRsAITGsCwwQCLe/FuUtx/ghzMTRw4k0gJHClRgEBi/CsWxkyZ8t8gra3EviPEbEQx6OUos/jZn6fzyzeoXbni3pigRC4j4J/PTAE3K8uMOdOxfuboPR5CA/E8yc4zgG/Fhc8hPdypoPBfYYt27/O1Rf2mYuhgfe5HdoIGIGpTMAEwoTMngmEDPb0HuwO2Hr2fFpb30boP473kpb4KJG7kraWH3K5WhBiF8OxC86E4GPg3wBswvNtvCsR8EfAM5T4DiGHg5fUewlifBD8r3HudHBHQXQFrTu/RrcJhAm5/+2kRsAITAUCJhAmZJZMIOwuEMSV9Ze3zidsfxsBn6gIhOhK2vp/yOVvrgiEhfPPIAg/Dv58vGYl/CM+2k4Y/gv4eeqacG4BjqPxXhpd3YlnM0HwBrw/ksB9lpbt/2ECYULufjupETACU4OACYQJmScTCCMLhE/fdQCetwGfgOhYcI8AV9Lae2OVQDj2oNOJok8QuPPx/gkIP0Ip+h05vgJIZsN20HTJPrz7CZ67CKIunFuG5yB89Bnadn3dBMKE3P12UiNgBKYGARMIEzJPJhD2LBCKvI1c9HFwx+Kl7gFXjSgQvP848EYcj0PpI/Rvf5T2ef8f+HcDs+LCSm4Nni9SLN5LLliMkxofzMMH/8Jg+J8WpDghd7+d1AgYgalBwATChMyTCYSRBcL/+/MFRK1vw8ni74/Ba9zAlURD3+cz54lVIJvm+Akc54F/CsfH2NS5nHkD74fS/wPuRPAdeP8ovvS3hP5Bory4Lj5ChFQE/SeG8l83gTAhd7+d1AgYgalBwATChMyTCYQ9xyAEbRcSur8Af1xSWvnztLbeWB2keMDp+NxHcf588E/jgr/mn159C5+67TUQfgjcUvBiRbgN5/6WltJqBgOp8fExHDPxfIaB/DdVIFyyIs/Vi63U8oS8EeykRsAITGICJhAmZHJMIOwuEKQi1yfvlg6Nrybw78WxkMj/Gh9cT6n/bq44P27uJ3UTdt31MsLoYgL3GnDPQ/R5/nnpXfzV7YcRhO8B3oDzUvnzVgL+ix29G+hsPw/Ci/F+ptZK6D34Jr5w3OCe+olYqeUJeWfYSY2AEZg8BEwgTMhcmEAYGftH722nffAYIpbgggOIWEcQPVzuHiqvkmyHv/7pwbiWxRAeh2MbFO/kX859iu7b2+gPTsG5k8BHOP8rtvtfsXHjEMfNfwkEpxBJ0aTSA7S7VdqvYQ8dSU0gTMg7w05qBIzA5CFgAmFC5sIEwsjYxTqwoaeDzkNmkXd5/M4hhtwOOu/rr+r3ISW+BzfPZqjQQUSR3tlbuXpJn4qHP39gJu39s8iFJbaVdrLgjj66L4MPLe+gszALigHM2s5nz9q1ty6kk1UgjHZcVrJ4Qt7ZdlIjsDcCsuCOdpsMZcdNIIx2tuq6nwmEuuJsxMHG8EZuxOmrjqljkV4Gl19+uX6/atWqPY5v0aJF/rLLLvPOlXcxsVCfKRrtPWG868N7mhwlIwq65f17Gazq2fu9tGi1p/uyzH00EWIhHbfz6tftv/swiEZXarnQfxVXnL9hajVrGot4k1uzgXOyXwXCsOuWngfS+2C3rYHXOwXf6aNdDOp9aa67u9uJAJCFvru7WyZqvAuOHjMdaHd3t+qNOhx3LNcu53fLli3bq7AZ7/V2d3cHy5cvD+bPnz8is4RpNIqBV423p6dHjjea1yFj2Mf5c0ggzrIeqT8+8tYD9CyLe6VP+Oblg8Rx4h4WOx3rag/do+LW2MvRD8G9s129TBrC+PGxlfNc7tRkKVz0mG781y8LdPl4Smqc4xyJdndQHrf8efV8x6qlvlwHf1bvYYTuPTXbPUd8lYHC57jq9S+qz/fgmSW61tRmsF/vl+R+kI9CEWtjvk/1fSothOX96OFyjY6r22dqwwRCcn8uOzH+jBnb/enozordRt2HtT4Jks8d2a17b9yT+1nmpjv7GZR9/bD3kbzP9Li137MTIRC046FYCVILQbIw6WKwbNkyGXwoX11dXW7GjBlVi0Rvb6+OeWhoKDrqqKOKsqAlC276Wr32YRaG/bXQlIXPnqa/HoJobwJh48aNToRDT09P3Md+z1vVPMjrli5dWma5l9cJSxFBepONnXNy48oH1rI9KISensm16MqH5N7Gqk/Ck0EgdAfoh+KelJd80PfADcsi7VC4z5vM4eWOVcm5dL5U0MmHlIMTc6xrz3GI1HKb56UafHl7XjrXb3asAw5ZWIQeCZCShTX+YD4Rp2MUppdd5uP+9eMZa9VFOh1fOm4VCMsdy4H5Gz2L5jt2DB1MS/u7cfxp3M2R+H3kdCTS7lmiwrciAqGUu5IrztqABJWd0FKka/EoBEJybQ2/X5I5Si05ck+slm6BuiiISN/bR4P8zSdCPl5MFiUCQS0+dZqPugmE7D3inV6aWKFlnmVOV2308f2ZbCL45fNHrqlbrmUYi/Tv6XWPW1Dv6xstY93a6yEyraL39VR7eN1+EQjp0+YenlB1senq6pI3XsfQ0FBnGIad3vuZ+Xw+L+MulUrlGXTOBd6LZ8H1Om27Sl+pVBpct25d78033zw40nUOe9qt/SauM+RJcriyeMkIsqp3xoc//OHWvr6+Gfl8PhdFURWnQqHg8vm8HxoaKnZ1dQ3Onj17sHv3D7lArCc33HBD1HwtrRv3Jp3w+0eCnqR7nGwjWXYkh3pufyeuJaDYlycI5hO4ufiSI8wViUqVz5kg9EQ+xDv5IN9KVHyRgf4+BktFtl4wSI8bLmxFdTgVPvEHegPev5m5++RdXUT+YnL+Y3ipYb8HgYD7MvC5ydPuOSO892Qp6L49x66hVkq+lWJHSKfIncpnK4NhMk+tEbs2F3iKQW5+09BugkAWdl18x2mNqpdASK0cZZfVMAEj1w2dDIZ5Cv2OYEaOfClkKCqQKxVgJhSKIfn+EgNb+rhy2cAIIigWsCIsxi2wJ/wdPeoBNFogyPH1iTMd0SWXXJLr7e1tz+fzHUEQdORyuRlRFM1xzs0OgmCO936Odp6CuXL7ykIjW/J6+Tf0Xk0k25xzL0RRtFNEgnNuo3a0gr5CoTCUy+X6oyjqe/TRRwdWrlwploZ0S8czjieo3fmKCFm7du2MIAjkOjqDIMiJsAmCwEdRpNcv3xcKhYHW1tatmzZt2pE85aeMRjVpy5Yta+ns7DwwDMOuXC4XFYvFUhiGTs6Vy+XCYrEoAmr7unXrXkgE04hzvHjx4twJJ5zQ3traKmNtzefzLYVCYYFz7lDtGw4lGW86KLmG5OdCFEU7giDYODg4uL2tra0viqJdW7du3dXT05N+eI/MVjqQHTp/JmE0mzDXgQsDgsgTFZ3+K1VBZfEIogJDbGLtxq30XFTSJ5l6PbWMinL5VnF8aPkMZuUWUPSdUIrIlyIdp3RXjdoc0m09GtjGpjlbuHpJYcLGKh+C2+ikDcmhnkHY6vD9lcW0UAqgPSByA/hwE7MHd2h6U81tmO926fKQpbSxq6WD1mIrpUjay84ncofjfav2o8/5w3C5g/ByThczKd/l8uFdykMgAUcbIHyWyO8g9H2UipsI/Tai1gHCwUFawl6WM8DypYloiMOUag55pB1E5HzsvjZyg7MhmEk+aqWU9/F9J9sQCKNcywH48C0E0cXgDk5cbulnhoxDHlqk5e714L9GcXATYX4WoStRKn9OVY9A7/G2+B4vFUvk23aRH9xM97kD+3QtVS/Kvjcyc7WsJ8+JR7RRGJpBVGolKrbjWroIkLS5TnwgVlp5W1V4imhLf+dLAwTBFoqFTeRadxEVhygM9jG7tY/uO4YgGzsSv2jM11IPgSDzWr67ZPg3BHxidhstYSdR2A7kKLgu8vkjcL6TyHucb8FHeZwbJGIQ+XwOgpCAIkSbCcINFAZ2UmodoLV3gM2lXg5ZOVCJl0mvdaI+l8ZMep9f0EiBoE+TWavBsmXLOmfOnHloLpc7FjjBe/9S55wYImd671ucc/LJK1//l733gLOrrLrG137OvVPTQyihaSgiUTqiUjKhiCCKigkKwhsQgvKZ9wPp6PdmUJGq8L4oZRCMlIAZQCnSYSaELoGXEqSGQCAJ6W0y5d7z7P9vPc9z7pwZZjJ3SkLCf+5PfwFyyznnaWvvvfZapapKcOCilnQ0yuxBuNsWVW0SEfpgcyNsFJHVqrpUVRfQ7lJV3xaRd5YvXz63tra2kZ9L0vP19fX8TK+jkZDN0IkTJ1ZYa3cxxhwIYO8AcnKqGosIQQ3vg4frHBG5P47j6TfeeOOqcePGReFgXdsCS55lfNJJJ20lIieLyOEAmlSVACkScZFXJYByVa2z1l59ww03vF9VVZXZcccdZdmyZTbhJjBTsGrVqi0ymczOxpjdAGyvqptRu1tE+B187h1eD+8nPDc+e4Kyf1tr/5XP519uaGiYV1tby/FweIg8EMcESdKSp84agIqFeyGKxkLs7hAzEFCmbTXASIVS+UsWQW0tkL/XSYuyZrZOIscu1k31tBI0bLI3MuY/oPJliDYBpglwAJWpyRKIWQkr90P07y6aJAhab/yJauO4D9xoW/YbASn9CmJ7MERGQzULAed8cjTzYCuHyrsw+duxqmIGrgrWsR0DsNbInY+JQI2/07D3ppDy0ZBoJycDK/I5GAIErQzlgAiwlYDh5uxox598yjyI3DpuBGQ1oH4NizTB6nIY8x5iKsPpm1DzBsrnL0D1+JbwGThOyFrrsqlfTOYOx3LNZts5URlRGtlsBUgM0RzUzXffW05wbGQz+MJImZuZrbsk74Xv5Zz9EMBsGB4yDhh1vH79Acy0PD/H/WYlYn0BJleLiw+eXUjjOyDc3VeaI0AeTDi0J95XjuHlWyHO7gQjX4Ch2I7dBsYM8iAOmXCodvKDDg8RPPI+2Qbn9lNYvA1pnoWypjedwQ/HMEnHd5vf4DZjA4zLoHp0C857YgSA0wD9Wdg7mQ3Ohp2Bs5hZJzoSXoN8/jZ8sORDx6kYN9mPDjNPXHvbDh6OqGwnQHaF6E4Q5fkyBJBBADNX7kQhOiV4pUZA8tyTIIRzcQWMzIPV+bCYAxO/hpaGN/FBYwhY3Kbmy3nrba13d270zfvXFUBIvld5AFZWVrJcsKUx5gtxHH8ZwBeNMZSQJFCgFCRfoTaWWo7F32OyOJM64XJV5UFMgPBvAK+q6psA5r/11lsN9fX1SeTUrei9g8txaXum2o855pihlZWVh4jIjwEcwEprKvogWrcB3LwL4BoRuammpmZxdXV1prq6mpO0U4DAZ0iOAK/7xBNP/EIURZeKCD2++RneC7+f38E/uRE9Zow57dprr32NnyUwIKlx55133iSOYwKMUfl8ns9+tDFmVwCfV1W3oYeukLXNC46T31CBZlWdKyKvAHjOGPNyLpd7N47jD6dMmcLoiPVwg9rRnsRXPWsAGhftD+Oe0WFhI4j5q+H7mC3gQbYEam6Btdeh4oA3W0l16wOxp1re1jy1OST+NgRnQLCD21AoPML7Z+qZ+QO/iU4Dcr/GRQe/hXEaofaC9UBaDIcDD5ZpGuH5+i8iG42D6Peh2MlFTg7MiYEDj+7wi9yhG2d+jfKyf6B6L7/Ju1cnB5xj9j86ECLDkY+2QYTRMGZ3iKP1bQtgkxBVuyM2nS0sfvm2+Vwe0CWAmQPoG4B5A7G+A83NRot+hKERI++wfruaD6lnRJ5AabwPYH8EwRFkQHhQEPYdH4Wui1cACPC1ccEark/E9je4dOwLHiDAdFBa6eJa2o3bdS9k8e6qzWDjrZHJjgL3V7U8KAnkCHa4H3F/SO+Vnf1G63s8QGoA9GPAvA2LV4CWl5A3byPKz0dFdimqq5pb509XY5L6yR4BBLkG+ZYAEMbHbr1t+tgQDI62QCyfh5rtEMlOELsrIDvCKu/bpEZ3bePcmqkmWFVlCfs9QF6DxatQvAUTv48F+BBTkuxPsTyBdTG11v13rotF4aJdHkpz5swpyWQyW0RR9FVVPUJVvyQiLB3QgpKRLrMFhSxBiMaLvuvWyoPPMqQ+z02cGQZmFShNuURVeYj9M4qi58vLyz/+8MMPXaRbRPS+tuspAISJEycOFpGDrLXHiMjYUCJJom2fzvOH+JuqWmOtvfWGG25Y2l2AcPLJJ+8IgADhyHDDvA9mKFj3Z62Nz/NRY8zpBAjMmCTjYIw5CMDBBAbhcCYoqAzZmwJASbIibv9szdi0eQ6prA43a0aqywgWCBQA3NfQ0PDKjjvuuGrWrFkkTPLAdP/DmjEjEZkJAE5xUZwi56IZbkPiNussICuh+hgEt0BNHS7ef5nbWhmM9YpcV8TUSiJOHihlTXtAzXhnjwok6WbrIk2fsSFA4CH8MKxchPJhz2Pyzrl1fo3+ZPMMcwIEcgCGNnwNBicCNG7BplCCAcThWv3YujyNPgfV83DJ2Kfc8yS3oE30mnQo8AM7Z9AybChsdleojIHRrwKyLVQHwwhNYBhh+9FLx9kObxTxrBNIkbw1+R7/ZzNE1wDCevASKA8mrUNL7kkMavwQGNACVPkMYKfZpTRAmFaOki32hNGjIfg21BEQPcAWt2YSoOSfbdd3EMh6XVYsmRUjTmPWhG9eCYtHILgYF495qWcAIdzXohGCqkUGa0aWIiPbIs4fBMEYGOwEZdSMUldugpT4Oen+1zoyHa2l9HpPf4ZzydkGYw3ElXJfh8UTsPYpSPZdVDza4FpbHZu+SCJjdwEC5APEuBbZ3FQsGkyaK1CxZhOU5L8Gib4BI3sByrnPfa0cwoxZmJ9+rrWdlcn9t7lnl+0JM5jBALOGwnm4EqIfIcbzsPF9yLe8isFbr8asnWOgQNLtfpmlyGXyab2t2GVc1PXxMGI0zT9nz549tKys7Iv0pVbVqiTtzgg1OcxDhN0+zd+rqJ78BGMM0ULyPY6tLyJLwuH1jKq+wKh32bJlC8kDSK67qJts+6YCQJg0adKgpqYmZg5+KCKHqOoIEZemSyJ7Xg9By2tRFP1ZRO645pprlvUEIIjIRQC+n6T6AyjgcyTRk2DhIQBnXH/99a+fcMIJm2QymT1EZH8A+6vqFxj1seyRiiaINfIpkNUGLLR7LiSIJls7+Q4sbyTPmmCFqddnCFLy+fyzmUxmbk3NdY1tD7NVR8GY8wB8KQAE/xNu/+Rm5gDHywDugsHfcOGYuYV05jotNaQOlOqXhqBx1REwejyAfRzJyWe5fErSR55lHtTITKjeAG15ELOXfeQP3JD+78GkKu4jKpg4M+N4D5PuL0VpxeHICq1fd/fZA26M3ODc2PDIZTp1ESD/RB6/x2Vj3nbgoQ1ACOCA2Z4zH6pEpnRn5ysvZm+o3QUi2wV+SgI4+M1J9quQNSzu+tvizZB88JuzKlPgrbDBZ8l47W9C9TlYPI048zIGDpmP6p1zPnrt6HmnxnMCWxF1V0jmKKge6Wx0QSKuMJXNlHMKIDCdvdY0PO+f950P0KjzroCk9MAUuf8Mwc7DUFyJS8a82k2A4IlyXAMEsoseG4qBmVEQ7AZEewJ2dyj47+Qw2+JmAAAgAElEQVRwtVnf4bfbH2AdHWjtzgS3tH1m0mMhpuI5lxhdEyT8y40HomdRse8CD9aKjKq7DRD0fUD+iKb8bUB5I8piZkn2g7iMLWWFWTZikOTBsM/ZECSzfJW+r/aojveUnpAcT95z+/ORmZKPAPwLok8iL/9CLvMOBn9teWFMXFdED3kyPVg46/ojfQUQ3PckrW8DBgwYFkXR3lEUfUtVx6jq50SkXESSNHtf/W7758ODrj1voZAuU1V2PiwUkZmqendTU9P0xsbGBanWw+TgK/a5twEIa9asGRNFETMIBAjDk0UZDlF+JzkJr4rI9XEc1/ZhBiETuA5JBuFha+1Z+Xz+g5KSkipVPVZE9mXWgM8n4XaEBeDAVMgIdIaAixmv9GfJi3hFVe8VkccbGhreuXWHk9a41PC0aRFe2PRAGDkT0H0hUuYPMQ2RlqvVciOdB2VtH1fhogNe7+ZGWuz4tXsfN9/6yF3nWXWbIzI/geAkANuETcdHy/5FgMCDmBvRXCjIQ5iKUv2XI59V1WU8ua4H5K2irp4AoSaDmlNymHhvBYYN+jEE57Jc5Moebh24fY+HbgQoQddLsKhFc+M0XPnN+W1BV9jUncjRmAo0ml0g+gMY+SYUIyGUfHUZv+QgDX92dsYUE0x1Fgu0wRrJhptwhgj0ZwJyHzSuQxnmeC35jngqacAX9OkNs0EECO458TtZIooC/yCpdvECkjJaZ6PBTBIjD87bzteH+3s3RxwrE5BlUHkImr8clxz4cjfntWDcNH9d24wYiqzT26eTHzOWozx4c2uJh3lC3gvX/4lnvbYB6ux+WlPwHi0QXC2HOjB/J+L8dKwYPB/LZjcXVZsvBiC0HrY8sOe49lLJ8vmNhOgREJDztWUAdEmmNgHFyXpNl76KBUXpcfd7E18eZzRClaXix4HofjRHLzqQ4LQmxnNOFTP5i1rln/abitn4u7pG9s9H9fX1LpI44YQTti4pKTlYlRaUjqy3ZUhhJ5uqe8zuJPYnk9sAQhTKiLSrhfkJUBAGJBmY5MBL7zJ+wrQKJ7Hk8JKI3JvL5e75y1/+wtS4a7csQj+gDdJMOAghg1AlIt5Fy3dhEBDx3pIUJjejVwHU9BQgrIWDwN9y0byq1qvqZUzAichxARww5ZgQpdx1+fnuZnyClouZD/wcPx/WSwGZJ4uCY8jvbVDV152TGPDAosrK1/9x5ZUkHAqa6naHRCcAchigPHx9vdxdS2EjY2T4DIxOxoVjnujmRtrVnO3k7wv1YItz67aD4EzAHBuyBxw7ArD0PPLPU9AEKy8C9mqU6b2oHru6M/vUHl5Yxx/zDG7gl09sBSsnAToRwOaBl+IBgudMZMCWYGvvQWynIF/2vLN49cIF/L+PSF1kOq0EjZt9FQbHuHIFyXqOaxHIXGS6t86SBNQlWcD0XCr2VvkdjPD8dyTrP5lWbTfmVqIfwY5KLaLcA8geODcl/pQ6CduVGDKb7oWs/BAK8ncYbfrf9jXqYuZ+sffU9nDx+05C/F0J6CPIxxfhsoNeLHpeO/JrIIqu+eZISEsVDL4BtV+FsIMEpeEO3Pr0F+CkDLgY+c/8/VQppYhb8SWpoJnhtwv/tYVlSn4LoQhLgrMAfQw2YvlkFsoeW+H0LZwJUCclh+IAQnKhBFgfwZq7HCCH7gPBV8J8D6U+t/HYcDwnIK979+zHKpwlDleEe06yJyFEMGiG4gPAzEBs70dz6VP4730Wujn1aZGqixjS7r6lLxZF8h3yk5/8ZIgx5lsAJojInoFVnxpgv0hSh0tH18vDJydsQfGRZEfXyJHjZs2IJhui4gDow3i2HmDJxG5PBGQ0/6KIXN3S0nL/lClTVqZT7kU+yPYlhk8NILQDIu5gVtWRIkKEPSyUEJLF4kBYOMj5J/kL7IhoDl0hjlUeyjRZEWFXiROvCmUM/rewnzswkP5nn3r15Q52lTypam5eURLV1V599cdOqGb117ZFVHY4RH4I0b1C2prpWka6fnPzJZA3YDEZ5fYuVFfFnr2+LvrgC7ueF4eprs2iedM9AWY5wPlM5rcHCK0Hia9gu+slERDvQ3AlSuxfUT12+boFCKkUrisFlO0LyHEQ5bUODb37fvNOAAIzMhbXwNo/47Kqj30A6P4+rC9RJ/iTbd4VxvwQ0KMgsoWbJP7F2mBg+6dXZVJaT1aMO1A4f5Luos6WEr/LrV8/7oVfCb/mIu+EDxBOO8f34KHODg2u12dh5U5kcvfjwgN9TdpfarjmwLLnnGEZZuCA0YhxBEQPhQE5CDxMAgcmnHq+FMBy0sCwxyS/nVAw+bx8N4KPngkQffq9o5fL4Li/9Kx5fsbKdORbrsfvDw6ZsfY8kDZfFMZHgWm1BjO32BKitPH9AVT3hMhgB6rIieEaLaTSHSjgmPkMh4+hOYebXVmI5j6+lJdqdXXs/jLHLXH7q/A5h3LVJ24uFSmL8QBfPwCYSTN3I1vyL1ywz6q1rtniAEJy7byh5SAh2rpyGXlUzNIm18Ex8GTEQr7AzW/eH+diHqoc6xbA8J9DVscFJ2zV5XlCIFziM25hfSTZodYcBNc7Sb8sQ3GuL4LqDAhuwpLKemeWtM7Li50tqb7/770FCAkq1tNPP33Y6tWrvyUiR7u6ZVsWfzqq56NOWksSVMs74yAy6lwZ2ufmA2Cquk1WIZQpGJVTTGnL0CZJHYWSVPYhSUcmKDJhMCbpyuS/r1DV6QBubWhoeGTq1KnkBLj2vCJbIDcYgJCUC8IUITFzedCRoLYEJ78DSOHQZ5nBjX0AByQYviEibA1dFPgaFKDKRlE0XFVJ0COxdKCIMDXrW8BChsSvpXB4+N/hRkQSKq/jgTjGdYsRP3fPjTdyPDHi1GkDFg3YdG9E8lMAbNcc4DdqYao3pCZcHfgDV3OMclORnTHfK+51gyXdrfWStAyqwYrHt0CpoW/6TyBK/oHvVvhEXZrRCjdGcCNdDKt/QSRX4cIDPlynYMZFKK50oDj/iS2g5mjA/gCC3aFaEQ6thJTlDzCAXTwXo+njabhifCOqNYPqwjqEK600657Q6GcAs38ywreWhVpua8o6Sa0nayjZOvknGfoLwTZjI4uhprG1zTE9bi4NXgbocCi2cDoKrkU3aR9123ya2xDq6SminS+dsCb8AsRei2b7MAZOX9pprzpLW/+7OQlstLvdHjYeCjHsiY8LT4HwL8YQZLAHrLqSXOs+kMrGONKaPgVED8NiFVQHQGJ139f+lZSk+PwIRyLTiHzufWSima4t1r06ndOCqroIVVXWAeNzZmwD2ONhwBIJiYhsSQ5lpEDC87yTpNMo4SEQKLCFdC6ErHyshspKWDsbYpb7kgQPTENOzdYwOhIWQyAkEeu2ECFA9nfQ+koia/+nJ5ZySrLb4T7k87eiQWbi6rGrO73H4gBCcsbwd3jYc47xxf2I+5rf6z1xODUn3VxpgOJDiMwDdAUUiyHRAjdmyFun2RGZIVDLjpah8AR66nlsBnEBTgI+kgxQAlZS54ibFx/DyoOw8TQsWfkUbjxyVdE8jG7tUev/zb0FCPy8TJw4sSyfz++TyWTYw0qWPFtLkhJCeiNJ7jAZbB7QrCkuFpGPVHWeiLBFkaz1jzmRSTgkSIjjGFHkgB1F/jhAA0Rkc1VlSpWtVtxkSL7jnzzU2FXQUVtPe1IkI4G/A7hi5MiRs5IL7EAlsKPR2SAAAgFAcuC3u0jXRRHKDokWA58nD3AykT9QVZIK37fWvhVF0YcUQOLzj+O4MUMlJmuHicimXJDWWnY8bG2MIfmUZMdt2ZUSAAh/x5U5wtgT6L3ARhFr7T+32mqreU4SO/HLaNj/88hk/hPAcSHq9QChNRRjRLAQwD9g9XbYoc/j8l0b/EbgdqQ+rPOla9XTSpDbfDfEcgyMHgHVz4UadWgZTGe0CBAsowhGWQQ/9wP2zyjDs67MsPbNv+ernenmRM3tV49th3zmNIhLm1PkyrXUhi9PUvKMFBltX4Hy4Y+4vnN2PozcM3YHj/Ofz38RiqPcAQTZypO7As+iVYimtd7ut0pu1gvcxmvA2jr75cnHmA/FcpiYh5LCqSfGUvgzkwFi1wHBQ2hzdyixS0QxDEaGQnUEIANCy2v6OYVedU26MzhflsGah5CRqchkp+OCr67sOK3NbMLrWSxfWIGsI5d6MlvhlaUIVoScbAFjvguJSU7l80z1ybsDiiTa5VC9Gar/A80vgmSGosXE0Gz7vSX19c2CXKmiPG/RmGlGw6urHH9kra8AHDjeOxDcyDeB+Oeux99zDdLjzPWS5ukzQ0DwwrT3fLgOAHkbEaglsAbWrETU9D7y0Upkg4IiBZVEt4RmNgfYqWK2AOyOrp1VXFsox4jZlUS5pFB08LoJrkWZ62Q2gIegeh8kNxMXHURC4yfXbPEAof1TSgJA/vdWvoUH6wyMWDL+EDBzofI+YBcBmRWwuaUQuxDIroLmLazJItMyBHHZZjDKuTgEcGCBoIgtvMwybeHAQshnhdXviZrKc8hlDzlHyOm5DzB/xO/2Z2s9GzrWYcaz59tHdz7ZY4CQMP/HjRtXPnjw4F1F5CiAGwy4ofLlUGyqrz5BXfw7ZguInv8XwNOq+rKqfpTJZFa2tLS0GGPibDbbsnLlynjYsGFobm6W0tJSTf5cunQpBg0aFOVyuZI4jkustSUlJSWMbsl3IIv7ayJcRG16tB2YSZUR0t0FLDX8MZfLPTR79uyFQSch/d7OnukGCxBS/I70tXMMWEaYa619gp0GzByUlJQsy+fzjaWlpS2rVq1qmTNnTp6+DPTK2Hzzzal8yWccRVFkKMNMxUVjzF4kYwJgpEWRJRIlXasly0Oq+qyq3sAMzYoVK9gt0uI27nlbRG5jPKNuE2RJApRToezTLqTqQ5uRi2oaQJChZmpBiMjVNHlLfel9kCInujR77jAYmQSxe0OlIpQVOJ+TOeSfaWuNlodyEwSvwModyOsduHwMIzVPKutrMRUeGIn/w1l1uyEyv4Y4vgCjnhDNuXpswpwn+/ufaLE3Y6C+5El9dRmvUT8+xhmPbYts5scQ/SEg1HtgqjXMmxQZgBGkdZEa1+8SQN6A1WddFB/jPWTilYhsDs35HDIVOZRmOxf/aV4cQQZlUGKyaM6VQCmaJaMg+iXXiWGwM9RFsBX+LEx62X3iKwDFZE9ZDMXfYOOrccnYt/zGHDIsHa3cJG3sXGPZmsfpBHV6BDs+vRXi+BiIE+xhbd/fQ3svBtVrkW++0rk5snyx/+o8xqX0/te2CxcFcFOglWulNHM4lOqO+JovgbgImTMwnVZPaudszZsHdXynZwD7ssseqKxAvrkFWmrRgjxeT6tUkmVeazC0vBQVA0oQIYPS8gi55kEwMgqRfg3Qg0BbK4I3X9bwZITkebosgiNiMms11805q3egJfuvVs6LTzP4Z16EUNInyaKeGOrmYdCw8MCIJel5gDwHRT1s/BpKzMdoXt0IW5FHjDwyLTm8vyKH0ePymAzFeBhs/kAG5YNKkFudRVlFhLgpC2QGIoq2g8VYiB4CZk3ZOtnaDptkT5IuHs/3UfsqRK5ALvMA3v/6EtS6Dqc+DGS6c7T3zXt7ChAKhL4JEyYMKS0tpcbBfwD4ekj9JOlBR34LhxUnL/+dkdVMAPUi8hKAt9esWfP+zTffzGikNw9TTj311Mp8Pv95EdlBVfdQ1bEiQqVApqPiwFVIDv4kDcd/XyIijwG4JYqiuquvvnp1kQqHGyRACCQPHtYeYfuDjffLzMxr7Cyw1k5vbm5+bdSoUSyrdB75tJ1n7tlRnXH77bffXES+bIxhlwp5DqwJVqgqEfy/mDmI4/ifN9544/zAdfD1bkr11o/NY/Kzg9DU/F2I00MgqGNU56/Tp7MTkMmNbiq05WpccsgHjgDkNpc+5iK4roNwXbnm4wA5HVbZMsZImpoC/phoC7eSVirWbhk5zYfKg4Be3bbHvY83iqTEwAPt89MPRCQXAiCXIzDmC9Elo+QWCF6Ayi1oie7HwK/PLbRkJfey8oldUSpnA/Z7gClx6pa+np1wDkKZwtWzV0CEHJfnIPocWuzryGQ+Qtl+K3o1JrynpicHQ/IEm9sDsgvEfAWqe0Bc5JoJz9jPZ3coCK/T+bVAQMD7B9jK6Sjfc1WrKVExe0oijlVtsHLsligxxwD2VAi2+VS9GPhMFtZXYGBmN0T2ZCj1G1zWxbevJtk0T/IMmSNZACGBE88D8YvQ+HUsHbIANXtStbIb+2t4JvyNcx8dBJRs4zMX9gBEsh9UPw+VAEgLXJak9ZOESZYxHgdyt0Ltw04RNVFeTNZu9wFCAgiTslaSIeOeQ5Lko4gzM1w5rWLoYpcp69FLBaf9YzCyQz6HKPMVIK5yhEgCVq/22xo8umfvNC54Lcth8TgMboVteaxVBXYtYLVH17f+PtRrgHDssccOqqysPFBVxwe2PNPRfIhOZCd0KbgHGtoM2T1wq6o+yDT3smXLONgtbDVM3B35Wf57V48h/f7Ue0vKysoM/Qry+Tw5ET9S1V3YZpkMbCKoFA4uTmoOLkscf87lcjVTpkxZUIw+Ab9vQ+hi6KjEkGQQUve6TESesdbek8/n6xoaGlhacAsocXLkP0+ePJmDVnicifNm8h9SzzwaMWIEMzjbqCozRxQTIinyZWvtjar66DvvvLMkdLe46eC+I2FjOyGi/FcA/RGgRwD0gOAB5HrTGRUlmwAjgzsB+1tcNPYN9/l1YtoT6t+/eHgrlJb/FNCfuMxIwo3wG0D7V3qOMnKieuQM5PMX4bIDp7cCor5sd0xt3Oc/NgzIfheKc7zSowNXgTXqug54eDZC8CAs/oj8kOdw+S4UfQnkxAsE0yaLU2GMohNg9LuBX5KASqdMFXghHBOC+xcguBuQOqwqmYPhjWu8G2IVI3DvFsnsRrGvgiNk+MDoenGGQprZBNmIbXycWwdCsWmAja3Rm2fY+2sVYdvZNEdabFj1Gq46vLlzBn1HbYmBfd746FZAyTEQ/KxLgJBr/O9CBmH4YTmftSj21dlh3a7c1bjFF2H0+4D+wPEOXEo9KGS2QlZyc/gYPgZkOlT+jox9AUvtIixa1OjWC1vw3MYaxqbglNnB9bpWVx65OwsWvS7YcQvByKEC3aYMjY07IjIck2/Aaaq4DFv6vn0Wg3V/iwcArUXZyme9NLMLs/smgxCasALXigD4HiB+EA2Nc8GxSO43fc/8Z9dRkXrx31wmKbx4z25TpAgVRZdLB6E03gOIvwfIIRDXHuu5D4VApkAGZrmD5ZSpyONKl0V0+92GYgdf7NxsfV9PAUIyNQvRZBRFuzNiB9xj5UR2hj/hYGCnAUsHT1prb87n84+9995780MqPyGh0CfBXU8gCRZ1N8l7E8vnJFrec889s3vvvfeW1lq2W56gql/hwcc0eCh9uGg1sPsJaFZba+80xvx+2bJlr6c8JNZWathQAUK6U4RLgGTB5wHc2NLS8vicOXMWp8oozAYlnhnJ4kkvorZp9TAq4TPxhAkTyqIoogfFAcaYTchlaGpqevTmm29mHdCNaRib8J2puuqOm41EHofDgGRFZnr4Hl/r5+bvInc3TPVgUrBSn8HkKtYZw6s7EVFn0ylFEJv4QgUGr9wbUXRiqOmzNTTfqt3uvqP9s+F/Y5aBLwMjlGT9DX63/53u2l2JoSc6+11cr29H/AIER0N0ggdYCanKZRB8vdwRffUW5OPf49IDZ7u0ajr1mRholbG0gG9CXAcDJXp5qwE8u/FYBTFPweo9EHkcq1e9j6sSp7+0Jn+wBS5q9fJNk5nabusMyKiVZYLVT2+CTG5fwHwPsIfCc2H4pJPsH/85qb03AmYmrNagrOQez0Woy7jul7VGzkxzhzY8Potthm+FTOZHEPkZRNeeQfgEQOiLrFZKAOvsJwciY4+E6qlhfTBiD/uR+8ODaQ9eyfu40/mXSPYl7L5gKcY7C+7QmRNWjfOwcM89UQxsB2oS8HSBoHoyPmGLTB5H47IdgPy3IPI9CFgSYoY2GRP+5gcQPI44fx+sPIfK6Qs7bHXseQYhdIToCgAvOm0PsQ+hDB+2jnfwSnDBRJt77uB+UwCh4BrqjjjrOhLOPrgSUX43QI51WRwRcjSSMzDZE7hP+HZgwSPI62VYvuo51MxsAqpDJ0tf7FdFL6w+eWNvAELhATHKPP744ysGDBiwk7X2u6ouEqHWf5KOoeTxS6p6ayaT+fuf/vSnj0855RRHEho5ciSVDJPUUW9vyh3Y8+bNc0Q5fveHH364rTGG/eHHkdCYYtsnA5tEWmzzm84sgjGmvqamhuRJ7UJlcYMECO1KOnz2LzK2y+VytUz58xnRm6E3hlWpEgyOO+64imw2S1IoHboblyxZsjxl2tQxwPIqflmMYs+9/D9ASW7tACC4+OQlxHoZ8k0P4YpDl7VGwH2w4HzPsp9/v3xsS2jZ94F4vGshc+ZGiZ9BG/5K+3UTDiF2i5AUhSvRGE/BlWPJEO9DJ0oexNy4q60v0TSNgTHMwFB3Y3jwivB1aR9dk8RHsu/VyGWvxeX7LvzEoZmUbBhxfWH455AvOQHGfstZHcPJ9EaOgCb6EvKoAexDqMACYLrFvCMiLJtt+45jEaLn0SPEyShzYz/3oMFAfDAgv4Dgq61zJGmNdGOXEOQWuK6XlrgGvx+7uPhW05T/RiGDUARA6HO752SuBMDV/OT2gJ4CKIm8JF8z4+e1OFqPOZZ/FkP1YQiuweo1L/oImm4Z9VLgmfRqZ03GBZEzzZp4XRYDt9sBmeg7EDkSxuwC7+VCUEqiKpUip6G58QUMfnZ5p91H3QUInmvA/ZrPoBkqLFXfBrTcjz2Wvo/x9GaYVuI4Br0uQQZeEjY1rlTB9daSOwBQlp++CZBMm+rwKaw3l1l4GVZuQi6+D4PXJuTVq0FZLx/uLUAohHJcuBMnTsxaa+nQyH5sGqKQvMh2N5IRrxSRB0aOHEn/ARfhpiR7+/RmeaiH6NWeeeaZlcuXL9/HGMNSw5Ghy8HV3EP6PZlw1EX4t6reAeCOFStWvEXRpC64CBskQCi0/viFxNLJDSJyQ01NjYvqU69upET7cojUuKiRkfV5j+4IlPwKsMfQEDslXJMikeo7iHEjIP/A8sp3nLxwX4mRpN0Xz3xiF2RwOkS/6fwMWoWlEgYCtwSfFfO8hLTHBh8QD1O2+d0Ba29GrvTlVnKWe369fN6Jg9z4GOc/uxnipmO9FDQNedKtaC6qZLqs0ZE8Y9yAFnu3Ayxs9ytElu3GlK2PDU9vi0zuQKg5EkLvBbBt8g234UtuGi466D0fizqCX7ifPgBqhUsJESz5FU7jfnyMsx//ArLmDEcjVGGHVPIcE/CZZEuoS/BXaMsfcMkhc1Fd51Uxu3xtIADBEXADH4gtjSb+LmDGAw6ssi0079aIJycSJnD+LXQRtDE3o2n+K66F1YHSZHz6amzS8smch5MF2z25rVOlFDcHKcs9F7HeDuTvAUr/jUv2Xb3WjqPuAYTknv2+IOyY0ZtgTQ3KHpvjyiEkA3utlD4KOBNAHub52U/R8v0QGP0VxLngep0Rvxd4jp0HDQSqD0P1JjR//Iwbk/Xq8trlhC/6DX0BEBLCoqs9HXbYYaUjR47cIYoiRoRjVXWQMeaJ5ubmv0yZMmVOOLypNdBeuKjoiy7yje7w5nvffvvtAZWVlSRSni+0wg2p2EBaTMiTTt5XRB7M5XJ/2Wabbf5VXV1NNn8mUYns4Hc3NICQLIxk42TN+Glr7VUrVqx4lFE9x2efffbJdYOY2NXj7ihDkMyrTg7EFEBg1G5LfgrYCa6lqMBaTtWXvQ7/w7DmVqzKzXC91X214Jz7YiARnjujCkZ/AyVj+xMCXQSdFHNaGFqpRkCxSaiLJ4JefE+DY/WruR35hrtcjdqRybhhF00G7eSZp57bmQ99HiVlZ0JdmyhFfXxNNF2X92nne2Gj21FR9pxzb0xrKKQP5WpGh65VTXD2U1tAcgfCRNz8N3XEK43uwJqV7xRq+x6BF0tu7WoOffLv01yTSU+MQIV+H0aPBZwAW0Xo9U8+x+sO5RT5B2L8ERXD/7fVp6GrLM6GABBSKp48eM6powfG2cFngK2FrXoAHhzw2TOj8AIQX47Ssfe5g3GaGrwOXWsXR/dHo/UTPuPErFsek94uRcWCnSDxgRDzZcT6PjL2biweOAs1e3pg5jJevVJSZDnBd2y0dhHR8OopAFNQVvqgKyel23Z7c38dfZalqp2rFOMlxlnTd0DGnANYZsmHuCi3VUssUQ3jPsGW+T+itPSOwvW5Z9JXgK2vb7Lj7+sLgJB8c1KrtpMmTSptbm6mrfDnVJU16gXNzc1v3eiFcro4PPruxhOrYx6GJ598MmWfLxQRciRaldv8z1GMiRNwhYiQBfvHZcuW1fNA7YKsuEEBhFBacBkRcj5YnyMhlDoEK1as+CCVEem8/azvHv9avsnJr/pOhPMeHQ6Nvg2JjgUs3QLZwkXSVUiVuxnDzeZNV182+am46OAlxdWXi7mZUIOe9EAJKst/ADG/8iI0rrTg5kYhOuDhr2Tv4+0gI85WWqbxY3b0BlY5N+7FjigWR5fjsn3f7bvOi5B6pmNew5hdEMmvIfJtH8k4Y7Ao1ZvNTpB/IzbXwbbch0rzvoumvaBMZ5kMv9kl9f8o3hvUGdH8S5hz4Mvekrirw7aYZ17Me1IRK42WNtfR0MwxMGBJJXHW9CRKz5WgC+gaqH0CKn9B3j6O31exFbMTI6f0NWwIAKFA4LUYpwbbPfEDGNeMR80Rji3LCum5SJGo1wB7FzS6HRfvT+2BddNW2364/BxiaV2w4plSlK8ZhJZsBUxzMxrzSxyILGaeFJ1BaCeJrfomVP4Mje/Fe4vfQ+34lo6BbzHzrJj3sAxJl0pKR9dtgqaSI5q6QqgAACAASURBVIA8bcMZSLA9Nw2UA1ileBKuhjHXOEGsovgwxVzL+n1PXwIEXnkhmuTBOm/ePNo9m9LS0vill17KBWLcervDdHmANskiclYofbCeVxCUSXVbsBXypTiOL62srLzvqquuambZpKamhgu0o011gwIIITPiNsvQMXJHHMf/vXLlSqLZuJfW1n04bqla+ql1AzBE9oaNKLv8XWfXmgCE0FwcHNrICbkeIv+D3x0wv28WXHIw1GXQFG8DlP4IYtl2SeEeHobc59Kb8gKo3AzFizDsvnAqkCzjJIY/iXAK68KPI2/Px6VjZ7qN1EVTvSKx+bXFTbVx34FAKbX4z3KGV/5CA7nT6/V5qx55Enn7a+QWPonBrzcXYcObcgusy2BJ41CUlFZg2eqlXh3O3YTpfSakG1MplAv9PWdJsTwHkO0K7YcewCVlwiY3Nqq3Q/ReXFT1vgNDHWZNNkCA4NoA6yM05kfClFCoKViiO+Kb41a3emsQhOJvELkRJfHrQFWLT627QLuXpaxixqerMkYRQLJogOD0FZLuJk73xwDzW2yxxbOY8VJ+PXQJtAa11bNKsGbxdhBzPIxlaz9bcMP4OEa1BwiCpVC5CfncH1E5472+124pZox6/56+BgjpbAL/eT1M1M4fQiAYurT7xIkTaQrEAWWLDrssnJRmChwkpYa3rbUX5vP5aVOmTGkiQLjuuuucFXIHv7QhAYTEWyHZLBeqag29JmpqaubzPgIhdN2lhbs1H1OHc95sjZyw6nwqoFQwC+16bltM6surAbkNzXI5Bj32jq859qY7IBWhpglIgkOh6oy2wgNNtACoTPcyLK4A4pch0X9CMCEQcWksFXwkCqzy/4XV/0LLwkdxxTi2P4ZXTzbvlKcAU6nDV20HRFROPB5wmvSB3Ola4BKQkocKVSgn49Ix/+5ee2iqK4FXTSY4sxbrsqTQ2dxJSkC8w3NnfAeRXlSIqp1AT0HJzhPXaIamMg2Z6C5kHnnPXXOX5ahPO4OQmoun1Q1BiTkQEQGoHBTknpOMXxLUsGvmDaj9E8rxt4L3x3V75teSHerW6iz+zYHAyLZAtrqOvoAgtrg9pjiA0LaJUmQ1VGsR42JnWb7O2p4/8QQCeCZIry/FGnMsIueeSjK+z/C0yWbRwEruQZz/M1YM+pf3aHBHYh+SlosfpZ6+c10BhJ5eT59+Lg0QfvrTn25qrT1KVY8WEZYbKOrj2rjC4Z9E3u+r6m/y+fytGwtASJVMkvFsUdVXGHFnMpk7rrnmGoohZdYD76N748cNgv3Yp8zMYHDDIcjo77wYS2gb9HJJrf38ikcBczUask/jqn1W9aqbIS24dPaTI2H0BAiJkkLmOOvZQc7VHfyM3Kgxfz9iXAuNP4CJToTB/wGc1Hei2pC0aBJUzIY1f4JtuRuVB75fqO/3KLpLuxIG/QjBD6HUj6AroWPcBjdMV6vmhkXJ46loaboOfzh0bvfLHGlS2qe2sYkjGrrWVlGcXX8IjLkiGPX4GrfPliSgmGW1V1zvfZS9c6MBCG4uBgD2y+lbI8YpLBZA5HPeYtuV3Dgfvb240Xmw5hFAby6Q4Na5vfjalnYyP7vZ718MQPAqmhxotrPSbOldqExFlLsRFx70Uffndfe2qNS7vS9GYuF+3nRmD38NyO4pfgTf7sfJy5A/A5hb0djwoLdXZwKuI1vyHl/TOv/gugYI6e9f79mENEA44YQTRpSUlHwPwNGqzoCHvgKfAAj0JwDwm2XLlt1aW1vbuDFkEAgQQleI44HQcIkmSdba20pLS5/shjLkOp9wbX6A0WEScZz18G7Ill4MdaI4tM1J5kuy4Fp8al+mwuh9yBzAQzfYFPdAqYwL1fu3xzhvxo6A/grQ8S4j0Kppn2SVWJufBcs2v5Y7sKqlEQMHHo5ITnBmTk6fPmziSXqfUsRi/gmL21CWf9J5M3SZ6u7s8aekoNkbb2I6YdLemV0GQRu/DUBYBcGzUHMbVut9uIo10B5IVCd6BL0rjfRmTnmAkGgZnPX4GGSiy6DYK2UcxDnfOkdEXoPFHcjoHcjUvbtRZBDSUfB5dexI+Q0gVE1kqjpZBwlQJgh9AdDrYfAwsna+79TYuCJTf1gWI7VcyO57ArBiJjSailj+7tt2ezCvezQjExXYoKtx3hNjAP0vZ0yoNGtzFUCOVTIXmTV8GTDTYMyduHBftj8HgNCD/apH19z7D61rgND7K+zFN6QBwqRJk0Y0NjZ+T0R+KCL0Ef+sAQQqICYKeLNV9RZjzF0lJSVvkEuRfha9eKR9+9G06dC5M0YB+nOI0qmO5SBGS56s6GVkmeJ/D1buA+RWlOVfdhtjl+njTi7ZHX4XiCtVjNpsHxjKFWtVAAeJQBB5CL7vHDoD1lyINavrMXzTCM0rdwdKvIuiI821BwjKFP+/objBgRoSldbWYrjWJ5sSzyGpE9kTAJnUzsMi8Yog63shFPfA5m/HiNyzOOvQho3WXS7dZXLWE3sg0vOD78TAVmnuZI6wDZBGQXIPcrgZA/Z/zYHILufIp1xiaM1mKX75BImhV0CdbH3IHJAp72ylqYzJzMn9UP0t9lj4IjtB+06Hom+Xd5ffVhRAKHwL97YVTimSoLtlzcO44ptLPzWA8Mu6ryI2ZzuVT8GgwL9LOvO4Z5AP878QrYWJ78SFB/UDhC4nxPp/Q8GOOiUJ/WMRcY6TzCCkXBAThM6B/O3GlkEIyNV5XwB4A8A11tp7t9pqq7ls10xxLdb/KHT2iw79hxaoM5/aFFF8JAwNg+AyPJ6I5ojq1BewgF0FlSeh8VUoX1znRFt6xA5ODoRqg1VjhiEyhyLCmU6triDGQo97S3DCOcS5cRdyciEuP+AV95trspvC2O9A9IxQh0xKEsnnmPpe7iygNboSl+z/AXqcBk6bST22JUqj/wtjfhK4EkE8x3EP+KQ5Bz6AxTWAmYrZ8z8KXI2O2lE3nLnQ2ZWkAcI5078M6OkwOAxwqop+bNytJ14EdJekaFB0Ld6Z/4K79y6f+6cMEFz0D+D0Z8qQzR2CCL8BsEuqtOCFr+BcQ5ud1n8u/ztcdtC7cM/nAnZqFFf335BGvPsAYREs7oLRW7FkwExf129fCltXN1go83kp6fPrdoMaKsAeBsWW3hrdZfGYRfDjJHgVFnciW/Y3/HYfmrf1ZxDW1fD08HsL+SnqGey0005fttZSY//o4PRINJ5o7CcAYaMsMbQDCHTH/H0+n3/wxhtvpJV20kO83ss8ax+3VFqUrWyb0XDITIABS0HDUnV1p2oVTFHegLUXoRx3oHpsEyjuU+3kmYu/t6QOSBe+ysqdIfg+ADrlUWc9EP6C2JBvofsIiptcm+WlY+lhAQ8SdAyi6BJA9mhNLxJYONY5o70mQP8BlUuxx8evYDzJfj3sZGDGg1yNTVaNhka0yT4KUEYuibpeIlrE+fw6ND8ZZXK3S8978ZiN7wAh4knXfc9/YhcofgHVw5yyYGLu5ccsWLvrcmcSpPgfzP74KQcQugSRnyZACL/NLMeOW24Fa48E7KRgWJVkEDinkvZUivDcCNNyravBb8xa/8UBhGRdM0iY69ag5Kbi3aXve+C7vkor7QCCF3jjnkE9hJ0CbykR5fKdTSqzoXov8vIX/P4AGpytnzbUHh6WHX1sQywx9OU1JVGTk0z+8MMPvyCudovjgqLiZwogqGoUMiLPGWMmZ7PZ+quuuipxNCv+AO3DCdb1VxUY+ooznxqBTP4EAD+HOPJdMj5JbY+HLm1k/4CSkhudAEli/tT1D4V3pAh/bLEcbA4I4IDW1Wx/be0I8OCR6nwzoHYqyoc8iOrd6RznX+fXfQkaTQaUfh+UJQ4dh67tiX35fPZPINZr0JCbjhFPLutUdrbT60/J755RPxxZGQuQ+yCsgVIDP7RYuuOS194E1Scg+DUuqnrGbaDsD3EaBuvjlUR0ffFbFNkZYwokRWdtHZ0B6DchlJYuuJTyx0K2UMkerwfslXh30YwNGyCkulMIkDfFl2DMDyAOrG4VsmYWKr5tlcZblB0nWM3bO52cdJflk74Yh3X0HcUABK+fGFQj5X3XuWEzt+LSfef3iqTc7VtKjRU/e27d5yCGBlq0KNsleA8lOiNJt8kCKB5ELH/CZQe82LoW+9jdtdv3UvwH+vIwLv5X/TsLv70OZZfTugxm7ty5OxtjThKRY8Jh8FkCCIk0MUWfpgM46/rrr38hZYC1gUaQrK/XZFBzSg7VdWVowQ+g5jwnH+xS/K73O1GIJDJfCCu3IKt/xpN1b6O+u4qcKcvpc2cMBfQoCE4CLM1YnAtpKClw7nChfwjVvyCv0/D+pm+hNmUh+4vpW6MEP4G41lmaHbF1trUO6VOO/4aaOxxRafFrb7r77M6mnmQ7uJk2j9kRao72GQ/KK7tui/SmlINiDkD+QXw9Lj3wTb8p1faxYRQfUQoIJNDTrehuZHK63DHCWNWFLoZzZuzqSjpeCnuTjgECVkC1DrH9b8xZ/ORGAxAIVgdm93edNKJkyA9rU+7yhkyswdchxq2QikdwyV4rek587fLhr/s3dBsgpEpn5ft96LNi6zGDkM7ETZ6xDZrjoyBCgODt6gvtjkk2C8tg8Sji+A+4/MDn1o2767odpk8DIDjtANoGjx49msZK7hreeust7Y15UCePqQ1AWLBgwc6hxECEzmjxMwkQADxmjDnt2muvfY1iUXw2VFFct1Opp9/ukLmX+aUISeOigyByGgxJWlIBZXtTUDX02vNsb5zuInpED+Li/Ze1as8XU4dt0xEwEhJPguhJEGFEyv7ypG0uAQhvQDAZJdvcg8mfa8Z4HrbBJY8AQ/OHBgfEKojzCUjXxHl0hgxEdC3Kc3W+LFKMy2A4hKvqI9QHMuaoLb4GYye5Tg8BtRrCs+FRKayB0rXzGcT6N2TL78Xvvkqjplbxo54OUZvPpTQSaKo0b6BgZLmAyrKzEPdOm6KDC0xzEFhisHIGxLLEsBaAgDoortzwSwxt2leHoSR/lGu3VaXNdWkHAIFGZQ/BylSsyU7HVXSsTPF4+mR81+OXdBcgqHwAlWuQX3kbBh4+91MHCC3OhpudT60AwZeCfLlLZBlUHgVyf8BF/QBhbTOrO+2OhlbCvZ2mixYtklWrVsmoUaNsbW0teFAOGTKEhiInighV8LjBfGYBgqr+3+uvv37WRgEQkgiXB2dzZk+IpYocyT/sZvDkH/YRiUsjM23/Dqy5yykrkvzX3Sg5aXEctclOMBHVNZkqrAzfnchwU9CEAfGzkPxZuPCgp31b1mRT4DxQtGjQmi8iwgQYurxhs8Cb4PYQHBWNQPRNWFyOlXaa85Hg54rSZU+BGfdscATEnAfFHiGl7lv8PLGS2ZVlUPzddU58bF/ElLFBoKm3UVa6bLC2DEE48MYxqOqD1+v1giWNERaszjtQdtaM3RE5My2WdDoGCIIVsBsRQKByIrtxzntiBGCOBeKTg5BbYmMdOmrcfPoYVu6A1b9hxaqZqPn2mv//AQS9BmiZivKDN8wMQhogAEsBeQQxrsClBzzfn0HoeE9ITJPMrFmztLa2VgkAhg4dSglms2DBAjN06FBpaGjIlJeXl+fzeRKvKqMokkwm0+O0uLXWgYw4jtUYw/9nrLWjjKG3PFnQGNoPEPpgE+/1V6SiKB7cq5/YFhn7LYjhgUtjHp9G9zXmJCO0HKr3w8rvnEogD+5Zk6XrOnsiE6wC1vOjiOZMJwdDnDLHGVClBkPCjl8EMfcCLZfjooPfckQxiv3S3CkBNWc+VImojMRKdkF8ro2qWitZkSIpVyPXVOPMm7rDm0jeW/1CBZpWT4ARGjSRTBnU29wAcJ2Qn0GHu2sK1s7d+Z1OxzHIYu+8s+D1Ed4+mGXXoTMNShcaZIYYNCwRjBxgsMIORklmGKxkYfKxv6RevKK8wGoEG62B5ltgZE+YzHFBXnpIhyWGjRkgxPGxiAxJ1PRfCM6AzkCLoJVz8j3A/BGR/TvePOCD9euN0Ytx7OyjPcogbEAAoasMAgECMwgWf+gHCO0mAdvqLrjgAoKDpH4Mig41NTUNymazQ6MoGq5e0pbthnR8pC7BQBEhQCgLbXkJQOhNRsHrcDFVDQwVcbakOwKgf3laanlj72IocBBYYth4Mgghle4d2wRnPlwBU/oVGJkEAWvN5UFBLQEIyYE4Azb/K1xy4DOOxuRS/2uTXk4BER6c22/+BVhLcyamCdnJwNMs50oavq1yDWhTLlKLRvwNVx4w312fq0M6uVUf+bnIPjoC0POhoAUsP+95EyoWovxeRhJ/gzZfj3eXzULtOEoz+/vtvGYf5jw72C4QNI3ZBohOdOUQ6r8n3AMnNexa4KhX/yasXIEKS/ndbmQqOtzBEwm78JfheqvrK9GU2RQww2HiYYjjEVBTCmOz7r+J2dSr/zkAw8fQm7VLSMjryENNHgYjoXZ3iGwDCO2PSctk9oQzwJMUN1aAcP6jm8FmObYTnRcIO498NNoKEBRvQ+UyxNHduPzrdDjtag6tg1O9D7+yHyD04cNcN1/Vu8W7lmtKAAIX7pw5czJDhw6tWL16NTc2miaNUlVGW6MAjBSRIapaEoR+uNCTNG9fMu+pMEiWP4lk/H/S3pgAmH6AsG7mWPHfmtSbz33y8zD2DKj8OLTykamf2L4GboDMgmIyFsT/xJQqavB3QZBLkROZ4h+2al9IdApUWc9nujqRKOYX+XS9xQOw9mY04ElXGnAZDFqIT9ZCZ4BrTxuxN2LzMyfgA7A/3ws7+Re/a7XTbxDyJsyDTjSp8F2d8SZS/d3MUpjsV2EyP4Yo3RuHt+u55sG4FMqOCVuDStQ7rkOX/f+dDo0HB1wZdHbEzDKsWFwGLR2E8mhbwO4KGEpS0zeD65ignvfM/u+sN4ryMle9fiXf5dnsWUDLAcM/26/fjQ8g8ICct0XkiKu/fHpLaP4MqAOAAx0oIvjz2SFvsczSmsrv0YS7ceX+bHfsBwifJkmxP4PQo+VdMDBi/Xv48OEkf+1grWW6eLSqbhtaDJniZwaBtd9U3bdHv9nbD3ER9gOE3j7FXn0+VW939Viw3XEi4IAkjxseFa31WLL1Va8Ccndg9rIgBrS2iDxNhqwrQ6P5vndDxJdarXRdJN6armctP5e/HgNnzHW3VjChSZdFqg0axm4HAzKafwDRLxfKIoV6pOQAfR8q98Ka63DpfkV0FwQbah4CLrosPQpCQpTuFdZMWrWN5Era/d4Da2/H8oEvo2av7nVLJGNXUPVzClXAJU8OwJLcaEi0O4z9IiAEBQT6XNdM8xMcEAS5fEG6O6lX06H4DycAfyMFCEdEbqzOeWQbSMkvITguZDe9vkVri5cHCLG5Amj8ByqeXtD9ltniH+p6eWd/BmG9PObe/EhfZxBcjZiaAwsXLqxoamraMoqiXUWkSlXHisiWwYqYBkmuZ99ay4xsstm5MLCDG+qrTELCTE+ij+Sn+gFCb2ZRn3w2dejSXbGp+ZuI5Hio7scy1Cf1CYSKeXc5y9vyyhdQXYSqWlKTP/e+ocAAdi5QcGirEK0lbmwECTRoovLZpcg13YLLD234ZOdBwfZYcO6MIRDZHxqfBAEd+CoKZRGSFX0KnBv+dEAvKEqfwOnzv+6d8c59dBSk5DTA2WGP9NfnyImJIBOjzZlQexOg9+PdRXN9e193jGFSegssaaz4RilKmzdDlPkyVMeGcaBzHUtzJMwxo+PdI4WllNCvTiDX/tWxE2o3Zk3IZni3vKQen3z+MwIQZmwDif8fhERFZkmCAJYvofCZkrT4DqxegYz5Oy7cf4FX7estAbUbw9DXb+0HCH39RPv8+/oSIMi4ceMM2+nGjRs3YMiQIfuTEKiqzBww4mAaN2EtFSIN9WQDL1/ZsT0030IQ0WuQwJ8K2QoClPS99wOEPp9a3f3CdFReV4Y1rOebHyASeh0wauX48yDk4c0DqgGQ511PeEXl3ajea3HnjG63ifoId9y0Enx+xC4wmRNg7Hgo56XkoDZwD1xufQ3UPAPNX4nyzR5B9eiWThUbk4i74YntEIEW0D92kbVznmProQ1CL+66ZyGW/0LFAf9wPIa16ROkDXwoyGSFio2HeH5EQXjAe8/zMFE8BJg/oHn+c95eujuHRzsRGCcglRkNJQckPhgiO0BdpqAsHFath7NfyUHIyv1Lu3XqrqOXazcABKeJYSOos3hO1m8/QOhT7YnurttevL8fIPTi4a2fj/YJQAhGQK7iOHHixE2stQcYY9gfymiKZEQbzuNkMad/l9yA9gf2+rn71l/pBwjr+4l3+HshKufhuOXmm6JMDgPsaRB82ZHRnGFTYr/s/p1qan9FHF/jJJC9ANEn5YzTLorVTw9DY9MRgPkhRPaDsN7bhi9AEPI+oP9Ei96CgfpS56ZQqbLIGXWbIGv+A8CpENCmt9XHwceAjHzfg+D3aGy8DVccuqz1EXQAfpMMAu2wz56+HzLmMsC5kAbPBxdRJoqNJFTeDsldgosOfhvTphmMXxths6OH7wh/wHn/HIJ8+e7IZA53gkQqOxYInN4Yw1vvpi7etXT6Fd0n+0k3p+JnByAY5yhKgNmfQQDIK8qGde+VFJ0OQn8XQzfXR6/e3hcLuiB8NGjQoMEicriInCAie6lqZRKph64EH8X5V4g6fPqMAMKlCvwG2NH7ehmFuO/kxsZ6aWJqlDy8foDQq2nUlx8ObXXOZXHE1yDmQteG6FOtJP4FGVMHFChKdBti+Q0uG/N2p7r0aYBAiVTIRBj5LlS2cxG4P2gT7kEzFC8AcgtyuQcw8EAvyNKhVbMKpsFgvFDvfwDWZL+BTHyiT8dTNMkd/IzyE+LtfFjcCpu/DU3Ns3DV4c0dm80kaeNqg/MOG4q45TuI7Lmh+6bVFMoTCQk+5kHN9TBag98dML94ISa3zMIeIIrTnx6GbP4AZHAkVKsAGRlS+iED02YJpjN+BBdJKSXRZWhdWywh9jiJUNA64+95ImTb9fsZAQiPbAOT/RVAYm4/QEA/QOjLTbXH39UrgBBS9i79f8IJJ4yIouiIKIqOVtWvBfKS4xYEcJBOCfqaWgACqkqW+hoRWeEY315fnh+k22KDqvK/NYdSRI+umUCFbZTsnhCRrdnJEC4sASP9JMUeT6M+/GAiYsQa+tnTKUJU7QxRyI4nePSpZY5VYsP8CIDfYPWa5zH8+RxSbbWFq2J3xOgLfD2fcr3G/hqqVGwsDxExI2MavzBd3wiV+xHjKmjjCxjwTGMgJxZOqta7TaXmJ71ditK5uyGbYUmE0svB+MmJPAUWutLHoR6KqSjTR1A9dvkn7Wp5YF/AbgmLRJ+fcq6RHOtc4xIL4II+vyu1PAuYv0Jxn1OW7I6UswMIFwhOHVOBQc4s6wQIDgSweUFV0oOQkCNwHZzJGkz+5HjQJ2AlBCuhSic7alsJVFYBugQizVDyBwxgu9He4H6ZQFAI4limpKT1Zl4W213HZwQgFMtBMFcgo/0chA1BKKm/i2GtG3/hoB43blx22LBhX6V9jaruH9oIuQsUInWfHHB7houAVLVFRBoBrFTVhSKyQFUXGGMWq6pTgIvjmEBhaRRF/G+rSWZkK2Q+n3SQrf1gymQyTigpvCsyxrCWTZEkboBsrezI7nljdXPciHUQ0uNIYh07BsSCXgel8lOAKoVK8xovYeoj/gAQ8BKsXAMteQDvfTDfkfNane/8FyfRP2v+2404BJCLIWYXb6Hr0ubkNCQAcSWAmxHh9/jtAXPgpI6r1uIWmXLj+/yQzRCVHwro/wEc9yZkENw6SFQgZ0NlKqLcjc6Nz18bV0Y4NVOg47S6ISgzh8KA4ICmUsxKUH+eXQsUdOIanAeLqVCpRUX8imtvRKoDotMl0iZzUI6yeBcogY0dBzHbhEQfswGR4wYmbY9+1fO+mGlpgMEqqK4AzAJf8sEiQGnLzayDgY0XIZI5sFjtxszyvxe3fpHJALlchEzUiFzUgmxMC+RxgH4FcHopvJoEbWykXQxJm+P0rRHjfAhYpiJwbQG0bRcDSYqa+QOi+B/9JMUNQEmxHyB0ursUWhknTZpU2tLSspO6zQUTnMiHX7SFKC9E6nHQIeDfERD821r7Mm0YCA6stSszmcxqay1Bg8sgtLS0xNbaNdlstrGlpaW5vLxcGxsbhX92FbPyfU1NTVRstPPnz8eIESPYNfFFY8x/iAj5Ef1Sy109xE/l76ktH1oKz3t0OLTk2xClNDazUuQLtJlbEHkXqrWI7Z1obHzVpe3bRtD+dHN6BVttjlx8FCJ7WojwffeM91/wkSjbBQU1jttAvYKifBPCoT6vJsLwnfeA2MlQB0RTAMEJJzENz9rq3YhxgVOBTJMRPZoxGBdUIc+q2xwmOhHGnujaC/118tVK1nRmUHoJWuw/MbBqafH69KGUw4zLOY9sDSk5zgERC3YqEHwkkXkCyojuWdPgQbwGwJtQeQ5iXwHMfMS2AWrXwGA1jDQ7qZGWNQaZ0tUoyy7HSptDtMpgzQpBxWDFgOFdrmGszgqaP4owvLwF8wbGGLJqT5joP2H0EGgnbo4blVAS5/oY4zguZz88Epmyn0OVQkneF6QVAPkMlAMI8gdE6AcI/RmE9bI79yhdz4mbdCwEUuLRxhiCA/aAMxWcpP6SP8kxYNaAm+OHAGaq6uMiMqOxsXFuU1NTbujQoUrDphEjRhQ2jtGjR7t/TqsxdvOpFMoaJFImbo4AjvkM2j1/VjII/mjiYXT60+XINu+KKDoGsOMB2SxkDxj1k4PAGHoxrNZBzV8RN9a7lsSCQBAnDy2Dqy0oNpQp2RuIjobY77nvaiX8JZkub6xk5SY0ljzszHCKSterwbhacdkL15KYPZ+W4oBkob6PNxhB+aifoklx/leolKeA6RbVk3k/Yd5XG1SNMc6gyVnKRmcD3u4DiQAAIABJREFUyqiS1s75VjMpl/Vgm+GzgJ7nrY1fVyfi1CWrPdXSePY9AyBDvw7R/wuRgwCn/EiAzgxNWoyIS49lgsUQQ5Gq6ZD8E9Ds6yib34B5o/z1Hzzboja1Sn2rZpqv0I0lnIhbhQzOOY/vCsms3c1xowIIKZLrmU9t6q3OCRDk8607aFpqWd91Spka/R0Vj/brIHzabo79GYTOMwgBINgJEyZsX1paepa19lgRcf70qpoJNX+2MCaZBKbzCQxujeN4Rjab/eiNN95YWl9fX2S+sRv7SutbC3VjAoSPPvroiyJykqryWj/Tbo4bl9Ry+7FNpb9Pe2kIylYfA4nPdBunKy+4dHwmtM9ZJzFMjfqy+HZX1y+YIaUAgusyiL4b2hD3BHRAIV2f8Bmc+JJMg+buRIXx6fqiAIJz1PNlkbOe3xym6XhE+h+w2MF3AAiv0a8DBxB0FjRzFTT3T7y3yJdFWssCwLhpBtPGWfzysS/DZv8LgiMDIEoO7oSc2AwjdyOnPhuR5m+srbSQtFdOur8Ug8q/DBsxbU8L6VGhhTRR8XO1j/B/gvt/Q/QRWHkQTY3/xprcCtQc0dg1IOnR2vUfSqtBFtwcafesXL8bd4nBSXenzJoUP/bW47pTyBiwE6atF4PVP0L0LrxbNbffi+FTtnvuBwgdLuxCdmDChAmDS0tL91fVn3MpU0GOhEOKIIVPkhjIAIogYLaqTlXVm//85z/PoeUz35PYPtfX17MM8Im0I7MIkydPJtDoyS5TIDFVVVVltt9++52NcWYoNALqLzH05Imur88kBzMzAM1jjwDk14CyTh5qzi5dz3nFVqiFEPkTco3XOjOkBCDQN2FWiOypVIcS+jscH8hu3gchfXADrwDRH5DPPYQ5ixb5g7sYIZpCut6ium4I1mQPRCY+BurafKk22LYsoqAy412I41rky17EFV9vbNuBoYKznxoAsQdA8AtAx/g2L2orFPgMBBwfQRmv2z/i4rFzHEBwKbeEz9DRYLVxiByAlugIqJ4K6B7e3yDpEimIJSeaA3MBdozEdyK35FVcMd5fMy2ftxgouG2VYgSNnNq9Ro9Tp/nQo9cFgolHRLhuT7a3Ks6q2w2ZiM+DHh2fDTfHxM6b5TSbGY9IToRiF6fG6Tt30m6OH0FlCtTUYs2qN1w5rT3fpkfP+VP6UL8Owqf04Iv/2e6euunSQlZVR1PvQFXpkEh2cZQi/rlEMZGwqrKscLOI3NHS0vL6lClTmkMGIt3quLar7uEG0yqmEmSfvxjH8UkiQoDQn0Eofp6s/3cmvgw8xM98fB9kM7+C2rGu88Cx6p0sMgFCKQQsDdwKtVeibPpssEWS9sAJQHDR+AxqKVwA1SPDrAjdBQnhzy2F6cjnf4U5i5/1KobFpOuTRxOARPWsEjQu/gLto2AcJ2crDxBcl4QnVipWQfAM1EyBNt2PSw5ZgYnXZfHWjupKC972ehRgv+Pb3px8M2vQBAhJy2QDBDORN3+DNXfg8n0XhixEivDYCUAYV5tF7fgWB2aaowlQPR3iuEMkPyY8B3440T0gIbEeVi9DhT4DTG8BmDEpqCd2oYDQY5EzQVVdK0mUJQaTOeMzBRBarc6HoMl8K5AUv+7ktAsAoVBOWgxE98DGt7txoCEXD9luzdP1v5Q7/cV+gLABDUbHl9JtgFBVVRWxLDBhwoSybDY7FsApIrKfiAwNjomMlpLUn4vg1dVJ8ZtcLjd9ypQpLbR7ZmagF9yCYh9sujVNJkyY8IVsNnuyiOs1pqlOYiPM7+tvcyz2qa6P96VT+2dN3wERfgKD70AdiY51co4d51oJVBsg5gGoXAcrz+HSfVcXlASZgVhzcCUkXwUj5wDYN5AR8yEaD+l6WQ3oXYD5HS7a/61Pkge7uukgNMQZd2p9JYaYw52ZFED30DQZMqwPmQvV61GWuR7V+y7EdS9kMXMmnHFPdV0ZGmRvZPAjQL4FpbufW1O5oDfAbMJin4XQW1C5aiaqv72mY02F9tdNxUoYTIPFuU9uDbGnAvhJyKq0AELmvDdb8hyEJoi8jlhr0ZK9GVd8/aNC5qB6bd0dXT2vIv8+DRQTgKD2MIiQyLfxlxhayz2DUDFgLAyVOC07bQZ/AiCAHSN4Eopb3HxnS2uH+hxFPttP+239AOHTHoEuf7/bAGHixImZmpqa3MSJEyustUcaY34BuJRY0naWRPvJ4bxUVe8TkUtqamreIBegvr6e/0/7L3R5oT18Q4GkGEoM9IU4sb+LoYdPc71+zKkqenKb62bIHgzgWIgrZQ108sg+gCVYYFvsTFjchnz+Plx+4AeecU9pzxeyGNKwvQMXIsc7a+dPth9SmvhNAFMhuNmLDQVeQaH9sIibJ6hhtoK/ffZjX0GUvQSw+5NxWbAxavVPWOV+T+3luKjqXVxQH2HeQHHGPc69sYztjadA5KuAsnvD2x779AfX2hzA/jeamm/C4GeXFxdFpsolJICWNO8JiSZC9DvB74I21F7K2UevLBUuBEwt4vwtyJW+7MohaXGlIh5Lr97SHiBI9AsIDnMS2R40bbxtjgX7cApxvVCBplVfcSRa8kEEmxYAgs/qsCTG1sdZgE5Brvl2V05zz+cCeoJ3Q1yiVyPSdx/uBwh99yzX0Td1CyBQ8OiUU05xAOHUU08dkMvlfiziojLqCziVuyCK5KIP6hmIyKuA4zXfUlNTwz5pwwwCPRvW0T2lv9b3RgN67LHHDiovLz+Y2QMRoQ7CYJZDgooj39OfQVgPA1L8T6TNg+ojrMZOyEZ0d2R5aLjfLC0Ng3hYOo4LFPfCyE0o2f+1Qh3edS+U7Ru0BL7hBIC8T0HSRsZDcCksHoXa2yD5OpfydwCBV9uNjTcNEH4xY0eU6pmAHpGygGZZIyXIBIo8/QkNDc9i+POrfWlkfIxzHhkMZI+HEbZjfs6pPFKp0L0oKOJSzq/QFw2/q7rbHZPMCtQ6QnDnL3dP4X4caZMcCUNOxpjgEJl0SSTeKB6IqF6GlXoTrq5qKHSFFD+QvXtnGiCc/+gu0OwvQgvpiI0fILj5RSBsHZAdvmo7xNH3EOnJrg23lYPAjFFSxqHexA2Io2tw6X7z+gFCMRyh3k3BsO7ElSwTfs/kGdugn6TY9sEy+p81a1amtra25cQTTxwYRdGJAM4WkZFB+CgTAEIikrRCVetV9TZVfeSGG25YmmJFr3PEGzwiHED46U9/umkcx98HcLSIfIVtY/0AoS8Wzjr+DsdiH5t3WQRkT4aCRMORrh7PNj9PiOWBvxJi6mHjK33LX/Ai4GFrSr4L1Z/CyG5QNug7XJyH8vMuSib560ZIPBVL3nrXpfk9OdGdyEXfYTrdy752U3E0JB4H0HgK5Y4Q6TswmPWgwdJLzp5Z7b2Ys2RO4Zqd3bX9OSA/C1wZOkEm3ANeTxNUnoDY3+GiqhnuWosRdEpvcKc/tiVKzbch5ocAuB6o/x8AguN38HcyULwN6C9xcVVtcb9T9NMq7o1tAELdbrDR2RA9FADt4jfyDIKbXp4syz/ZcmqG0SBrMkRGt5JbafpFtrebq1Ss/CvyuBSXj3mvHyD0A4TiFlLP3tWtDEIxACFcBjcXH5kB96vqLcuXL3+qtraWksmFtH/PLrn4T6UBAqWgs9msAwhhQ6zsBwjFP8tP550qmDgzU0i7Zyu+DyhJanQa5IHJxKu3GvZp2DdgcSGWVk5zn+HrvOeGQ5tOgugk7y1QIOIlioucp29BcAFKPr4D1eNyPY+SU+2ZdEQclNkP0OMhStEkdjMkLb2MzJlN+BCQB2FbbsKyd/7lgAlT//9fe98CZldZnvt+/9qzZ3IlCQnhFm5KQKIojUVULhMu1htPPdWkBevpQ0oj5/RQsQoWtWWorUDAQmuPQiIVW7mO6NECFQlk5KoIiECChKsIARJzI5kkM7PX/53n/f+19qyZzGXP7EkCu9/2wZkka6/1r/e/vf93eb+W7UcCpU8DnqmHe4BS5NHEHK0lqi8A7j+hlatxyYkrAg5MjWRg5qAaCP0qNn7hngOQBD2IBVBmMIAZDAMQBHkKXs/D4hN+FDYx9keeVbDzB0XfIMXz7jgGpZa/C8GqJHpxJckJ3JtPSTHHryiWdd7dR8Ppv0CQF+biOCFB4DjPrGV6G5B8Fc2Vh6OOxgisXDu/z2p/grkYasdqN11ZF0EolUpn0IIAYL/cglAkCKq6VkRuUtXvbNy48Ve0POxOglAqlT4mIqwVcYyIGEHYTYOu9seGTS1BmzCyvwWdOBklx1M1Aw1zqV365XkC46n8txD8M/zmf8PFH90Q3ARb5h2IJvwVECRsp1YlbKsbC09m7mfw6d/i4nkdYROsxVw/5Etk9Q2+dNws+BLz2s8EhK6NzDIRyDM3NmoLPATgCmzpvDWkrTEdU8unwMmfQJTR7EFbJHsc35HBiPfBy3fh/U9w6TyanKkm1us+GLBt/QjCoCZSEq2iBWE3E4S25QkuaKXlRXHuvcehKV0MDZtnJAaxTkQeUMk/bYLHciiuwHOv3ResMsOqYeYZKG0OPfP2Q+oozMWqnAcE3Q1+8iDRIBGJDYB8M/RbUNtcUQbaK6PeqEkQ+GFbz192BKTpYij+IAsYjW8YYy1yYvkwFEvRve12/HbT6l4djTcZUTCCUPtSuJuurJsgqOoXii6GfhaE16h7UKlUvr1ly5andlHcQRXKogVh0aJF+6gGyd75IvLOzKRK+WeqPFoMwm4agEM/lpt1u4uL/E1ldO1zFMNJMr8+4154auTmyXHMxXMNIDfCV67Gz2UFjkALJjuqBP4vQE6JfnbphnrWF+CpjKezVyC4FT79ejyNF545KkwKOgO0BjRvPw2SME6HacBZTnuII4gmfPr4Pa7AOH91SFv7/LIjUSr/KURPBfCW6I4IwYkxYwMhpfMmAFei5bUVweIxrHJi2Elr9KG+gQnCeR2nIJGvBcXWGD/E+M88zmgMLAhtDtvevz9QPh2O7h3dNQQh6FdcSJLnA0GU5rMgOh+KAyHBaqRQT0EZxiKQMLwClZ8A+h/oeu2BoEkxLAka1WAewZcK1rNav2UEoVakdtt1dROEoSwIQEjFullV/72np+eRa665htHmu8zFQO2D9vb2EHC1cOHCQ5Ik+T8i8ocADsgW5zwl0wjCbhuCwz04C+IKtRT22BdpKIa0EMLKg8GXH2MRYiGn14NUMvQ78KUfAz17QNzHQ4BizLTh6a9IKLYC8iAUN8LhhyF7geOTIl6jNtsWhYioibDuFDicAyiLmdEawPGfFX8KVo+1gPwHNP16EDs6/573wKefh3OUPd4jy16g6yCPXWAbvwHpWYqvnvxa3Bjm1aBG+mYkCHmboWjraMb2po9H/zwOLZzsx5AgqMP2jgPg3SeR4NOhrsyusCAUs0L+5p6pUE8L0mmAMo2cYyAGjQa3Gl0NQZlzFRT/F116Pa6YtxFUxfz6gz0jCqodburV9O95em+WNRTicC6sLbjXCEJNCO/Oi+omCENZEFR1k4gs895fV6lU7rrmmmtY7nZXEQShZkNra6tva2vzixYtotjM3wP4gKoyICuTyM8MlZbFsDvH4fDPZm7+X/1XGRPH/x5EPgcFswO44TP1K4l+WgoJ6bOh0BJ6lgLlmVBlUCPT+PbOLA5Fl8QGiNyMSno11uBRXNPaVQ0Yq+lUPlCzi1aP5SVsLx8FST8FKPUMDoyBZn3SFTcBshyp/wYuOWEZzu84AU6+AmVxqjBV+H/FYLynALkC5fKNuPCY13tlpYcTIxogBsFV/giSzB82BkErX8AlJ/5w18YgFE6kJEGbcBCam06DVFirgOJTecbG2BEEbtRfvGdveDk9xqwoC2TtfBdDXIJisCIFs/Y4/CAk+DOIsDbDvjG4ldc4prrm2VbrobgB6pZg3LQnMxdHyE+tzaI0/JQb/oo8kDd7bD5aewtJDB3gawRheIh38xV1EYQashiY6/2Aqt6YJMktV1555ZpdmMUgc+fOLZ166qkpBZnOOuusE7z3i4Fw8mThKBKEGOjWK4XLE52Ve97Ng3LHx+dR+nkBI/c5QP4s0wegRSAWWwpro2wJqoppeiGcPwQu+QdAjg3XRG8uUwYZ8MW+Xg3Fv6Dn9avxtVPXgf7usRD/Caco5rarQ8/9s1BJPwxR6uxz7NFN0Ct4FDIS9EnA/QccboAHXSJMsHx7DGoMLxXNzCIsrfwAVK9CpesnoTBVzablfgThvOX7I5FTIfInUPz+oFkMwDMQXIDy8huC1kKoHbALBJKCSyQrtHX2zyZj/Pb3Qxw3bgZ8UiQpz4LK9VbqcDFUYzgUZz9dxriXFyBxXwZ0dsGVEYWqemMQlqKSXh5iQKq1P4YjaUNNrJxYUgG0I8F293EIvgyA2Qx5Si7reERXQyy3vZIWWqSVG3DpSc9mbqQEbbmFaidO5LC5Z/VHaL2YVJ6C8jjFPs0b8Ol3V0LQbCzUNXi2mhGEndhBY3PrURME6iCkafqntCAwV7tfDYZAd7MgrF+r6vdU9ZpvfetbL2WZEDtbByEvRx1W1zPPPJOyyp9IkuSvVfWQqskubiz85Fr5RhDGZlyN8V0KZvsvLpsJX6aL4dNQPSCnBZmcMRdQyjDfCtG/hSRvgfcXAiFljGZ4kojcTMvT2K8BXYye7u+FzXZMFvrCaZC/fvamcSjP/H0kDJSUD0F1fIyDUGZdcPxx7K2DyJ3o0f+HRGZDlOnDB0UpacYrhHoT3BhehOqtUHc9xlUeqr2YVNamYppjrB54CoKqqB63ow5CCPwsAfIiUvwr0vTb+Nq839VWm2IMup/pjZRPYfzJF+/eB979KVD5JERYyKg54FE9sdYbpMjIJAoOBUlsxbl3fRil5NJMBTN333A94+8keJsA/10k7mv4yvEvBJGrmtw8wxCEYqrqecuPgbhz4XAiIJOzMtuFzTaMC6qB/gIe/4T1T92CJZ+uoC0QwRoqeo62j/pbdvxMlOXtgJsNxRaIPIQNE57FkrlZEa8h0hCNIIy2E3bZ90ZEELjAFpUUReTDAM7x3s/lpGUFx+x0Xr2v8EQH3NrT0/OVb3/720+yBsPUqVPdkiVLONlqzzEfASSMPZgzZw5JQuX000+fOnHiRAoknea9nyciefGcnMQYQRgBtrvn0oLZ/pzlU9AkH0Iin4JwY5OJA0jSrkQq34VjvQ3946ibEDQI8tx+0oR1UOmIcsf+7rDZ1nwarwWFAqn50k9nhXoHioWZhG5edCmXeWYQ2tOA+xGE6ZBBXGmfYE5Wya0d3Bx+CcG34XAbjjz+RSyQNErtDlWcqdjWwmIdBaTeEzIsRD6SZYVkSoqBUOTzYz1Ub0Oq10Jevw+L/3BzyJjIT4+1QDHiazLs+L3VqwRTZr8TJTkP6k4FlG6lXtmgeO86sxgYd1LIlvj88pPR5C6vWnEC6XQknzT18xCxBSr/BfRcidfdg/jGT7dG33+dOfnFvgwWnuRUiA5g4Ynib5nlbA1UfgTnr0Ol9BAWH7sF81l+nNVAhhHOGk2/MGh47UpB6wUe3XfOgG/6CEROi3Ehuh4Ipcx/CJQfDG0p1tLo/zwjCCPugV39hREThLa2toQbL2sxlMvl41VZvxwniMi0zGpA8z25QggAzH5/2Ht/SaVSWdbZ2bm5vb1dqabIl+XvudphHS8f7sUKkVnlR9Z5cJs2bWru7OxkcBpPZPRDz8iyFvJH5e9vFoQ6wN/5X+1TLbEF3ckR8P4TEPlULIYUyr7SdRAlaVXXQdzjAE/reFuUZs7qIUTxH5KFp0LtBRY62jBuZdBNqKm0c61vWyAIVC1sdn8GxVlQPTgEv0R3R6+ao+JxKC6GuCmAPycsuPHEyoDGciQLekeweHQ1/xyXv5fy0FFgZ6TxEnnUfOdxByNJ/jJKUAezPdOQiY/AhUqXDP7shuB5qLsZqlfj4mOfD6b/Iy4QrGTwYAhIy+dwreAMcF3mAmH1zVABki6arPCVSFamW2cX1opMWbK6WdbjYuirt3Bux3FI5OJMi6C4VuRlxhmr8gi8XI9S8iP8w/uitDfjB/Z9JR19gGv2qNA/7SVsm3kYHM6E6ukQmR5jbEL2TVy3wnlMWenyRSh+Ap9eh3TaLzHxB9ui9Da7huSHfTSSwmP9SWUeN5YFH9LSNm3bLMC3QoSlwo8FZAKgdJ39BiK3wsvNaGl6DBe+Z/Og49QIQh3zZdd8dcQEIavCmM6fP788ZcoUpgsydfBUETk4Y7TV1MGMHJAkUA/hFu89XQ0/u/rqqzfmBGGAok3FNg1kYRjo30NZ6QULFuSLBqZPnz65p6fnMOccS8N+PDMX8jpOcqY2Fu9jBGHXjLf6nxIWlRMmY1vyQTj6aHVOlSDksQjc6ISnvGDCnxAzVjISEVMLeVK+D+qXYFvlLky9d21c1Eex2Q76RgWrxwU/m4xt3R8IgWfRnM/IdG7uWbGw4FP+OZB+BhWZgZL7akjli8JFJDMkCNshei1cejH+4aRn+5aHHgmsBfEpRszD013zmazqJJ9XqoYR5yd1RQVOfg6v/4qW0nKgez3Q6kMp7WrVy/5tCNNriPmbB9Nlmx3/uKA9zt+phzhM6C6hBQdCe+iLp5jTYRDHlM+8rkUx2LleC0JfF0O1aiS1CJTEKZKPXv8/id2rELkDim/hmeN+FmSuuXHue0ta3ZyH7JbB4hUKxDKogFLcTc6KqZ3BvUH1z5js2Fvhg+vX81D9AZDchp7KE5iEjVixVgPZCimUGWHo7dwarbcZcau+S0cZXc0HQbtPBYR9w9om47JILhJ0xmk8B8Fd8O4/Ifowmo9bN6DbwwjCSCbubrl2pASBjeRkYWaAe+mll+jbP9E5x5QgirqEtDNVLfXdf8NJielZy7KSz7848MAD1zG7IAsSDKsFycfatWuZfRDAWLFixQ6DmK6DHCn+e57GmN+H7Vq9evX+IvJe1ZAmRFGVt6rqhKxNuXnSCMJuGXJ1PDQ/+fIW2447Bq50GcBo/+DHz+W9s6C1cALmIhr7Ofqs6bPNizt9H+IvRRlPhM1uZ/htq8GKy1uwNTkSDp+AKJU8mWYb2xNJDefUixDcAiWh0Q8CMrM3EC+Qmxeh7t+QNl+NS49+tS6CEAIN51UQ1B5DiWHm/M+FyvisnHQ+7+JcidvvJijuh+BmCO7AqtdW76jcSLGmE1woOoWHgQ2LdgxQm9MhwW2AucCG5zzaF+R1H+LAYJ+d+5MZSJqOgiSnQPRkQFg+m0qPmY5EgcJktVaqm/iohJKCEYS1N6LvPmgRlGmk/wQkyGS3ZC6q3PLD6yqAfxLqvoXtuBlT7nqttoJZNYz/YMlakIYKn891Hg5xfwTxCwAw/oIWI27CedXNjIYpK3FyY34wuM5SvQ+bJrwQLGNhHpCQZP3DJnTQnto6NElor8YyZFLQ901Esv3t0DJdH5S7ZntopcsL7+X1Qti+l6DufqjeAnF3hMqTseBYb5aFEYQaBsPuvWQ0BIEtDkGAK1askMmTJ7+tVCp9TjUsfEwfzAlCWKj5ybIFOIheVNW7VPXHqvqo935TV1dXZeLEiVtYAKqQAlkzKmwHJ8sLL7wwvqWlheqI+3DT8N5/UESOykynMQo8ZixUrQyFh5gFoWbEd+OFRUlaKs6h6SIgVPZj/9JXn2elRJN3PGUVCELIIWea4UYIlqKi/4LF814a29iDIj4Fhb4Nx87AuPKHIPrZoMlQLMQTxyXJwrYsz4Insnwz4r+9DsjdqMh1SPDjusv85hsQTfjb178D8NwMWUGQwkx5MF6eGUIUOXeJWycgD0DxPQC/QFdlDZq2vI7xXV2ZYFOMqbyQ2Qf5iXWA8UIXBT/5NfNXNmHv37RgkpuAdOI0IH0nHFgue16oatib6jnQ3M3dG/W4GPI0w0glQzXNpmPgkjMgjAeRPTIVzDwTJrdYbIByq5UfoQcPwpeoarkNneUK9p07SOGs/DQ/bMZDlM+eM6MJW5uPRNJDV+7HoJgW5cWzCqG9lTc5XhgjwVTyx6GU8Hb3oKnzZaTjt6Clshlt8+imih1Sy8rPeIP99y+jOW1B2j0NKB2GEk4BKOIlJLku3k9o1YjY9cZGcKw8CuB7aE5vQBsVP/tl0hhB2I2LaW2PrmWYDHSncNqnMuKZZ545U6IvmGWUeVKn+b7/RM6fQx/nOlV9DsCvReQp7/0q59xTnZ2dq6+99lqmRdZi+grkg9aCVatW7dHS0nJAkiRvFZF3qOrvi4QTB09gJCyhLVla42BTwwhCbeNl917VR3HungMA/Us45eY2K/OdczMbqI/zMcV/5Unrcaj/N8i4G3HRe9bhppsSLBiqjkEdr50H9NHMu711Lpz8IxSnFAIrufEONA8ZUc+Ry6yLl4O/W6UdPaXHQ8nl6qlwNG3LXSltDhd8cCK6e44H9Byo0qfM59EFU8oi53s34EhqXgfoZ9ankCaPIe3+FbTpWWD8GqzbvKVXS6KGdpGo7DdjEsqVfYDyoXDuHZCUEfGHAjormver6oGDzd0xIghZe3NLwnn37QNXOQsC6i5wLaEsNoloLpOdBS3Kpsy8/0to6SE4ph5ufw2+eTt6qH5YcSj53jWtNCHFxmQ71vxmM9oXcD0c5FNwUQVXkJ4Ih9Pg/ckQ1ucIrieS4gQ+WMoKO79uDSd4xtl4fQIijyJ1j2NLz8uhIueQMSuF4lFfeHgydPOhgLwDiTsS6t8FEcbGkLQxVqVINvJ+yOqiyG8Bpu3qd7Fhwq+xZG6uP9IbM2MEoYZJsnsvGTVB4MmdLoL58+ePmzJlCk/qC0SEZjCe4PuYfGlF6Fe3nW/N7IbnReRJVX2KA1pV1yVJsjVN027vfbeIdDvn+DPNSEeTiDR3dXU1J/FD89ZMVeXJhwFMsxkLkQkh5c/M2X7xXfu/txGE3TsOa3x6iJ6PZuC2h6Zje9dHIRXGwNC9NTFLdczPCTTzAAAb7UlEQVQ21cItqXsQ1fT5P0Za34Yedz0E92DxsZv7mJdrbEnNl3HDoa+eJuO/Wf5WSMLcdvrUW8JJMBJYjkf+zhgAtjGX1I0WLy706i8BKj/CRSex/aMLTuzb6FwxUvHlOw+BL7FS5ieh2DcEv0X7H7+Rk/18TjNwkTGh2+Dci/AsO02tBLcGvrIG2rQO6PZwksIz7a3ShUQkhj82sc7DRKS+HLZaTRgfsg8UsyBKdcR3QoTiRCzEFOdvdBjFZ4ZPIFPF+TuGBKHg/6f7ZQ9hMauzATDWKncFRUskTfYBntAe/k4T+lPweAIu6Gt09cYKOPYXT9sKp1tR0eeg5Qdx2fupC5NbLwY4GOUWKHXovn0m0uaT4BLGsbD6JrN3snbkQYssRKYCFzIu8jRz1idZAS+PwcvT8JVX4LAFqfaghAqSUnxuWsmodeJQScsoyVSozIK4t0GUbhYeumZkMSpUcoxKc9VYiPAXxIiWsBeguBXQa9GivwzurGIaaT4OjSDUvIzsrgtHSxD6sPn58+e3TJ48+QTn3JezUsohTqEqYJOd4POXLMQCcNnYFgvQgDLMdDOEhVJVt4gIJx0ZOtk7fceTVXWqCPOCw5/5HP6kpYCLDf2ULDlNK0ZuNRjIItHfwmEEYXeNwBE9t5CDXa16mNB6RSsCTzW5WTfXt4j+ziwwNXM3vAAvS0NA1/OvPRtOcXWdxod5gaLVI5SAHvcpiD8d0MMA6c3njzMqntHj770ZDqGgk5yDi467P2QQrDgiEo66PoXMkBiLcDTELQDSjwGyVyYmxbkTXQ15FEegDKLh1BpiOmQLJJxYqWjZDRWauTn5OuGTFwHdBEdTdHizFqjfH8x4Cm8plCzjnCVZGgeRCVAtZ5oPMYYkx6W3OBPN2TuPIOS1PxhwOL1rDny6AFBmUfDkTOLGd+61+gSiUA2c5BrGgw+zHOImGtofCB1JDteZjVD9KXp6rsLXTl45fO2PDAP2+9b37Q1pOhGJ+yOoHg8IS17ncR7EuJ/9jG3ztDSwwNcWwG0PbiLBOnhhpV1qFWTfD1YIolyGKFNtZ0ZLRdDtmADNrLF8SqRt2Xt5zSqjZy+rL0PxfTj3XZRnrQQO6o5puAMEABtBqGsG74ov10MQmFYYNlpaEhYuXLhvqVQ6TVVpSaAKHDftnN0XWX//vxuoDfk1Xaq6TSQE5SSZZYALSiAA/T1pWbxDWDizDIrIzyNhiMM/m7L9wDWCsCtG21g9IwYfAud07IGWhIWN/hrAwZkPlk/pSxCCPG0wnXNzeRSptGFzemc0t+afYX3Co2x9QaueioATu46FMm9cqSHC1ODeBT4+IR+j+U8q5i2D81/EV+c9EawduUVilC3q97VoSdh4wmSUk1a4IE3NuhGcZ8W5WrR05JaP/kQ7nq7jhyfJLRAq/uUZQ8oUvYkQoZZB/q47bvZFmlTooOwrdL3QxEEzRj6ncyvhKKs5FhEpxI2sO3oiJoz7PUjyPwH/UcDtGU8d1YimInHqT1zym/a1cIR4Er0DlfQiXHrSI8NXDy2Y/Jmy2H3PTKR6SsjsABUwgxsmz2yImscBmvD4uO4WCVXEli6k7YDnz95A0uiooG2H/cP/iv3b1yIb75OPURInPul5qPwQKW7Gpk2/xJJTtw6ZOmwEYWxm8E68S10EId9s6W5YvXp10tPTs3dWUpl51XNUtTzQRj7A+2ReiGC1yvb5ahpi/wUkRD5mFRirq/sAZIGcoGo9EJGt3vvXJaSMhTQzWh7CczPNBk6UupQUu7u7Ked8uoh8oLD455YUtrVHRB5X1aVpmrZfffXV69va2kptbW15FPCAXU3hJ2Z3dHR0VP7iL/6CrpRLRYS6Dmx/IE90w2Q+Uk7qZap6ztKlS1fwu7zprq6kufPGbF6OOVO9+8JdH4FLmKB9VPX8HUzShU84jZMgBF/wHfD+b3DJib8Kmy0/NQsNjfatskWeZtZDlu0HLZ+GJFSYZEXKNGY8ZnE7vYsuz2oUVHoeih8A/spQzGnMRYoKbpvP3XkgSskfQ9ypEP+2qOCXbTI5poU5VeUyuaph3JzinItWmcHcAb1Wvd5T7wBrUZXTc2zT0kizPRHi4SOPL+q/AW8E3HJ4/8+1l3vu36/VYDrF+T+fBr+VipMLIEJXVpb2GG3suXGlcIfc9RD/KuLRS2BYKlr1dqi/LIzBWsuL95Hvvns/pDg+ClzpewEGZgvXriw0t5chVAln3MBz3KO1YfDVP0/pzAlf4cr813Cr6BaL/bIGHrcD7hq07L8CK37RE/UsqpkQO06eHQiCPwdgFU2WZQ8W5aYsCJJtJwmh3sM3ge7rMO7klwa1TIx2mg75vVqLnYVxT2sRJzWDWJfByz9h8fEPhr4uqmXulHaO7U3HgiAES0Kesvjnf/7nb0mS5KOqoVzt7xWqkeUbcRBPqu7sEtYR9d5Hk0BfgjDgAjMAQSiiElSalFK2vb7dzar6mIg8kaWYcaJzEFKzIX+mz8jDb0TkK11dXdey+uSiRYuarrrqqko/QlJtfh6LcfbZZ0/eunUr3SyniYTSwtOz+zN+gqycuznjKZ7w3i+l/PRoCYKIXMKI5gwHWllyghDypFX1DufcOVddddXKhicIrH6o+jmInpiNtejeyt0G8We+mLEc9PfRo5fjshOe33UEoZBGxxTDLkfrwQVQHJW5EnJRoiAtlu0sHDMxtdDjRqT+1l6pY2YBDKFxP7I1ItuFSbxWNuHg1w6GS94PklzV9wYVyqq4VGbtoH877EHZHhk1Agpm5/AK3Dxzq0PeouIpNPu7otEhfC2eTOP9Mr+/UvXyfsCthQv1EQ6D6rSsJkGMzI/1CWj8ZjnsDnjUQRDi1h4219blJbRiOrYmx4QSzA7UsWCcVcycySstDop52ChyVw2tH7+D+p+gUrkcl538WM0EoWqiz3QspmM6fCdFwI4H8AeQkBkT9QjiYpNVfRwgYyEXFBs8lyEKj0VzRHbDwIXyfmG/Em8eTl4G8AhEO+DlXqx//algOWBK5XDiTDsQBP0rAP87HK40EEIGyuZV9fj7bwD3DfiuG94QBKHH/w9ocG9yn6ObrCdzv1BLhKR2AyDLkPZcgcUn/fclCPlkIlHo6OhwBx988D7lcvlk7/0fisiRqjpdRIIOQZEc5N/LN+k+LLw6znsPG/20FXKVxj5TMycYFEQSEZqQqb/wJIA7ReQZ7/1JEvTnQ3W/TKgmMGt2KDfYURdr2rp164mZm4UEIfcPFmMxOKFWquoS7/0NoyEICxcuPCxJksVFC4LExbFqQVDVZTTAN6wFoVhT4Px7ZgP6SQhTwJR52eVYYCczu8bRwQWN0dsPhc026f5+KJUcyMOYbraDb83FIK3z7j4aDn+XkRrGIfQXveF45Aa0Fio3Av7f0TLjV2ibw5idvrnkIyMDg1xdiJhnRsf9e++FFjkmmtVxHET3BVwTRKPKYsZg+s3Xojsii3DM/PPFp2bHgMJfZafwsKtlm1segxFqVrwOwf2opNehlHD+MJ2aZJAaLHkti7yPeYNN8EKCcAVeePXeEKsxWgntPK2WVO6Ld05DWj4Ogg/D6ftjKWgdH6wkkUoMfNiKMQrh6BNf0G+Al9uR+Evx1XmP1k4QMsRyq1cQqZqToHPjLLhQDOwPIO4tUD8dEgJ28xitgfo8t/L0Lq75Vb39M9jhkesZxyHjGVYDCbUObsf2rfdjSvNaXNCaYgEc2oPrYsf7F1sztAUhZo3kd4h1S16EypVIeq5D04m/3a0WhC/ddyDSyieCtolmWhl5vZcYq8IRsRGQO5GmX8PieT/7b2tB6DvZY/rh6tWrp3nv3+6cO041nO7migglb3OzfhiAedxAtqEPPaCKK1J2wshiC2IOdK+9j0GOq6lOJyLUXXhEVV9MkmRP7/0ZEqVlGdSWEwTeOS+jOiqCsGjRIrot5qnqJ0XkpAJByM2LfFeSFlZguypN0+vHgiAUxHayXPWwGd6pqp9pTIJQNV/HsXL+3TNQ8ScjcYxFOKFadCieXvM1iibV30HdDyGV76Iy7Re47J2dvemFOyv+oDBgizLO5917GJz/NCRY2ehm4GKehmj9mNmQEQR5EUgvR9p0dW+2Ra11F0bKHApBZNyEtj08CcnmWfAMXgxFpt6XBa7laX58QO4D4Mk4hTKtbwePYL+GZJaH8LeBxBWzA4qmeAYnPw4vy+B7bsH2rhWYMIGqfVR9ZEXHGZmRvBjDEWMQKBTkksux6uX76iIIfVqugrP/axLGtxwMyDFwbh6g7wGEFhb2X9Uf0u/MPoALRG6Hdi3Gxaf8csQEIY7pDGTJLBzladjafQCSEjUtKAzH2IS3QGVyAaNojY0OEFpa6NoaYL0NHcj5EmXL4ydmAcX/tkNkFYD7ANyNtPI4ZOtqXPwRli3vDXisRf57pDEIwG+h8k2g83q0fPDF3UoQPn/7wWhq+TggFD97JzTE7MSCcL2psK8D7k4gvQwXtT5gBCGzR+Vm96xew6GZNsG7WUlRRMj86dskWcgzD3J3wIhXtWzwktFSQ4H/rSc5UNUnnHMPdHd3P9zZ2bmWN6aoU1ai+k8ygpDnIeeCTuzkF0TkH7u6uq4fiYth4cKFk5xzx/BkLyLcqOhi4ImHgya4GLI/s7rl9ZSeXrJkySa6AApqkIO9v2ttbaV1prJw4cJDSqXS+Zl8dLeq8p3pYuDkZNpni4jc5r3/+6VLl67KCleRtPUGI40U5Tfc9YXNjPr3Uw8/HC5YhT4G6BSIbo4+fW78PgGEuPwGqXwHmn4Pi1tfq/rKd9W7cTFsy2oWnP/IDPhNJ8Gx+BCOBnQiIFHbIOyb4UczmP4rcjma/W0hVYzm7o6dWWo5syTQajrnwliq97P3T0ML3oe0pxUOh0MwEwJGt08OWQeeKYkhqn8gEaOh0M1PsTSF87RIax83mU7Ar4fK84D8Alq5BxsmrwqKgOcufxcS+QwgH4CEAE9uZDGbI7SBMSZBl6AD0H/FM2vuDwShXtx6Bbo0iBftN3kvNE98FxL/Xqin1PeMbIy1QHQ8PDfXMPay9w9uhszaIXy3DviupVh8ypPDZzEMBmGbw3xms+T6HW0OnzthGko4HC55N1SPCimj8FOgXBco9hRcEJSrbspSEge+OdcSpQx4iG9izQ+uMazUyAwMpnA+gjS9F1J+rEpc0eFwRKtiQRYbVNO8Ksh+n79sT6DpjKg7ganw2AAJEulZVdEQc/I8Uv0OetIf4p9OXJ1lh4y8FklNbRvgomIxrS/duR96SpR7pxIp02DZvih0pqyCGsrKb4TIvaj4b+FSWosQxa+qfTbahuy6741JDMIgzc3VFpunT5/ekqbpJBHZL03Tw51zbxGRWd77fUVkr8wFkUfN9ndKDnh7VaVvn34qphVRfInCHE8751aKyPPOOboWNuy1115b29ratLW1NZk9ezZPa6wbcSqfmS1KgZJnzI/E5beq+s2Wlpbbv/71r3e1traWOjo6hgoiDCcHkiGKNTnnqAlRLBCUazjwOan3/hUReUBEHl2yZAnbxviN/JQxWM/n7N2fccYZM5IkIQmhxHAXMcgyNngPEpxm7/0jlUrlB9dccw2V3Yp57LtuZO2KJ+UT9rx7J6GEY6HpiVCZGFO5sqOs1wTOtQRzqFZuxUXzHtnlC0t/LObfVMZBe85CkhwNcLzoBAijysNQjP2lIXPnOfjKcoy/++mwWUeSsZOJXj/RJqb9HTJ1IkpuCnowE67EmiuHA/JWQKmZQBGfnDDkiqWD9348w+YWP2ZoMJV5LUReDj5mdU8HESZNX4Mkm9Czx9ZYfKjN49yfHoqSUPeCG/OUGAwW1AN5T0oPU39hM9Q9DHE3ovy+x8IpM1eOrGtMEhe6oy5g4J1gTcd4TAQ33+lIStOhujcc4zWUByC6Kkl8shO6B3wgrB6inUjxayBZjsXH0srJeJL6Ykp600GBz7a3oDRjDzjdE6nsg5Kj4uEhkFA+nFkYdH3S+sIDWqkPUY734fjiurom2+DWQ/1qQJ+muB185WVoaQM6127BXvO3xiDE4mck1riCa6tt+UR0ueOhSiEoEnoWecrmQiBX3B9eg5d74OQRXHwszfc1W5zr6vrqlwsHE4pXpT1HwiXvgpMDQnquUO6ayVJsL0mW3wYk1PjpwCXH0TLNYCQ3hvFDY/NaQ9xlZxIEbnwMYKxufmeffXbzpk2bpjc1Ne0lrE4GTCuVSlPSNJ0mIuNYw2G4N86LLDHgL9NK4MmDQYjrMrGll2bNmvU6K04W7uVYHIoFnLq7uw91jkptGE8hpj5DW4SbK5XiHtm4ceOzWeR/0XQ4aPN4Uuf9vffTvfcsKd3knNM0TTVJkoAzf880H1575pln1tEiMNz7Fv69SkSccwc2NTVRwTKtVCrVfHgGK5ZKpaS7u/t3W7Zseb69vZ0Tvab2j6Adb6BL85S05SVs8jPRUt4fnpHPlV5cKdKDUgkV34lEns804fkOuxeXs59uxvhXZ4aNRVLm/sc2s71OFZp0w8tGtFTWoG0ex/iuXwyZe99b5Ien5wRvnTYFUmYUPQP1psIpa0dQ2W9KqDrpWFXT9SYq9hkt9ETw39Ik/PS6DeLWw+sGSLIeomvQ1f0qOvdYEywG1Qj/7FT62R9Pw/gJR0B1f/i0BV4ESWbWTtVF3Fw3En0FqKzEV09iUOpYiEplazvrNWQVDfP3Imlbd3QTmhNiMA3lpj3gk4Thz2hWhU8FLtHQ1pSiRD0VOGxEy6TVaHs39SPq/QjaVHZMfaVL5JkyJr0yDT09+6CpaQa8nwyPiXChr2gB4rgr7AGe+1sF6rbA+w1IHC1x/H09UryCtOnVoOIZPln6LmW1L7iArqVRjs9sDtMSOOPwvYFkP1QY69JvDpPoi25Doq+iae+1WTxOvdiN/vtn39aMSUEWfE9UMBHiHNRH8h7mcEmRbk+RNm1Ep38F35jHg+yb7rMzCUIORrAkMHhxxowZ+SBKpk6dWqpUKklzc3MpTVOmSEpzc3PN7enq6uLm6ydMmOD5c9u2bZXt27f3tLe38+QVSj9nP6sEJYvoL++9995NmzdvduVyuc+g7u7ulkmTJvlXX311e3t7+xAyqAP3cxZ7wQ26kIff99rOzs6guVCDW2GwwSSLFi0qTZgwobRhw4YdJuXUqVPlpZde4v2Jwygn7ZttHGfpQwehxHPSjp+DgHVPKl7dUnlDmfcYPPfCIG1et02x57gUbTvTpVBTP0edBFyAUBWQIk0MjsO2EtatKSEZ5yDNDsnmUhSzHMGna5NiwqQKmptSdG5K0ZVW8OqHKpgDjZUi+6XJkaCwNsDkjU3Y3jTwWtEySSGlCrC5O7hldsonE5kKWKzUSKIuFCzaJ0H37GTgMZg1hP3atZfHVXMpuDTG8zNrV95XbZQQO0Kw98QS9twrwdbtCaTFYVx3gq5Kgp5t0rfPtgBN4zQoYW5LUuyxzaNzvxQT1/MQUumt4DlM+uLoMBe0Lee6Ofgh8Y0zJyJBuonC2isTYM3A7rW8r0OFz51t+Rsd6MN9q+YNebgbDfPv4QTf3t4eA2R2/ic3yQ9nut/5LbEnGAJvegRy8/qwrrAxetNcTpmn9Uxae4zuPHa3qUo+R+nvN8yn4AqJxoGxbFsmTvVG7pc3TEc0REN2FUEoglWtBMnSzatXr667Dfvuu6+y9POcOXMYjDccKQgBf7Nnzx7wuatWrdKOjo48v3mknVx9t8G+WGMbh3wuLRWspDnMM3YFERspPjvx+kzIhCfPgT7hNLqzMgBG+1pDtDm0t585e7SPGdPvFdo8Z4YArcDqhyPmc+eO4EkPh4rQ4bNqs2LG2riRta9kWeLBxy6tCGtnCGazpPQAn/xe/ctIj6BlI780l0Nm1YNBxl9+013arxlZaLsAoV3ErRWI5bgH6a+Hs07Zd66GWM8VNfbLyEEb4Bu1zOEhhJfGpA0juUkt7X0jzuHa37Huzbn2R/W5ss9zc3fAaO6VEYLiV2thzMO9dy33GKq5O/v+fPZQz6i3/aPpijfAd/oF2PUdcm9QTN6MbSaw/dqdl3Ae6SjYoSx0LafxoTALU2M39vVwbdsd7RugTUP114CluncVpsPht6vaMZKB/Gadw8O/43Ab2fB3sCsMAUPAEDAEDAFDoOEQMILQcF1qL2QIGAKGgCFgCNSPgBGE+jG0OxgChoAhYAgYAg2HgBGEhutSeyFDwBAwBAwBQ6B+BIwg1I+h3cEQMAQMAUPAEGg4BIwgNFyX2gsZAoaAIWAIGAL1I2AEoX4M7Q6GgCFgCBgChkDDIWAEoeG61F7IEDAEDAFDwBCoHwEjCPVjaHcwBAwBQ8AQMAQaDgEjCA3XpfZChoAhYAgYAoZA/QgYQagfQ7uDIWAIGAKGgCHQcAgYQWi4LrUXMgQMAUPAEDAE6kfACEL9GNodDAFDwBAwBAyBhkPACELDdam9kCFgCBgChoAhUD8CRhDqx9DuYAgYAoaAIWAINBwCRhAarkvthQwBQ8AQMAQMgfoRMIJQP4Z2B0PAEDAEDAFDoOEQMILQcF1qL2QIGAKGgCFgCNSPgBGE+jG0OxgChoAhYAgYAg2HgBGEhutSeyFDwBAwBAwBQ6B+BIwg1I+h3cEQMAQMAUPAEGg4BIwgNFyX2gsZAoaAIWAIGAL1I2AEoX4M7Q6GgCFgCBgChkDDIWAEoeG61F7IEDAEDAFDwBCoHwEjCPVjaHcwBAwBQ8AQMAQaDgEjCA3XpfZChoAhYAgYAoZA/QgYQagfQ7uDIWAIGAKGgCHQcAgYQWi4LrUXMgQMAUPAEDAE6kfACEL9GNodDAFDwBAwBAyBhkPACELDdam9kCFgCBgChoAhUD8CRhDqx9DuYAgYAoaAIWAINBwCRhAarkvthQwBQ8AQMAQMgfoRMIJQP4Z2B0PAEDAEDAFDoOEQMILQcF1qL2QIGAKGgCFgCNSPgBGE+jG0OxgChoAhYAgYAg2HgBGEhutSeyFDwBAwBAwBQ6B+BIwg1I+h3cEQMAQMAUPAEGg4BIwgNFyX2gsZAoaAIWAIGAL1I2AEoX4M7Q6GgCFgCBgChkDDIWAEoeG61F7IEDAEDAFDwBCoHwEjCPVjaHcwBAwBQ8AQMAQaDgEjCA3XpfZChoAhYAgYAoZA/QgYQagfQ7uDIWAIGAKGgCHQcAgYQWi4LrUXMgQMAUPAEDAE6kfACEL9GNodDAFDwBAwBAyBhkPACELDdam9kCFgCBgChoAhUD8CRhDqx9DuYAgYAoaAIWAINBwCRhAarkvthQwBQ8AQMAQMgfoRMIJQP4Z2B0PAEDAEDAFDoOEQMILQcF1qL2QIGAKGgCFgCNSPgBGE+jG0OxgChoAhYAgYAg2HgBGEhutSeyFDwBAwBAwBQ6B+BIwg1I+h3cEQMAQMAUPAEGg4BIwgNFyX2gsZAoaAIWAIGAL1I2AEoX4M7Q6GgCFgCBgChkDDIWAEoeG61F7IEDAEDAFDwBCoHwEjCPVjaHcwBAwBQ8AQMAQaDgEjCA3XpfZChoAhYAgYAoZA/Qj8f0wL1oJyzvW0AAAAAElFTkSuQmCC;" vertex="1" parent="Nt8Wr1XZAe8mfdTWKBez-67">
          <mxGeometry x="26.75" width="146.5" height="97.76" as="geometry" />
        </mxCell>
        <mxCell id="Nt8Wr1XZAe8mfdTWKBez-18" value="Airwatch Hub App: &#xa;iOS/Android" style="shape=image;verticalLabelPosition=bottom;labelBackgroundColor=#ffffff;verticalAlign=top;aspect=fixed;imageAspect=0;image=data:image/png,iVBORw0KGgoAAAANSUhEUgAAAgAAAAIACAYAAAD0eNT6AAAABHNCSVQICAgIfAhkiAAAAF96VFh0UmF3IHByb2ZpbGUgdHlwZSBBUFAxAAAImeNKT81LLcpMVigoyk/LzEnlUgADYxMuE0sTS6NEAwMDCwMIMDQwMDYEkkZAtjlUKNEABZiYm6UBoblZspkpiM8FAE+6FWgbLdiMAAAgAElEQVR4nOy9eZxdRZn//6lze83SSWclCSRkYUsQURB3I4IDDCM4QlDIqN+ZURx0ZsBtFBSbgOwI6AxhQH0Nzk/n+3oRnRl/P3dEZBOEsAhJWILjqMwIBhJIyNrdt35/nFN1nnqq6tx7u2/3Xfp5v17d99xz6jmnzr1161nqqTqAIAiCIAiCIAiCIAiCIAiCIAiCIAiCIAiCIAiCIAiCIAiCIAiCIAiCIAiCIAiCIAiCIAiCIAiCIAiCIAiCIAiCIAiCIAiCIAiCIAiCIAiCIAiCIAiCIAiCIAiCIAiCIAiCIAiCIAiCIAiCIAiCIAiCIAiCIAiCIAiCIAiCIAiCIAiCIAiCIAiCIAiCIAiCIAiCIAiCIAiCIAiCIAiCIAiCIAiCIAiCIAiCIAiCIAiCIAiCIAiCIAiCIAiCIAiCIAiCIAiCIAiCIAiCIAiCIAiCIAiCIAiCIAiCIAiCIAiCIAiCIAiCIAiCIAiCIAiCIAiCIAiCIAiCIAiCIAiCIAiCIAiCIAiCIAiCIAiCIAiCIAiCIAiCIAiCUAdUoysgCBOOf/zVO1AurwZwMIADodQsAL+Dxn8hwSMoJV/DR4/4rwbXsr6c950lAD6EsnoNEr0EwEJovACo/4ZKnkZH8i1cc8rPGl1NQZhIiAEgCOPBHboDv3r0bCicC60PBkB+feRnqBSQJBoaPwLUF/B3r1o/7nWtJx//9tEo64uhkxMBraCU2+so596fhlZfRt+0m7Hm2KFxr6sgTDDEABCEsebLDx8Hja9A6+VM4bnlvPfJPqjkPPzt4TeOfSXHgL/7zjlIytdDqy73vu0/cs863ZcaCJugS3+Pa991+/hWWBAmFmIACMJY8U+PHozB4esBnASAe7twlJ6znzGsv47LrroMqvQ8nv9/do5llevG33/7JgBn2/fmfoP3qtxoiN1Ofoiu0nm4/OSnx7q6gjAREQNAEOrNTeunYaf6HBJ9HrTqtPtVpuy1Lvb+FfeOATz3x0txw9f/L1TyMhZPfh4P3Tw4hncwOs779sdQxj9Zha9UausAsEMAGq73rxTIAWogDQLJ9ejouRRXvvPlcb8XQWhjxAAQhHpxqy7hf9d/CDq5BMBsR9HHFD5X/FqHDQWFQTz0q7/Af/6/G4BEozvZgrMP3oo1a8pjfl+18PHvHo3y3nuhky7H6+cKnyp5q/zhGgfu9hYkpQvR86dfxRrVXPcsCC1K0ugKCEJb8OX1x+J/Hn4YWv0ztJ4NIK7kzR+Fl/WMB9WJFYf9rS2/D7Ow9tdLMPOvpo7B3Yyc8r6LgaQrfZMpeqv8szCAUe40FwA637SfAejnNBvDw/+Mnf/fI7jg+8eO8V0IwoRAIgCCMBque2wJ9OCV0OXTg4qeK3L+nujFKuQ1fnbnifjZXb+HSjSQaGAf0IXd6Jr0R/z2G3vG+nYL+bv/WAoMb4bK+pVQuJ/PfFBgQwSRY9Q4SN9/G4n6DK74s/aaLikI44hEAARhJHz9yam4dv3l0Ps2Afp0V6kzL75ofF8zmZC8QWuF1xxxWqr8AWAfoBKNwY5u7Nx3AOa+fw5WDnSMyf1Wgyr/NRIo9x6QGwJ5QfKiWBmVK35Q5c8/Q3U6ymoTPvODy3HlPc0VBRGEFkEMAEGoBa0VvrT+A9i2/Wlo/VkA3fZYyINPZeLnU7HtwDABAHRPOjTdGPJPWt7Thyc2L8SiD06H1uMf3VPlI9MNDRvSp6H/tBDb1sFdrjw9SIcS0A2UP4sXX34aF/zgAw25Z0FoYcQAEIRquWb9W/Cl9Q8C+htQar9oOQX4492BKEBe2N+OGQ1dHQekoX8gHwYAoIbSbT2ssHtwBuZ/4ADMO3tStbdWF8rJUqukK81qoFMAafa/nQaockPAWzNAuduJ2g/D+hs4/0cP4nM/fEvd70sQ2hSxmAWhEtc9ciD08KUol88KKzb7zx+3N/ti+71zBcpRlNqHC9cckQ8DJBqqlG0P5ttqMH3tmbQbk3dtxaZ1+2q/8Ro579t7odHlZv2bjH+w8Xzj/VOlbu8xLO/JwJfXAJLk39CpP4c1J/332N2sILQ+EgEQhBg3rZ+ELz04gPK+Tanyz/bHxrQBd9w/NgxQtAZAkfJPj3cBWZI9Ep16/oCj/F8ezI2Dlwe7sbVzHhae1Y9Vq0pV3PXI0arLGbc3Sj80nm8VesC7p/Ig8k6UQDH5XBxan4W92IQLfjyAgfXjGwURhBZCDABB4GitcM36M7Fj6GlofRG06vWVeSSsTctwpR+d4hcoU4QJ9wNIUxAG8wupksZ0AEg09ppoQEljR3kKbu/dD7M/OmXsxso1HMWfpQI4OQHmc6MevjNFEHk5Tc7LV020X4Fm18qOJ6oXKF+EoS1P43M/OVPyAwTBRwwAQaBcvf71+NIDvwDK/wYkC8IZ7VUoalsOYSVfjaKPkuSK3Z43235pT368J/vbswfoBYBhheGXp2PuWXOw7O+6UXeIR26ddXO/SX7Mcd4VAjvZ6chn6SQNsgiAI24rsADQ/4bP3/YLXPiT19ftVgWhDRADQBAA4NpHF+CaB29BUr4PGm+w+7V1LfPxebM/mg9A0MhlqpGvGTruX9KYnil/6v2jpLE7Kz6ppDE01IFtW2Zi4Tn9dZ02SD3yfIcfBTCeurccsCnH5O05kHv71BiwZhA7J11fAPoNGMZ9+NyPb8EXb18w6nsVhDZAwmLCxOZfftODF1/4BLS+AEpP9hSIeXWX5YUzJh0b0y9K7KP7alX+F118ULpBIgGqpLFnn0YPUuXfA2DvYKr8ewHsMdGCfWlZ1ZHLzijtxPsO2DnqZYXP+3ftDNUHE/tMYUU+QkU+0/ywlaM7uExQnicOwv2MNXYiSS5DUroWa45t7OJJgtBAJAIgTFy+9OBpePG5J6HLlwJE+XOlHEzgc7SZe5xm/YfkPU+5Vkj0ng4D9JBXut+yL7BvF7Bt9yTc9LuZ2H9V76jHyp3QP9tv68zzABg07E8CMIXyTr6A+f5C4RgAiZoM6EsxPPwk1vz0tCrvTBDaDjEAhInHdetfi6vvvxvl8rehk0V2fzUJfOkO5OPSgTC+kacRgGrkq2YvnOl/xvsH8tD/nj0AzHY2DGDKWu9/b76thxSGpkzBotXTcdTZnRgpVCHbpDyVGwW0XGjcnm47BhmXR0SeGmjaPe7J60UYxrdx4U/vwsDtrx3xPQtCiyIGgDBxuP7xubj6lzdj3/CDgHqLu1gPU9ZBz5QpEB2TR4E8MSyKVggsJMkFVUkDe/JtHvqfZCIBu+GF/pHNkFMd+f5BXcIf9vThkL+aWvO0Qapovc8gu3c7Lp956sZIcDx2YjR4nxf1+FV+mMqbbf4d8IiBnYWAt0LhQQzccTMuvX9uTfcsCC2MGABC+/OVzd24+v5PYe8rmwH9YSidtXvqLcLfDilyZwybePxWnCipoCEQiwrUCM/670FqB+wd1HYoYI9J/tun/RkDuwC1L1f8AIBX8s0dQ124D9NqGxbIFKom2wC5T66gzS5t7QHnVGYjZFzRCIImMt42K0vPQy+kdQKUP4x9uzbj4ts/ha9sHoNZEoLQXIgBILQ3V95/Cna9uAkaV0OpqeHxZKJgeLa5Uw7h8ejYnP6QfD0xc/73IPf+zf5eU2ifhnmjOjTUXm237Xn2aOCV7Hhnuj/p1NlfD5Z+pK+6YYGimQ08PA+4xhCXCRhIVqlTg4vI85wCN/EvbLDZctZom4oyrsbW323CJXeeEr1VQWgDxqBXEoQm4Or7j4DGddD6HeHpelZjuPttOYSPRWcGFAwZ1GW6H2HN5UvtUr97kjzzX2Xe/55sVkAvgN3E+1cd2QyAfeS9GRLYQ5T/7twIMPtK3RpTdg/hkD17sG7dcLBen/gP4/L790sVNPe+HW/fKRwoW/BZqtj5+LUqtAG6WyU/Qyn5OD73tseC9ywILYxEAIT24pr1s3DlfTdA64cBvMM5RsfgNdNV3nh8yANVbB4/ORbyKovkR00PnGmAvTTJz8z9Z8ofALCLnecVOKF/w47OvKLbd2lgG7CrXMLPpk7Cog/2YGDA7zsCH6H3nobmnUhAyIBix7whAp6DEfpsY0MwyIdrbATBfLdO2XdgeOhhXHzXDbhm/azABQShZREDQGgPblrfiavuPxfloc0APgqNUnCeveOVKzfTHGy7GnkuE5Kn1CMC8PJgmvi3B0BvKV3y12T9747IWMPAvO/Qaeh/Sjj0Pw2A6tQodWv09wMvdaXHZwHYtasD67ZMwlFndzr5AUZhK7DPB/k2/Qyo4lYheZBjIc/fePjEkOAJgFTJO/U014dvCPDvEEkJqvxR7HxlMy6951zctH7ksyQEoYkQA0Bofa647yRsHdwAra+HLk8HwBQ3GzOmOF4l8SI9JVAloZkB9cas9W8S/8ySv0CW9V/SNusfyL1/k/RnowFTkBoBGQnx+lWnxktm/06NGQC2dWts7dHAbODFHRrP7u7CAZ/owapb3dkCZpyeK+5o1p4icnCnEDq5FEzh02gC/6iNYZcEFL89Pynn30DA+MN0lIevx5ZdG3DpPSdBEFqcMeqhBGEcuPK+wwB9HTROAOCO4ZoNPs5Ly8W2rYhRQAXJbZXGpEPyo+XiLy7Ovf9BjZ4eYI9ZEtgs9tNLFL7J+u/IDQKj+I33b5T/jt2u9//Szqxct0ayI1X+s7cAL/ZoJL0apcnp8b6+YZz4mr3+uDrIduxzA/m86U4uT45xw82O2StfqdM6Ue/fqQDbH7wWK6fwY3R0fhyfeeMTEIQWRCIAQutx+WP9uOIX16FcfgwaJziepvUYIyHgmMLn8rFhgIrGA3utt/IH8tC/fT9Isv5Nxj+f4mfqGVD+hoQo/+3d+f4ZSEP/s2cDIMofAPAsUNqqsfO/E+udBz8rs2FyJ6gbDhKON4W1GyxwT2JPBTqM42xr95pONEGxhYoQbgNOZCJgPGicgMHBx3DZPdfh8rv7IQgthhgAQutwh+7AFfedg2TnM4A+D0plD7IhioEqbNqp06Q9x9OsQR5E3hGPyIfK1gMT+jfJfnatf5PdT8f69+bevxP6J8ZB0qmB7fn5XwLQDwDb0velLPS/ZQswr0fDLJVTmqxRmpSe57d9+UC+E3AxnwWNDJA/7nE73jb9HgDXiyfHPHnN5I1xQXINqmoDpCw9rXM91QGtz0M5eQZX3HsO7tD1e7iSIIwxYgAIrcGV978Tv7z3UejyWpTLM3LPjYdlSWdPvUealOYs1hOQR0Q+5NUXyY8VJuvfPObXPOhnUhb2B+DN+Xem+5kIgPH+t+fj/6pTI9mVbr/UpaFMJGALkPRoPA9gC/H+AaCzT2MZ4CXz8UF9npdBIwaeR65yOZ4TQOWNx0/zBEDaAJX3vp9KbQgFbYjIKQWo8gyUy2vxy3sfxZX3vxOC0AKItSo0N1fdfxDKw1ejPHyq6zF68eEcp3O2/4hc9lqkpOslPxbsHdTAIOz6/kC6vWs3oErEu58EZyiAJvzRrP8dQyT0v0ujH3niXwnA1h0as2cDL+5APu7/LKz3/wyA5TNIBMBsEnfZfhw8CpAXsa+alKOfv+Pds/Nyea6gncsrUr+RtiE+RGEMA7UC5aGf4Ip7v4uk9Gn8wxs2hy8gCI1HIgBCc3LF+mm4/BdXoTy8EVqfCsBVutSDM8fg7krL2X++fFECH5XXo5AfC3p60j+g+EE/FJoAaDCh/2mBa2xFGvo3vLgjHfefb3bsn778tk8DM7JzA04OAJjiBdj3FFCiXHHTu+D5AXScn+cDOPYFceWp0vfakF/tXJy3AVpXTeRsRONUaL0RV95/Fa5YH/qEBaHhiAEgNBdaJ7j83g+hvHszoD8NjU53rDfgvVGl4oVmadiYyWsmT8tQ+USFj1WSHyv2DOo86x/pM30UedSv2qs979+pn8n6Z6F/4/2/1KUxu1vjBaTe/7ye/BzPb9N4Nkv8+20W+l8OoPcPJP7Pwvv2+6Kfi8oVPP2erHdNXwGnDdAIgg0o8O+VKmjlywfbkIq3odB0QnotReqUH+sEyp8G9m3GVQ98KH3egCA0D9Ighebh8rvfjivufRjAV6GS2Y77xz1Is011Clcm1tODK2N2hhR1yEAIycey+8crEtCb/ZkV/wDXu6cGAYB07J9l/dtj2b5+AAkZ9096NJJM+dvQ//7Aoiz0vwxA1wyNTZvY+YjSdcbRmcGk2XYeu4ejTKkslQcrYsqF2gA9BW8DwTYEIq8rtwEnSZS8prtnQw9/FVf+8mFcfd/beY0FoVFIDoDQeK7+5WIMDl4FjdPTHdyzZp10LFbLO+PQGDCVi3nuRhkF5WP7Q9cZQ2jWP8i4v/H+sQ/u2H8H3LX+d7tr/W/fpTGzS2MrgNlAuuDPFgA9LOkvC/139mk8M0MDm4Cj+jUemqdxrHaVqwag6IMXQ150Xjx9r/xhG1OQ6nO7Tc7pGBRFbYiG/kfQBniEgN5AUTmFV0PjDlz9wLeB7n/Ap1/9GwhCAxEDQGgcN2ycgpe3nY+hwU8CSB+/WqREvTF3Gn4NlCmUR+7BeaFgNjZM5el0Qio/lln/nEnZkr+TemG9fwDpkABP/GNDAEmnBjrzB/4A6Vi/Gsp81W6NrTs00AMb+t8CoLQt3S5tzeWWA+jtZ64vV/Lks+Qevx0CQPg75F9FSJ7L8G1OaMwevA04N0DQeZ2NnNMGQtei4ka+fDrUnnfhmge+hN7Jl+NjKwIPYxCEsUeGAITxR2uFK+75AF7euhlaXwCtybPXuT7hHlrgDVW+PBQbVQbEcKDJYLHkQv5eMfnx9P53A8C+NOsfgPOgHycXoEN7j/kFUuX/MmDH/bENdqnfF5Au+JPsyKf8mdX+HO//udT7fwjAQ/M0VoIoVLgeOlXoQP7ZKVoug3v4KibPP5TQSRBpQ9T7d6wLIp5VQAXKO3kFWTlrkBBDMhaJSl+7AX0Bdu3cjC+t/4DzTAVBGCfEABDGl8vufjMuvecBDOtvQGM/JzmsyItzQrNsfyhMyz2ymIIukg9dv0h+3CBZ/7Ye7EE/AKzyNyS7tfX8p5txf/agn4Qk/NnV/pBO+TOJf0Du/R+VHb9zRVYn8lkkgc/QRF4MdMydy/Mx/JDBZ8sVfIf83EFPPSSfxPNH6A2oJNyGnPvXgftXAPR+0OVv4LoHHsB1D74ZgjCOiAEgjA9X3LMQl979LWjcA4WjPS/O8bIAxyPjnlXIA+QdsLdYzyjlx+MhP1XDHvRD1/p3Qv9T0uI88c+8N2v92wf97Ej3v5i9zgfsnH8gX/Dnmec0NmWhf+P9Yx08JWq/Qho6V+53HQrpB5U4UeaOB454WRumN/sqtQF2nsI2QIU0HKMgOExh5FX4/srqaJRxD65d/y18ef1CCMI40OieTGh3blo/CS/s/jSAzwDodRU7XE+dd4x2zJ0r8mrl4SsW53yA8xOoNKbM5Xm58eLCi/d35/yXtLsCYIe72h9d6ndHp7bef2mXxktd2YI/2XK/s5HP+QfSsf9nJ2ksQh76N97/Q/OyT36FxioAB/YOpdfMPnjHszaVJ++dED/ximlZ7zsn5+bRg1BeQKgNjKoNRa5DCbUv7/5JW/LksRsquRKT9NX4yNG7IAhjhEQAhLFBa4Uv3n0mXtj5FKAvgtbpU2qcjli5SkDB7RDpmuyWAnlwefjy/PpchnfI0c490HGPFzz0r/g0wEBOWZIZAtOzx/yWunPlb73/LUz5Z2v9LwLy0P9yWO8fAFat0MA6YN0Z+RCA9dIBO44eMrSckLjx6rOytA3EvGYnpB9rQ+Q6+QmIfJVtyBEvqItz/xUMTWrkOsdUL6Avwi48heseOVPyA4SxQhqWUH++eNcxgPoyoN8AoNhrinlJTtlRynOZom3zvhb58eYLly6IP+a3w1/rP9mtnSl/pW4NbEvn/G/L5vzP7dF4cUf6oJ8tbLnfzkz5P/OcBrJxfxP6v3OTBpanx//h6GFP0TnfXSB6okPlQvJMBkjH2O2xerShQGTA28/lqYFCK2rqr+JRLCcKUHD/wP1ISufi7498AIJQRyQCINSPK++Zjy/efQsU7gfKmfLnHhLcTg5823R6msnFlG9AHiDjtQGZom3F5CvJNIJqlL/BKH8A1vMH8sQ/IFf+gJv1X5qUJ/11zciVv+HOFbnyx5qy/e74d+x9h4q1B5DpgHkRAEQpMpmkQhtw2hCrB9+mFbBtgBgaUeVP7kUzeScCUnT/Rh6unBvdeAO0vh9ffuQW/OOTdjFmQRgtsg6AMHr+5Tc9+J9nP4HB4QsANRll0ulxDycYCiX7ucdUyUPyzsXlUYO8Rpr5XTDO32jl78AW/MErsD9pM/afDOXRgOkAsA3OuH+yQ2PLDmAeXfAH+Xz/ZeRyxvMHYMf9160BjKp0PmM6Tk+1O7FPTFn6vVB5t2D6p8l5QeQK2xAK2gDZ8OpNDQNSnZhyVwgnDjpNRuf3Eayrdq9rxbSCUh/E0O7T8ZVfXYapfdfiLxfvgSCMAokACKPjkrtPx//8/kno8qXQmOwkNlFPkIdxnU7R6eiqk3fEQ/Lw5UPlnfesMw6VbRqyOf/OY37Ndmfu9VO2Z4/5pXP+gXTqX0j5d/ZpPINsud8/aDwEYGX2h3XAuo0aPAXeet7Ea7ffN1Wmym0HKiBPvXGrXJF/rxXbEClrTusVD3jnmh23QwEcYtTwKIUtQu8jECVwDBh2bh4R0BpIMBnQl+KVl57EDY+dHqiUIFSNRACEkXHxna8B8GWg/NagNxYKwZs+0BsThb9dFMKvSt7sq0aejuNGaCZDQO11H/LjbLMFf8y+UrdG/67U+1fdGrOQPeYXwIvk3KXJGtibbj8D2Cf9AcDKeRp3AsAKjQForGH1ot419eI12Wf3M0/bC7eDeM+knD1thTZALu8aF9SgDNRVKSbECEaNlOvR83JFU0ijEQ3F7p8YxloDGougy+vwlV/djc7Oc3HO8kfCFRaEOBIBEGrj0vvn4pKf3wyo9VD6rcEydDyTe2DO/oLrhOT5/ujF4Xa2FeUrdNbNpPwB+Mv8stX+6LQ/1amxnYz7z8jOsTVb8Kejh035I96/edLfpj+kY/93Isv635gp/zW+928/KubtJuYzp8MB5HsIOtjKPYcVr9SGdKQNEuPAkw3spG0v6q2z414EgNWDrxegWJ3oPQTvX7vXUngrBofW4x8fvxlffXxu6NMQhBhiAAjVcevGLnzxrk9haM/T0PgwUE7czjLUOSL31kwZ5wl7Vcp7z2JH8Vgupxb5kLIfz3X+a4WG/oH88b50CKB/G/DSTvcmZsMN/dsn/WXHTegf2ZP+HpqngRX8g2Dvlfu5Ui/cmgrGa852csVuitBXOsrgRBacQvHv0GtDvK78tgJWCY1I8egBbeNeDgCrBzVCeD4EH44ItUXn/k2ddAKUP4w9eBprH/8Ubt3Y5QsKgo8YAEJlLrnzFDz1/CaUy1dDoS/3jHjYE37nyD1uxyPjYdeIvPMsdtq5UvlIGe6VjVa+GQhl/MdC/9t3aaA/Hfc3Y//JjjzrH0hX/MOzsN7/b/s0lmeP+d3Ur7EyS/xbhWzcf41Os/55vRT5XgPKzDPSVF6UevSegla+fLANqXgbdNoQqS/P3qf3YsoqINgGFAIeOS2n/Xo4wqHfCakTNyasfKS+SvdB66vxfHkT1m48xa+wILhIDoAQ5+I7XwVdvg66fBw073S13ynScdq8J3bHYqk8DQEbqDwfHwWKr2+PI+9IvZBstj+YeR2Qp/uajilIIwABr99Z/ncbsG1q+n5uT5r1T3k+e9LfIqSh/+XZuP9RdLW/TRrrPFeZQb5o7zNjoW/kRT0c5UaMCWoseG2AtDWvDSLPQzDnN1GB0HWInvXyCGj9Nd8OlAkRMjQsmt0/PRQ4FvoNJlgKXf4ubthwOzo6Po6PHPp4vDLCREYiAILPNXfMwkU/vwEYfgTAcX6Hrtif2U06Q/pUvWCHbvYVyAe9HyYf6wxj8iGPLRRyjS3T2iyoPW4EINmtge3uY36379LoRzr2Tx/0Y197dfqY3/2BZ7MFf57JZE3WP5DN91+Vbg8A8GPmpF70e9KkifDvim6Q7x3ke3KezBhpA7wdBttgzGOu1IZoOQTk3Uu790WMx1D7iil47/7puatoi24E4jgMDz6CGzfegJuemlVZWJhoSARAyLlpfSf+uPOjeKV8EZSeDr4CKQ3vKpBt3rFxd4gfyw47SpaP8VaQR4F87PG81Kvn8rF52c1INOs/2365U2Nmt0Z/N5BkD/t5Aam5b0L/CZ/2Z5b6zab8HQVgSub9z4GZ8gesCYT+88pkL8yTNngeM21PBcrR86xJG3LkNSsf8a41YNcmcNpA5D7MvlDUyIk4ZOUUPQ1T6qGoE7/WSKIHMRmNEnT5oxjedxZu2HAROlasxUfUYPwCwkRCIgBCypqfn4Tntj+O8vD1UOmSMcGxTzoOaXs66qmwUGqRPO0MEdgOyYeiCly+UJlE5GMdc1PCH/PbqYG+dPtluuBPlvi3rVsjyR70Mxdw1vp/dlK6vQzZfP9N+YI/dyL1/o3yH6hQLWqf2W3qQZtjTGEC8NsQPVxFG3TaAKuMU968p96/ZgYJfKOQ1luxe3ISBKk8v/9A26tEqGw0elB0HkwH9PUYfvxxrN14UnUXF9odiQBMdC658zAMl6+FLp8Y9MStk0Y9NyIf9P5BPGlWjvdTXN7zxAPlapEPlatGvpmhC/4ASEP/2fZ0ZMv9Zg+R22bm/G8BXuxxH/QDwD7ox674lz3oZyWydf43IZ0LuEZjTYUcANpOANIeFGtDuvo2FGuDzucRawNJpA3QRqzTcrYMkTHPGqDltBnayLR/tStVOpes0vunkRT++cXuvxJaHQKUf4AbNvwIwCfwscOfqF5YaDckAjBRufzuflx0+3UYLj8G6BP9cUrecdNOmXl0jhztWOk52Zio59iz6wcX6ymSR9DyvUAAACAASURBVLF80WIsoXo0O/xBP0Dq/Ze6NbZlD/oxc/5LPRqzZ+ey9kE/W7VV/s88l4f+jfe/ahXytf6rMIy4wnL2kWOOBx6Sr6IN1twGwNoAFdKkwjQaROtClX1ASdOy3u+FvcYiAd7904+BlaslihBEnwitH8Pajddh7W/7R3EioYURA2CicasuYc3PzsGevZsBnAelO5zOkY6DOv2Lcjs2GuoFfK+kGnl6POTVhOS9eiL8PhQ2bRUPv1oStuTv9Ox1ZvaUPxP6f5FM+zOeP/ZPX4znv3w5nAf9YFMe+scajXTQvAI8dO9skPfGq88agTEmR9IGqSGqeR2UL2vF2bFgzknB+1qMyhCeQULbdkHkyokq6Nqv69ahA7p8Hso7NuPGDefgVl0a+cmEVkQMgInEwB3H44k7foWyXguVzLTeFR+n5F5N1Esj3lm18nwcFkymluvX4lWZE8Y8rlbx/AE4oX/z/mUz538bsBXArOwPW/Jxfxv+36qt9w8AXc/la/1PmaeBTTr1/oFU+VdrNKn8e3XC1RU83ZraIPPqnTZIzxNrA3DlnW0jj/w+eDlef2qQBO+NRQI8efiGgHP/gahD7L5GitIzUdZr8ceNv8LaTcfX56RCKyAGwERg4I5lGLjtP4HybSjrFc4xrw+p4NUEHP2K8jXoj6BXVYvTXuiVFSiFVsOE/o0xMLM7nfKXZGv9A/la/89nMib0D+RL/T7zXFr2KACYl3/SdsEfAFV5/wyjlO0CPGTcn0bcgRrboIITIXDkqdLVRHHHLkaPkfNquO3IiUgQGeu1cyMX5P5pfgGpn2blQoy3Yar0Cujh23DDhv/E1zYuqywgtDpiALQzA7/sw8AdV0ENbwSSUwEQD8sU4h2iOabdwyGvKSaPAvngNumEPc+pBnnuOVGK5FttWICH/gHYcf9tmfIvZXP9aeLfs88CpUm5XFe24E9vtuDPSmSJf8s1yfiv/sOhX7/5Xvg4uimTkO1a2yDfRqgNhAyFkLzK2wCPZCGrA/fqaTu14XvA+V1xD965vcwwoJ8Xpyhi4t1/vdGnYp/eiLUbr8I3N/eN4YWEBiMGQDsyoBMM3P4hYPtmYPjT0KrL6bwAlrQEt5PRrJzj4RQpYvjlYh2js008K68DrUE+Nmug0nbLRQO255svIc367+93Q/9btgDzWNZ/NuxvQ/8AgP78Mb93krX+17AH/VQFUYTOIj5kGECTcrSd2TZo8gPIMd4GuUI1G8E2xIwIvm0u4ITj+W+BFiWuOx2z5+019NHR89koADMkbDkiX/SkwbFC6y7o8qexffdm3LjhQ9BadEUbIl9qu3Hxz1YCP30IwFcBNcd2nEY5mo7W6UPIGzqtiRoGtD/n8rRDogqby4fKO++LPKlwdZ0y1BOLXSsk33L0ASoL/yfZuP9LO93Qf9KjbegfQJr1T+b8P/Octg/6WTlPp8p/HdKs/5Eo/wwF5ArVKLVa2qCqsg2xDa8NkeOmDr4wqR99hXvc3odm9xQqz67LlTqNMMQUeez5Ao1Yo0KrOSjrr2Ltxoew9omV43txYawRA6BduOTOxRj46ToMlX8OqCOD44xGQXIvx0BDoN44LeuIPHnNylSQ97yZgDzFM0aoPB/zjRCSb0Xocr/9/WnoH0g9fxP65wv+GOXf2afRNUNj+fL0QT/mMb9YhzzxbzQwhe9k7FdqQ7wMfKVfVRswhSnMi6Zypq6x7Hu6LDFvN55SZgrf3j9v35Fr8TLVrGUxLugjoYd+jhs2rMNXn1rcwIoIdUQWAmp1Bu6YAgyfj717P4kk6Qbgh/eDYX/TaXI00gf/VJLn4kSR844yNlQwYvmQdZC9VnpgSuy2Wwmz2l8p8/i3dafJflt7NLDFf8xviTzlbxmATZtgF/wxWf8ATfwb/SdUqQ1yp9wXDsvTTee75G2AyXlRACYXC787xxAxXnldCsrxKEAR4xnyrxp9OvYOvgtrN34Js3A5zljxSqNrJIwciQC0KlorDNz2AQwPPo2yvsAqf9o55oWzfaRzc8ZoEe9sdEwefgfoX5hcq57yBR1jaB/P6G6qDnUEmPn+dLlfAJiN/EE/QPaY3wyT9d81Q2M50qx/G/oH8gV/RqH8qaL09C31wEkbCCr2QBsMLbFrv0tN5KlHzq8V8Kbt+ZinHquHY5RoZrcSuViInxsDoWOhKEMzJaoq3Q1dvgAv6Kdxw4YPQPOHhgitgnxxrcjA7W+CLn8ZWh/tjLECAS8fvnK1nlHA04rJBz26SFi0krw5FpvjHOsIa5Z3bt6VaWU+f/F0+5S/GUgjAVt7NBL2oJ/StnSt/0VIDQAgG/vv1/mUvxUaq2C8/4IH/VRTrx+n56xrG8z+OfuJTFVtgF2XRiHotheFonIV2iJ9DRkRtN5F5+NttBXaqsZ6JDgXH33VLxpdFaE2JALQSnzxrgNw4W3fQnn43lz5Z5jArRNe1O5xgHQoJBTpjdNSee2P5eeF2cmZvC6QdxRxzDMLRKOtiHbP5cmb6ke8rFamP1u5lSp/s9Lv3OyVrvXf2afxzHPp31Fkrf+VALAuU/4X1c/FrFsbNLuraENOGyCvoQENK8O26QmCQwY0isHvxRwnBgk/5t0/8vu0xZh8M3n+MRSOhsa9WLvhW1j7+AGNro5QPZID0AoMrJ+E4W2fxu69n0Gie90ejuB0ZiwUaotSxV2lvNfJ8f2sY6wk7+0PdKzRMVRUKR8q1yZs2wYosuDPXOSP+TVj/3gWeHaSxjLzmN/lwKY/ZMeytf6RzfkHgJEs9sPxFGotbTDUhjDCNqCrL+fszupLhwRiDwpito1//7xN0vunxH6DgTbd7Gh9FjT+HDduvBJJ/9X4yPxdja6SUIxEAJqdL/zkTJS3PgXoi5Cg1+6nXpMinYvjfTG45zFi+azjpE9do/15NfJg8k69apWvcK/txsws9D8LWcLflnQ/Df2XstA/4D/mdyWQhv7pcr91gCrbatsQamlDRGEXtoGI4ek8Mjjb1ll56/GTbe6BB+f7k/ty7p9HAPj9j1C+2VHoRbl8EQZfeAr/vOHMRldHKKYFW9gE4cKfvg4Y+jJ08ka7jypqL3lKFW9Tea/zCpQr2s+3i45Vsz0m8mScuN248IppUNmDfkzW/1yk3n9pW2YETNLOuP9RJOv/zhUaoA/6qUPWPwB8/ifpeUbSBs0x53szCrdSG2AyteQHBMPyrI70XLxsYb0i98jPZ+oSu89WRqv7oHAuPnb4g42uiuAjQwDNxsBt8zFUvgxl/QEopbzOkkZPgUBnEwhxRsc6A/I8477II69GPlRuXOTZs+DbidndGi8gzfrvyBb8saF/5Av+PAMAz6Vz/h/6A9LEv00aWOGfs16Mug0m/neoMiGVEGGi/K2RQEP4SJcbttei3jtXvjHDONLmQvLRbVInHt6PybRTu1X6jVDql1i74V/R3XEB/vrQ/210lYScNjEz24CBO3owNPgJJDgfZT3Fz0Bm3hCPBHieRkC+MNu6zvJgxxxvLJBHwD2gWuWD99CmzfsL1/XlGf/Zcr/mQT/U8wfSJ/31Zt7/Q/M0YLz/NUA4RW7kXHhbHgGwX1EtbYiUN4TKem2fvK/kSVfTXpy6FpyvSL4aI6GayEJboV5Boi9Hz5Rr8ZeL9zS6NoLkADQHn//x6di39wlAX4qynpLuzDofp7Mj3pXmuz23ivWlVHki76CtI1WlvGbyhkrZ9jT0GbI7i7zCauT5Sdq5M016NGbPzpV/CJP1bx7089A8jVUk9D8wANRT+QNu2wBQextkVVJMnnrq7oH8vWa7A0XsuQqfHBk6CdvtyJP3RZEr5/7ZEEU7ef5B9BSUcSl273wC/7zx9EbXRpAhgMYy8JMjMaS/DI232aej0Q6Hejx0rNIbEqDGwgjlQY5H5SPeStVe+CjlY15VNWHbtmJLGvo3cO//GaRZ/9gE50E/6wAMIH3Qz5oxqJZV2BXaEM8PqKYNxt5HIwS0DC0At91EvXCilB3jk13TKQO//YXkefSqHdamqAWtD8SwXod/euwudJXOxdkrHm10lSYqEgFoBAM/mYPP/+RmDJUfAvTb3IMVvJKAo143eUXl4RoJ4YsFzp9FlUOd4YjkI95U0fhs23tSAJ4H8tA/3Mf8Lp+hgU3uWv+rAGCjxhqr+cfwQwq0wWAb4t8h9aCrbQM8JyDb5a0cmJWhMs7QUuA2lErzCHh1q12jf0J59yNAqbdhn34IN2y4GTf+ek6jqzMRmUBmZxMwsLELQ8/+PVT5QmiVPWc74s2YDbptX0KdoKpOnl4nJk+vQz2rWuSD5SLblbK1Ryrfrtx01ZR8rf9tGtgfKG3VdsEfgMz7N+P+6wCsM2P+Y6ONLrxN17UNBstFtqM5IuS6Vckj3t69e2LRA6dsBWN1wkWtKqDVdiT6EsxKvoIzVuxrdHUmChIBGC8+/8NTsPf3G6H11SirPmcck3rL1mNhnlJRJ0o7PuvgUM+LyAc7HiYPJq9GIF9tx03rX/SEtNA23cfl2xn6mN9nAfuwHyBV/MuRKv+VRvkDGFiu0/j/GHr+PBxfVRskG8E2pFk5uq3zV6u8qfJXgbslUQY6Zk8jFTzqQC9MLukNHTi/YSLvDR2I8vdQug8aV2OL3oi1G09pdHUmCpIDMNZc8JPDocrXYVgfj8R0GLyDoZ0AD0nSjsnsiskrX2HH5IPKtoI8LV9J3jvGqsvPF3qNyVcj187MBbDVLPW7N339bZ9Op/zNSEP/dq3/dQCWm9D/6Nb6r5aq2hDgGAleGyIFo0NJ1GjgXropQuVDkS7jxbP6hSJiznBBQVuLRaT4b2aiGKw1oZdB6+9i7WM/her8OM45bEOja9TOSARgrDj/pzNx/g9vQHnoUZT18f54YEzZqbwz4koyKh8Zcy2SV1xeV5BHbfIcRx6uvPHGaJngOQKGAZWfKNjwf+b5myf9LV8O9GbL/a4EcGf2mN8BAGM65m+opQ0h0oYQULDkRLGhg6JxeXssopRppMDz4k2UAPm9Ge8/dC1TxhgMvFzoNyT4aHU89NCjuHHjDfjGEzMbXZ12RVpgvRm4owODez+GcnkASvWHx+zprkiH5pQbI/mgtx7xkqqVD3k/sWuEjlWS9+oxAZvw5RdPApAn/v22T2P5DO2s9W9C/+mcfxq4Hju+8FNdXRs0r6pCGyKFQ1536PxU3jvGKuB5+AXnDF6XtWXvnBXkhepQeht0sgbLV9yAY9VQo6vTTkgEoJ5c8OOTsG/P49Dl65Go/vwA9V6IRxHrFD2IvK5RXhfI8w7Q3SDnqEE+VH9PvkB5F8nzMhO2I90/3zShfyBd6x9mrf91WeZ/itb6SK3132itv6q1/qXW+r+01lu11oNa621a699orR/UWn9da/0xrfXRutbnvBe1Qe8hOlT5a7cwHQ5wfi/av4b13k05HThG6uEYA9o95g0phe6R1imi/LkcjQRI6L92tOoH9PXYuOFxrN14UqOr005M1B60vpz/40Ohhq+FxknFHQn3LkxnpfIyMfmgdxLwtCrKU5lIWLTQcyEyFddaH6V8aJvPq56IRsDHrunFIqTKfxnSh/30/kHbB/3cuUlj1Srs+9a7D+vs7PwLAGcAWDyCK/0OaRLBN5VSledqD9yeazbeVmNtMNoG7D9/24bj2bYXIaByVbSxUHi+Wi++0m9gIrfXeqPUD1Hq/AQ+csiTja5KqyMRgNEwcMd0fOaH1wPlxx3lr0A6OurBgHQArDMwRUPyzjiqYym4nsxI5J3KMXk6Bsrlnc4sMB5q5EMrDHL5ojnVMe9/Inemi7JXo/xt6D9l585bjtS3rlrX2dn5GIDPYGTKHwAWAvgkgEe01t/XWr++KinbhpB756E2GG1D9p93yDFw+Tavg++Ku9fn2zyXJdYWuTy/DJUPrQ4ojA6tT8Lgvsdx48br8S+/md7o6rQyE7QHHSW36hIe+uHZSNQl0DpPUKnGE67WKxlX+ZFEAuooP6JIwgTmYzf3YBlg5/wflS73+/zzH184e3bflUqpsVxm9bsAPqmU+rV3ZOB2XZ82GBgmsjKsnGMMZOU1KW8vG4gY8GEsXs9o/WMGRJXyQv3Q6kWUcCFmrrgZZ6jhRlen1ZAIQK189nvH4+HvPwql10KXU+VPvQDjeIR+8F4nSDyKkcjztcgrypsNzeSreRY7kweT52U8eTJ+y72iSvdKy/LtiYbGEJZl28uXA+jXt11x9qRyeeALc+ZM2zjGyh8ATgWwSWt9mdZ6qnNEZQla0TZk2h3gtyFaNqQ0jTdNjEaTR2ANAioXOF8semBkqLIOGaS8TtZYqUFeqC9Kz0RZr8ULGx7F2k3HN7o6rYa00Gr57I+WQQ9fA4VT0x0xjyayDcQ9j3rKgxyL7efbwWMBr37M5SuMDUuHCujyb/C3XzsMeE4fdVS/vu++G8/o7EyuBLCgAbV5HukQw78qpTQuuv3XAJbk33uoDdh/rgL1PPRIG7By+WnCypydKzbzhJ+zaNuem9RtJOcQxhD1XXSrT+FDK55pdE1aAYkAVGLgB334h+9fBQxtBHBq4Vhj6EfPPWKWOFwoHxw3reH6wbH/gHwwzJn45cZcnsgkBZ3rREbjN1g+Q2/d+vWjHnzwn+/q7Ey+icYofyBdkugWAA9qrd8MlfzGjQbFvsNAXoc5Rr93uh3LGXGSAOk1mOHg5BFE8kqKtun7kHyloQJhnNCnYp/eiLUbr8I3N/c1ujbNjrTQIj77/dNQxloozHEy9gHyybEfvuNscE+HeCO0owIrz9/H5Knnw+WdOlWSZ/cWko+utR7x9IrkgwsJKf8evM9UmuvB07v/ZdN7lySlUukDaLLf793/ve2p1f/55CG/37433xn6Dvn3SX9LsTYQel9VeyPnrloefnsLGvehtsyQNts4lP4jVPJRnHP4dxpdlWZFWmeIm9Z34td/vBKq/PF0R0BZmd2OZ886Ca+jGyN5TWQqycceXlLNdkV5+29k8rxsrMwEpDtROO/VM3HZG/bblShManR9YuwaHMbl9/wOX7rv99g9HJodAtfwLDQc7T//vWeUMvlqhg+cIQKE22aRwWrLIP4bFJoAdR06VnwGH1GDja5JsyEtlHOrLmH9D34I6HcC8BUp9yhMGbsr0OEUeT81yZPjlZRt6P1o5WN1raYzD9anys58gvPuxVNx7ZvnYXFfV6OrUjW/e3kPPnXbf2HdE1vibRBg7SnbcMrQ6FQkr6QaL7woiuXUowp5LlO0LTQHGrdhzuEnyUwBl1KjK9B0LHndZQA+6Cgj0/9UUvpOJ8bkqUxN8pHOLSZPDY2Qt8LlESoHBDvKih1eQD7WOccMAbov1OlOII6Y2Y3/+84D8Nmj5qC/u7V+qtN6OrBq+Wwcv7gfv3r+Ffzhlcz5irU7E8ny2kBC9quATAWlnJC2VWu0aSS/4dB5hMajsBS7tnThB2tvb3RVmglppZTPfv9EDOMHSHT+y6ZK2bzYkCH8DokUjcp7hkQF+YrjkQXe92jlq9keyYp+tcpPIGb1lLDmdXPwkRUzUOLJkC1IWWt8/ZHncOFdv8XzOyOGQDTHBGQ71oaAqiJs9L3ZFY3GFRjIhXVp/e+rbVFKI1F/ir9Z8aNGV6VZkFkAlOHyF5BoZecWW5gi1/DH1q23DjjyOiBvN4nnXCRPOywvnBqQp+VMvzVSee+jCOyn3npROb6f7iuSnyB0KODvXzUDm1cfjI++amZbKH8ASJTCh187D0+fczQ+ccwCdJVMIzffN0nY48+K4LNe6BoSoedSmO3QWhG0TUV/wwF5/iTBisa00JRorTCkv9DoajQT7dHD1IMLvn8khvQj1uMIKmzAhiKL5hWrAvlgVKBKeXrMSw6sUKZW+dB27Fi95WP72pgTDpiC698yD4f2dze6KmPOM1t347zb/gvf//U2YngmqDwuX00OAPJzFEUJKoXsQxEpfqxS7oHQnHQmr8HZKyo/22ICIBEAQxl/aZU7d1AA8qOH76UAyL2YmDwpSz18RQrzMkXyqgp5jEI+REx586edVS2vfflK52gzDp7Whe/96SL86F0HTgjlDwDLZvTie+9dgZ+cuQLLZ/aQNkAKOd66hueFm8Jejgj34lmUwPkNB65FFX+oXdJjovxbk33lv2x0FZoFMQAMWi/PNtzOIqQ47X56AtIxBeUVS9DjsuaPKFIuz4tWI4+IPCLy9LGtwfCo98mRulYh712XyU8QpnUluOZN+2HD+w7CyQdOrSzQhrxzcT9+9aHX4vrjFqO/tyPeBhzD2s63K26XVkGzcjTXoFKbC/UBfL/QeiSmrxfEADAoLElfQx0K9W6JR+GF9xHpUIg8XcOchyhD8tRbMd5LkXyoVwo9i53fjxW3FYnLe9EDUtkieX4NajCYcm1uBCQAPnRYPzavPhifPHIWOkvtfb+V6EgUzn3dfDzzkdfinNfMRSk26wVgbQ9ZewkdCyhtA21zRe2SX1fz3zD836DQKixpdAWaBTEADCpZ6Cg4++Pm1j7tXALeuqcgmZfhKHrNynH5bDuJyGsmD3KMylOl7MkHPKERywc6UC8SweSr9cbagJXzJ+GhM5biq8cuwOzejkZXp6mY0duJtScsxaPvX4HjZpopj8wY4KF++jv1olAKXpiett2iNu/Jxcoq34gQmp+yWtjoKjQLYgAYyrojPIeeevwgHQHJXDZh/5i8l0tgTkjdFy6P/FhwbFS72/Y4edXsGJUvfBY7kfc6uIC8Dsjb6kc8/Jh8G3Lg1E7c+icH4OfvXoIjZ/U2ujpNzeHzp+GnHzoG/378Aizt8RpT+hJSxvY4MyrpMe83DPZbg29QFM0mmAARq7ZEQazvDDEAKPaHjdyLMH+OslTsr4J8yHsp8ryt3VFUrmC/rWagXMhjKpKPlaskHyoX8qrauAOd3KFw8TFz8MSZB2HVsmmNrk5L8edHLcSmc16Hy149HVNNQCAUSaPQ4S2ewMcjcc6JQr9BHY4EmGNt3naFiYEYAAbq+VoPPlLGzpc3HkkyMnkawq8or4vlvfuoII+IvD1PxPuicrXIe/OqK8i3MArA6oOm4amzDsaFR89BT4f8zEZCV2cJ559wKJ7+6yPwwYXdUHR4zMuBiRiYHM9gjSTNRn/D7dVWhYmN9EwW7qEj0AmYToJ7/yScb70QXVlecRkmDyrPrxvw6ukMhJh8UVQglOxI5c39OB1sIDmKb/PXSiHWFuaYOb34xXuW4JvvPAALpnQ2ujptwX7TJ+GW9x6JB05bgjf11Rg5CpX1onEIGKiBqEDsvSC0KGIAUELheO5Re0PixBBwPPkkPHYfkudK0sjH6haVp89ij8kHcgKqlicK35xLJbl8UsWz4Ns063/+pA7c8o4FuP+0JXjDfk37sL6W5ugls3Hv2a/DN98yG/t30ryTiLI2Bqr3Gy76DYjiFyYOYgAYvNC5ySRG3pGY49T55/I0KuB0KlXK83FGs8+ZX88rH+nkgvKhTizQmfLV1YLyrEMtejBLaNy0DTrUnpLC+a+dhadWH4QPHtoP1Qb31Oysfv2BeOojr8HnD5uCXvqMJG60mzex4YKYgq/0GxKENkEMAINmr3TKm31vFLmyL24iP086CsjrKuUVkzfv6XABPXdI3ilC5D0lFYgOhIYuYvLVjJW2meIHgPcs6cOmMw/CZW/YD1M6W+tpfa3OpO5OXPKnh+HJvzgMq+Z1uUZqcNYMee8YrORYbF2A2HtBaHHEADDQxB8+Nm5/98wrpt6FeT8W8ryeRt4ZVw/Ig8nrOsqDydvzBOTbTPm/emYP7jj1QHznxIVY3NfV6OpMaBbOmoJbzzwCd518AF47NQn8hgsiT97wXWCblheENkMMAA8zlxhhT5lGCMhL7vFzee3LxOQB2PXLqTyX8bZp9QvkQ+H7kHwomY/Le3WrUb4FmdVTwo1vm4+HVi3F2xdMaXR1BMJbD56LB//6Nbj5dTMwpyOQ2V9L+F4H5AWhDREDwCHzCBxFZ15jHgFVhERes7LVyNsOpwZ5OqwQkscI5Iu8fGdb5fKqBvkWozMBzjtiJjavPhh/c/iMtnlMb7uRJAoffvNibP6rV+GTy3rRpXjeTcFvgG6PxGgQhBZEDACD8WitPiZheDqeX6QIqXxsGCBkXHB5cHleTyaviDy/H+c6FeQ9bz3QAcbG+0PybdCBnnjAFDz+3oNw3VvmYXq3jPO3An2TunDNnx2GDWcsxcmzS66BC1RnCITeC0KbIQaAg3IVNvUaqCJWiCjVCvLkMs6GJ0+vxS9WQZ4fD8nzE3lj+Uw+1hGGcgD48RYNox4yvQs/OHkRfviuA3HIBHlMb7tx0H7T8L2zjsCPj98PyyeheDhKlL8wAREDwMKShbKhdIunzKnSC+QNVJJXMfmssLdeQAV5zeRDBEPzYOP2Nciba4aem05poUjA9K4EX3rTfnj8vQfhpEUT8zG97cafrJiHX/3lEbj+yD70m1Xg+RS/dGfLGqyCMBLEALCQTgAg3ityL5p654rLmr8CeV40KA9XHhF5XncvdwCuvOfdM1kbxq8g74gqX947jrBsk5EAOHt5+pjeT8hjetuOjlKCc9+2BJvffyjOWdSd5nF47dIY2K1jsArCaBADwOCE3Al0fr1VkMr1wqk817AaLCu+RnnA9c6D0QdyMT4cEJL3og9VytsqEvnYyn4tlAPw9vmT8fAZS3HT2xdgljymt62ZObUHa085FI+euhDHTUeBYSsI7Y8YABYVUJDwPVvHUCCKnXvv1cjrWuVVQJ5636qyPKqRh1suFD2wQwAqcB12H03K4qmdWHfCAbjj3YvxanlM74Ti8P2n46erX4V/f8sMLOmW0L8wMREDgMIT+MxOvrKYsoWJIDtu7YOIh+0sm0vlySuNHhTJ6zrKOydhx5zZDVSeizd3Rzq5Q+GLx8zBpjMPwulL5TG9E5k/f/UCbPrgClx2aC+m2FF1qgAAIABJREFUllojYiUI9UIMAIqXwMfGuPOC4f1cno+RO7MEYvLkHF65auRRLI8K8iHvn5et5vpNiALw/oOn4+nVB+Nz8pheIaO7s4Tz37EUT79vGT44vyM6Z0YQ2g3pAQ3UczYhbQcyR9/O92cLjdQiDybv1aNAXjN5Z2EaNgxgxbW/XfSAn5HKN6kR8Po5vbj/tCX41+P3x/zJ8phewWe/ab245d2H4oGT5+NN05qzHQtCPREDwJLFzDXZdhQ58eadbSZDt1Egr5h8aNuTR8D7jshw5czH6s1faNnemHzo+rFlf5uE+ZM68K/HLcB9py3BMXPlMb1CZY5eNAP3rl6Bb75hOvaXJSCENkYMAIpK3G0+9g+w8W6dlrPKMfHLO++5gqxWPpIvUCSfVCGvNZAQ+SRy/Vi+AF0CmD8KuMH0lBQ+d9RsPL36YLz/EHlMr1A7q1+7P576i0Nx4SG96E2az7gVhNEiBoCBh96dKW2AO7/f7CNK1ZOHK28z7omYJ68j8orIB8L1VqlH5BGRtxEEEtIPhfOpgg/mPDSX8j9tSR+eOPMgfPH1czG5U5q4MHImdXfg4uOW4slVS7BqP5kiKrQX0jsaeMa+kxBHwvZGkToOgaogT97TefyePCvP3xt5T9kGohM8ryAqz40K95Th87HhhiZR/q+e2YOfn7oY3z5xIQ6Ux/QKdWThzMm49T2H4q4T9sNrpjZHexeE0SIGgMF49FShecqSRQX4+HpUPuRVVyEPJs/rUzQ+P2p5ti+Uk9Akin92Twk3rZyPh89YipULJje6OkIb89als7B+9XLcfPQ0zOlqjvYvCCNFDACKDfXTBEDNCwS2CboW+cC4opFHQD7mhXP5WGIelw8l7UXlA4ZFg5P+OhPg49ljes9eMQNJkxgkQnuTJAofPuYAbF59MD65rBcyyiS0KtJ0Lcr9s3qPecnBbTK+rmqRZ8MK3Pu29apCnmfn87KxfaOVbxB/unAKNrzvIFz7lnmYJo/pFRpAX28nrvmTpdj4nkU4eY7kBwithxgABqPIFX0Pq9vdcmabbATldXXyVBHz+jjXiWxXkkdAxtmXDUFwee7hh9YCGGcOnd6FH/7ZInz/zw7EwdNljpbQeA6aMxXfO/1Q/Oi4uThsinSpQusgrdVB5QrbUeTKK+ZsONn2VD7k0RfIO7MOYvIF0YFQcqCXpBfz5ANj+jwiwLfHkeldCa578354/H0H4cSF8pheofk44ZDZeGz1oeljhztlOEpofsQAsNBxe+U7z/YY3IV3rKdt5FGjPPJxdyrP6wa4Sjckz69jZSPydPpfLFeA5wSMMyUF/M2K9DG95716FjoS6ViF5qWjlODcNy3E5jOX4ZzFvZCnSgvNjBgAFqN9A4rUyYoHPA8+mDtQIM+vGcwdYPJB5cuOK2Z40ChESN6E/kNj/7QO0euPLccumIyHVy3DjSvlMb1CazFzSjfWnrQUj5y6EO+YJW1XaE7EADAowB2wZ16w2UXn8Xvj7HRBHHKMy6ta5c0xEDkQhR9YyMfx4kmZkHxoISBuTIzjmP/iqZ34zgkH4GenLsYRs3rG7bqCUG9eNb8Pt59xKP595WwsmSTdrdBcSIu0UC+devvKVcpUCcey9x3PHUyp1yAPKs+9c0Wy9xM2Po+wPD2FGTqIZf979zH2EYApHQkue/1cPHHWQXiPPKZXaCP+fMVcbFp9CC47YiqmdMi4gNAciAHA8RzwiIfuLH9LvWsm7zjOOl+jP7a+Pu8bYisExuT5SVj1/TyEAOMc7lcAPnjIdDy9+iCcf9RsdJekWQrtR3dnCee/ZRGefu9SfHBRT2wlEUEYN6SnpVBPm67ix8foC+fMM3lVqzyrT6ycF50g+2Pyqgr50PXHkDfO7cUvT1uCW47bH/PkMb3CBGDetB7ccvIy/PJd++ONM6TNC41DDAADj9J7io+MwXtj+wElGZK3m0zeyWwPjOHbssrdDl5/lPJODsDYjfsvmNyBbx6/P+59zxK8Th7TK0xAXnfAdNz73oPxzTfPwoJeiQcI448YAJYsZk+n6AFEOVLFSr3yiIynXJnXbT1yslhQaAlentRHZR2ZEcgDrpLn8mPg/feUFD5/1Gw8ddbBWH3wdMhjeoWJjFIKq1+9H55efQguXDEVPTJvUBhHxACgKPJxxBLiQjkBRvlTecerj+QLmPOaY1QmJE+VvBlOSCLyziyAUL4AMwi4zBgo5lVL+/DkWQfhEnlMryA4TOrqwMUrF+HJVYuxan+Z+SKMD9ILG4w3HkqSs4qXec8gSt0aASF55cqDydPwfDBJLyKvFJnGp/zEPn792Jh/bPpgnThiZjfufPdi3HrCQiyaKo/pFYQYi2ZMwq2nLMOdJy3AEdPkGRfC2CIGgCGWbU/f2yg/V+KqNnk6XECVureIj3sJ99wkXF+N0ubyukb5EdCZAANHz8b605fhbfPlMb2CUC1vW9yP9e87BAMrpqBTlRtdHaFNEQPAoLJ/RZn99j3y8Xy7HZNHLs+9eipvzm3Pq3x5hOR1WD4UKXDqT+S9c4+exVM78cDpS3HRMXPRKeOaglAznaUEF608EA+csgiLk8FGV0doQ8QA4Ohs8r5VxEVuufb387XzHXGuyEPyiMiHlLoZOiiQp+Vj8nWOABw9uwf3nbYUR87qret5BWEicuSCabjvrMNwdHk7sGdvo6sjtBFiAFio984ULxBJkFO+Io2Ns1eSVyH5yNg89+LrJV8Hjl0wGT9/9xLMnSTrnwtCvZjb14Off/gYHNu1B/jjC8DwcKOrJLQBYgAY6Li4eU8fDGT3mw0Teg9l6DN55zpE3p4nIh+dhk+XGIytKBiQDz39r47K//AZ3fiPExdKhr8gjAGTuzvwH399DA7vLQO//T3w8vYxXatDaH+kp6bwMXkbHmcWgB2XV26ZmHwo898pz+RpfaI5CUw+lMzH9/MoQR1D//v1duAHJy/CtG7JXBaEsWJabyd+cPYbsd/kTmDLC8Cz/wPs2t3oagktihgABq2RD6dTxchzAuBm8hvPnS7IE5IHfEVuvG8qz8tVkkcFeZ6T4N1zfYyArx27AAfIFD9BGHMO6O/F1957JAAN7NsH/OE54LnngUFJFBRqQwwAAx/7V2SfSpDnAjhC8Mb+g/IRb7uiB4/RyTvHIvvrwP85ZDpOPnBqXc4lCEJlTl4+F//nmIX5jp27gGf/F9i2DSjLtEGhOsQAcKAeMRnDpzMD+AI/sfF4Rx6kDJOnx2IL8tDMfi4PcqxoQZ/YbIRRMq0rwbVvnle38wmCUB3XnrIC03qyhwmZSORL21NDYMfOhtZNaA3EADDQsX5F9il2zJaHn/3vRQmYPE8FiGbv00KIHKskz4yBOip9yrlHzER/j4z7C8J40z+pC+e+dQn7/WtgeAh44YV0aECmDQoFiAHAsWF3uM69Pc7zAAJl+Lz8WuWLlHVoOl+wTNGx+tDXmeC8I2bV7XyCINTGeW9bjL7ubMqtWaXUOC5796W5AS+8CAzJtEHBRwwACg+7x7xrOq7u7Uf15UL77cUryCMg71Qebr3HIALwvoOmifcvCA2kf1IX3vea+YA2fY8my5Vnv/mdu9JogEwbFBhiAHjEFCZ5YI+mY/u8bEheuQ/8oQ/v4WVDwwVGno75q4A8HYqwQxRwZerI+5ZNq+v5BEGonfcdOT9/4zgrZIhQl1MD4Lnngd0ybVBIEQPAYKxnAPkUO7hJfcbjdjLryfQ/XSDvZexzGS6PYnkDV/JUvjC/YHTM7S1h5QJ5wI8gNJqVS2ZirpmCW5TsqwAMDQEvbAW2vCjTBgUxABzoDyaJJNTxAXuqXJMq5K3CzpR0EgnTcyXP5UMGQZF8nXnrvMlIxiixUBCE6kkShbcunsGGBGmfQKKPxpHZuwf44xbgpZdl2uAERgwAC1OifLpf8ME5LKQfk6chfK6kdUSebqsCeXN9xX/wTL7OHD1HHvQjCM3C0QdMZ94/3DeK7TR9ws6dwPN/TPMEhAmHGAAxuM60IXu4SpYaBdEfIHvPlXStCpoPMTTAEz9qthgAgtAsHLVgGsn/Yc4A91k8J0Sn+QFbXkxXFhQmDGIAGIyFbH8gyt0P+F49zcYHyNg+kw+G5pX/A42N88eiAtQQcI5lX+sYZvzuP6VzzM4tCEJt7D+9x90RDP2TfsmWyQ9jaAh4cVu6mqBMG5wQiAFgIIv5BZPxqMI2x5x1f0cgT0P/Tl0ia/+H5G0yIpMf48hAvzz0RxCahv7eTrgODPL3FOc976ey93v3AS++CLyyM509ILQtYgAYgnPuQ0vrKn/bWZGvBnnrxUeuH1zat4K8U3bs6O+WpiMIzUJqAHD4MCWPFrKhS544vHNnOmNgz56611doDqQXNyjEk/EsJlwfWP8/JO9F4ImMZvKo4vp0zf/Q+v9jMNc/RldJmo4gNAtdHUnA24+E/GnfRKcJa/gaoayB7a+kwwKDQ2NSd6FxSC9uCYXMletZ58v3ueVjnrcKyNNEHeu9m78i+cC6/6HygiBMXEJ9QGiYkAQp7XuFdEVBIJvGTAoNDQMvvQRs3yHTBtsIMQAMdEEe50dEvH2eNGNX9NOut89DacExfbgr+lWUDyj8cfT4BUFoIVT2jyv/YF4SlTFlVL6Pltm3F9j2ErBbhgXaATEADNQjt/uyfzwBD3Q/kfU8cn4sII8CeXoM8DP+x3HMXxCEJofPKoqWi7x624H+DEj7oV270kWEZNpgSyMGACWYdAeSIRsI+dOsfy5P9X1ofJ8r9tj1DfZYVp8GjP0LgtAKqLyfsLuY988tBedYtsPpj9jQ53A5nSmwfUe6LbQcHY2uQNMQCoXxFbSoE09D+MoR8s8ZU85FCr/QGBDFLwhCACfxj4T/nf4t5NmrwJoijgcDd8jARD8BDA8B27cD3d1AbzfsOiRC0yMGQBDm/dOEGet1820qXqCUi36I9ZIXBGHiwfsg+p6vGUIz/k2Es2jWAL9QyCfZuzddTKinG+jqGsWNCOOFmGoW7UfF7Ng83B+P3UfLa3ebypttel67zWSA8DK/ovgFQahIKN8IefifzkLKitvj5BTBPIJov0POXdZpguCOV1JjQGhqxACwMI3Of0R0DN9m/2dy3vhYYPytaL4+nxoYSvpr0Hx/QRBajUD/Yrovk7MUimoGhzFNIb7PvBIHiR4rl9MHDO3aLdMGmxgxAAxmTB/IfjBszMvL2Gcy4PLI5VVA3sogIA+/bExeEAQBgDtG7x8qnG0E+H1VLugbCYpsh65lzjc0lCYK7t3r9pVCUyAGACWJhNmdPACSBWiX4A3IVJJ3FDqXKfiRyo9IEIQoLHnYy/xnm55iLyoDd3jARhKYkWD7O9LX7RtMpw4ODo74zoT6IwaARbFwGNwfEl9vnx7XrCxfOKhW+ZCRgIC8IAiCocj7p567V4yOB1Q4F5VJuMLn5+bRTp2uG7BnD1CWpw02A2IAxODt34mKMSUdm6YXPXcleUEQhFqJ5AbR7H7yCBI3+gjiaCDfyR0W6v3rQBk+I8qeh7wdLgN79qZRAYloNhQxACjeGJhm78m2Da8FrGb7ewstAVyNvPmxBuQFQRBC8FC9E9HM+pLEHDS7Q30LiWKa97wPShS5BhP18gZ4/bJzDw2l0QAZFmgYYgBw7Mp+ClBJYN1slihIrWJ6DiNvxZnCp/IhlAISJi8IglAJo4Rtd6Xyfio0599LNuYxfZacbKMJrE+M1ic064m8Dg8Be/bJsEADEAPA4GT3Ew+cN1Y+MyA0vl8kz8vFtrm8IAhCVdA+Be60v6KwfkievjqHSX/pzAwg5/USDui1ieGgFYBy+rjhwX2AlmmD44UYAAbzQwk1ZgNdsz+0fr+j8EchL+NigiCMBJr1r+EnNucFSSG2y5yH7uOOfrSLokpeM++fzKCi56WHyxrYNwQMSzRgPJClgCmKW6tgjTlgPTvWNQLy2bYukA/VQzx/QRBqwYTjbf8RckaokxPy/p0TkhdFlLlyZW0UgOcNBFYj9E5P6mKGK6DSRMHhYaCjBCSlokoKo0AiAAan7dLwlM4jA16Sjc4brm28XB5h5Q/AC/GHpgIKgiBUjYkmwu9DigyDIu+fryMQTBHgfWQsgTlgdJhzOAZF1jcOl9NkQRkWGBMkAmAw3j5d6AdgPwbWSpVb1DWCA+NnsSf8ceOZHxcEQagGjWx+Pum3FPxs/9iwgGKdmi1m+j7myMSGGBR7o9hO/t7UyRoTpKDWqSGQwE2MFkaNfJoWFVfQAPPw4b6aY96CQPwSzBig5y6SEwRBqIZE+creUaosfJ/t8t1y7fdvjjGA3GlyvH3qGLH3VoZdz9TX6QfNPzLsUNbpsIBdg0AYLRIBMDihK9rwEFDKoQbL5IuMiaIpMZL5LwjCSPFC6Qj3Nw6hqCSLdCpWzgnb03Py0D+JHITgxgI1VIJ10tlwgMqnIUp3OWIkAuChSGMMHa7ix1SUxFdJXpS/IAgjIjAsCQSGNV0R/zTkJCbJWbPwv3V+mML3fCUW9jcGg5HXpK/lD0ODhhN5Ba2LOS65AaNBDACLdhse4CrySorbeyqgLpAPXV5iWoIgjALqQDv7qfL2ko0CZQgJVexMQRtlzuf8xyKmdHfiHkpzF0g9omursCEGJSpsNMgQgIWNV9kGHwjNR7P3AaeVx2R44ox4/YIgjJpAOLxw+DF+mhSdh9npfuu9czk+DZAIKbLfvNqERZA1C4wsmUWVZIaLY79EIg5CTYj5RKEhKJv4kjVkaonGFHYok59bsDLHXxCEscD0X7RXd7x0uugP99iZ8WA9cHqBmIHBhwJYOS/pkFxXq1zxO/0iPU9gASGhLogBQHESX6gnD2L98jBYJBIQNRIqLI4hCIIwEpzkPJV76SEnhMoAcMP7RJaH9Z0kw0rRBHZuPtbP5Wj0ld4HyHvzRhypuiAGgMH5cfDElsCYFDcSeNmsiHdMIgGCIIwFxKl3d/L9JEfJFqPetc6dmNg8f3p+VY33z6INtCr0WtQKSJSbhCj9Zd0RA2AkKEUiAUUNM7KfyguCINQLp1uJhf6zY0GYgg5E5T3nx56XXot7/yAGBTnuDSnAXceAKn977YLqCzUhBgDF8c7hKvlgGabIvYzVCvKCIAj1Ijr0GNCyUe8frhJ2lC3XvMT7j9aH7tC5EqfGCY8K2PvQ5Bxk8R/pO+uGGAAhTCiKLjvpGAU63441RqXyDFfzHpmMeP+CINQbDdInEQ+cD0VSvMQ75FPt+JQ8LqO4g0Ou7dSBvlLPn/aDtN6kjEkSlKz/MUGmARp4Ag3AVvPL/lEr245dRaYFej8c+08QBKG+hMLy3AMvDP0HDrMRhPCBkCdPvH2vXsjH9pOQgZHJ8+pGIxzCSJEIAIWubuW1MxLup158SPnHHvErjr8gCGMFXfEvOPWODT/aKc6Bc0WdGOPhB4Y3qRFBhxH4ND4v8c8UCxgPzjlF+dcbMQAofKzL/kCIl+/8xc5DyoDJC4IgjAV8LN0hMLMpF0Q+rMnO4RkR3kXj56XFnSl8sXPETi/95lghBoADbcRkJSqq/O1OFIyNsSiAKH9BEMaLUFJfSInaXdYlD0QEAmMC3Pvn56fvjVGRGO+fRw5UXoZGJEweQnCRIKFeSA6AwWlfZPCJNjyaYFPUIIueBCgIgjAmGMUf6b9C8/SpAi48tQq8pxra7OezoshwKlXmjijrT726SB86VkgEwEJ/MBEFz42B0DE6bCAIgjCu8L4rkKmfFbPvHUWcn8afPaDgTftzcgvMKbMNrfMhBR4tpZn99vrEWEhiEQmhnkgEwMAz/4u8+KJ5/SF5QRCEsSaY+EcVNjuuwaYq23/wtS45VyiSYK6lqdJWTJT2iWwIwJbLDBhJmB4XJALA4Ql8loJFfWwRXSAvCIIwlnCtmbnWIe+fRu75MrueYs9kvWFSkPPTRXuy/cbL10zJhzx7peEtPiSR1DFHDAADT9rTrEFXaoj80b+y2I8gCI3CG1s3jgk5Tj15zRW8d7JsMzREGpClBgZV5s74PqlTbGqgMKbIEIDB/jjYOFXhfNgK24IgCOOFMxxZIfTPlS7d75yPeuU89M+jC9wwYMecbeVsOt6/LPk7bkgEgMItTz6Xn+8TBEFoSiKhf/Ma7ccC+4rW+4fOjrNrGc3uGQTEgEgybc9WBE6LSh87HogBQKnGk49l/xfJCIIgjAdeF8SUsJd9z8fnI8sFB73/QBnqyRvjgBsi9vpmmFXlf8FVWIWxQgwAQyzjn88GiEUCRPkLgtBweD9GvX9F8ppI/0VX6QNVxiri/St3M7SEr+bnBjM2yDYdkvCiBsJYIgaARbNXxMNkCu6KVnzlP0EQhPGGKlezg08NdDKbibdtvX9+Mno+usAQmCzYMsI61S40j8CUcXIUTP9pZET5jyeSBGih3n22i07r40tYhsoIgiA0BUzxa+Tunpn/b/QwDetTAROet4dpdIFPA6Sn8E4Md/xfu9e0xcUfHW/kE4/hhfizVz7FTxS/IAhNQcAR4d0TnZPPQ/9ApD/j56UPDiLnsjkAgdUGQ9BhAhYoEMYHMQAMFaf1kR9IkojiFwShSeFhf7AV/+hYPBAM/VPv3/HWlV/G0e8kUkrH9HkwwNkvw6eNQgwATmw838mk1ZClfgVBaCpiiX8G81Q+rYu9/1i3ZsP3ZsnfzNtXyM4Lv0/kwwtJVg+acqXEoWoUkgPgERnTl7F+QRBaAU8JK3e534QoYGcBHwX3Ub+e2x5O/HMuZ/pJMCODn4oOFUif2igkAkChy1yGxvpD+wVBEJoNmofHx9id6fgxp4Z49zz0Tx/YY47znD+73gCJDBjvn15DEv8aikQAQsSeBChhf0EQmhblKnr7ahS3JqH62CkiuVAAiQ6Q89McAOvZU+PB7NeuwUANE6FhiPllCC35GysjCILQbCj+Rrnj7U7oPyvjKPzIoj+KHOOP6/WUf7aTrgpoT0WOh/IFhHFHIgAGaiWbUH+RMSAIgtC0BKKVzjr79DgdGwglAhJ33SYCGk+fGQhczFsGmJxcutWGIwaAhVilIYUv4X9BEJoZmnGvwDL1qdKlsXcSrvf6N6LcTbKfs8ogSD4UDf0r9h75KoHGlpAV/5oCGQIw0JBUKNFPlL8gCE2P6cNAdLxyjQOzj+6inroTznfFPE/esxlo4h+X16640HDEADDwh/yIwhcEoRWxCt242yAOTjBdnwqG3zor/THvP2HXsvucBIH8ROL9Nw0yBFCEGAGCILQK3nr/QMBFj3j/LErAcwCM0nbKmHwp52TZ9bVbF8XOIzQFEgGgyON9BUFoVZzld82+7NVTvFzJc289EN535vYHhgJsgEH50QIWXBCaAzEADJLxLwhCK8Mj8XTbeZppBUfHJP6ZN3TRHzOWn1BZWtZci+YSKBn7b1LEADCYH4is8icIQitCvX8vmsmT+nTlMtyi8ML95nrG2wdLOIQrK85V0yEGgIEm/0lDFQSh1eBRTO7LBOfkB8oYz91ZuU+R8D4VIKsDOlMNQ3kGQrMhSYCCIAjthufMFyhk+gwUnsnPpxPyBYaoseGsFggWMRCaEYkACIIgtBs0Yc8SSOwz+51NEimwEQCQPAKzzyh/BWcIwUsNEO+/WREDwCCNVBCEVsfJ9ueP2w08ftdZ/4StGUCfI0CNBw13BUCaHKjY9aVbbWpkCEAQBKFdiD74B5FhgUDiH53zzxcUMu+d9QYy48EYDE4+gFgAzYxEAARBENoB6v3rgLcfeg/k3jvFDCFQb185B/Oxfq1dxc8fpiY0LWIACIIgtBM8C7+aqYFUpvA5AmTs35zTWXHQGAOiWloB+ZYEQRDaAbvePw2/k7F9A0/Yo8pfMdlYJEEzhW9PZl4k/b8VkBwAQRCEtiFz34sS/wyhnADj/fMnBpsNOivAHgudW8L/rYBEAARBENqBkDKOJf45DwAyoX9NxvHhZvoHz4UsR4AeVKL8WwgxAARBENoCnnkfCusbtL9pw/7ws/n9cIBrLBjkaX8thRgAgiAIbUc29u954zSMr/P3hSF95e9KQKb9yZS/VkUMAEEQhHYhmPjHw/JE+TvDAHQeP4h3XzAUoPzDQusgBoAgCELbQDSy4grbePt0xT/423QFP82mC9Lr0AenifJvScQAEARBaAcKlXFkDB/ZCn529T9aLjMmFPL1/p1z60CugNBKiAEgCILQFoS8f6rwydCAWcXPPujHiIae9qcC+8glhZZFDABBEIR2IaaQ+Vi+Uf7e4kFgZQw6SyoEmfYnyX+tjhgAgiAIbQF7YI/zh1zpG4+eZvDTR/86p2ShfxM5MAaFKP+WRgwAQRCEdsAZiyeJfN5T/2y8P/fonSJE4SvkCwRZY4AbD0KrIgaAIAhCOxB92E8Wvjfr9xtl/v+3d+ZxVlRn3v+dur3QIIRNEJVBjYh0o+MbNDomSoyTeZPM553MJvMmk02jAm0iEjdcG9wRIktUNMYsmokZSfJGJ9FEzShRjBsqMbQaEUUYadZm7aa7763n/ePeqnvq1Km6t+ml7r39+34+dFfVWeqpS9/zLOc5pxwVvGbz/i2XmfhXOdAAIISQisFQymbCXkhpS96jN7vQ9wLQpwKo9ysGGgCEEFIxSN77t23ioy/788P4eptcPTHqe10Etg0m5Q7fBkgIIRWBmbmvLfsLXDPyAfTpAs8oMPIH/RUDAJV/BcEIACGEVAQWbx/QPHhNiduS+DyFr5d5+/3rSYOkYqABQAghlYC5nl/f6CewIsD7bVnG508PaKsIHK75r1RoABBCSMVhhPT9N/d5ZWKprk0heG/785YB6ssKScVAA4AQQioJP/nPWM+vdCMAec/eXAXgJf7pbUO5A6QSoAFAuo9Se5MWgRBiErdUT08QlHxUwC82Qvz6vgD6y4JIRUEDgBSPUgKoH6FOHZe0KIQQg0z6p1A5X17ftc9DivHi9S2BJbgNMKklCYD6AAAgAElEQVQ4aACQ4lBqFZA6BRdNORfnNrQkLQ4hxODO+7+Frds/DZEX8nP3QHBPAAl6+Uo70DP/vevc8rei4T4AJB6FjXDUlZg55aGkRSGExLEHeOjBNVDVn8OF5/0zBtfNh6uOzCb0IbxHgIcg6woqzWAQI4eAVCSMABA7Cm1wnHkYPXwSlT8hZYBTLVDVgj1tgvvv/AX+sHIqMu4tUGgDoG0FrGt1b35fcgECfyOAXDEtgEqGBgCxoB4CcDxmNdyA6ePbk5aGENINRowAnBrBH95sx/333IYtLf8LGfVwYIMgPfTvobTQP8DEvwEADQCSR/AK0u4ZuGjFl9F4wiaEFgsTQkoWVS3YUyvYtT/7vR0NYOdewfd/9CEWLT4Pu9s+Dcjq4B4ByIX+zaWAZCBAA4AASm2Gcs7DyjdPw+y/fh6YL/kEIkJI2TCiFRgJoLVWsB3AoYcCziCBUye454EXsei2MyCZCwC1OZ/0l2ure/z0/gcENAAGMqI6ILIAezZPxtNrH8CKtQI0ZctU6C0ihJBSZk+bACOAnch6/85ewY69+e/x5lZBarDgrh8/iLc2NQC4HUBH/pW/XPY30KABMGCRX6Ft3wn45i+uxerWfVixAsB8APNya4UIIWXFCAC79gtUbf77OxaAUydItQqO1Oou//F+3HvTddjdfgKAXwXyAZj4N2CgATDQEHkDnenP4Ad3TscVj7+HaUBW+dcLmppgeX8oIaRcGIn83L8zSLCtTpAakv1OpwYLqocJ1rUI6gE0jxA89fh7+Nbb/4q0nA0Hf0pSdNL/0AAYKCi1HWn5Jlb84uOYs3wlVo/LDgpjGgSozx7Pn+8mKSIhpAc4NYLWWsHOQWEjPjU4f63e0nbOL5/BwzumwqmaBaW296GUpISgAVDpKOmCK9/FxtZ63Hvjfdi3OYOpAKYBQINk5/2BXOifEFKutNYKRgPANmBcLvEPALAp+8vz/oGs9z9tnGBlgwC5MWDlWWk01t+DuiEToZwlUNLV/w9B+hMaAJWMuL9Fa8fHsPS+y/HIU7sBAKsBrPa++Cuy9ZoAhv4JKXP00P+W3DUv/F89LP/9rhshmApgZXN2DGgCIJoDcO7Ru9DYMAeoOQGiHus3+Um/w2wPj7veqCAFKG+jI305li59EhuGCepHCpo3Z59v2jjBSgDnNAjq1wrmA0D3Q/8iXCdISCmhxlw01Pf+vbn/1M7s99QbBwBkx4JxAnje/3wAiB4D7ln7WaTdxVA4vh8eo3+46ATqPjACUFkIdqGr8wo8/OzJQeXfDEwFsl96AGjOhv7nzwcwn4qckErgUMBP/DM5FkBzM1C3ORv6R4PgHL803gGY2fBbNEw5AUrNgWBXL0tNEoQGQCWgkEHGvQ/vbpiCRT+5EytfSqN6mODYXHk9sqF/AFjZIDgn981vagK45I+QymDbtuyyPwAB71/P/F8NYGWujp//UwRnqTQapyzB0KpjoZzlUMj0pugkGfg2wHJH8Ax27L0Cy3+0FqncRh8TcmXrWgT1LdmEH4wTTAMwBrkv/nxgfo+UfyeAmh7LTwjpDTqD3v8mAIOzhzUjBWjJzv17iX/nIJcC1M3pv69N3gGgEfe+tRyZ9BKIfLr3HoH0NzQAyhZZjwMdV+P2Zb/ObvQxRIDWbJGe8NOcS/hZjVzSj6/0e7rhTyvy/gYhJFlaMRbANuQS/4YAG9Lih/7rkU3+RS75d0W99Gj6b8bxbwA4G3c3/yPgLoLIR3vnMUh/wimAckOpvejsuh6P/ebkoPLfBGzyNvpA1uqvzy34PSTn/fvM743d/lp72J4Q0kuIyK6A95/amVX+NSPzm/4AyM7710tux++eT/811v8KR9U2QKm5UGpvj/sj/QoNgHJBKUE68yD+8vZJuG3xHdjY3JlX/kAg9O9l/XvZviubs/9Q72X89gabeqsjQkjPEMl9H1Otgk3apj/NzdnQvzcFuCK39Hd+Lyb/fn5iBxqnLECdOg5K/ZDvESkfaACUAxl5AZt3T8NN32vEE7/fCgDYguyXHcha+xuQD/17Wf9Tc+3POQf+bn/Z1/z1xhd0deEqhJD+oKsr/XrWGTgSmIBg4p+HN/ffOxHAMOc2tKBxynlA6hQotarX+ye9Dg2A0mYj2vafh7uW/B0evv91YBv8t3s5ddkvu5fpe2xO+deMFCAX7lttWP2YL7244c8rvdQPIaSHtLV1vuqH/jfkxoL6+mzo/5BxAuQ2/Vmxou9f9tU4eTUap3wSjvoiFDb26b1Ij6ABUIootCGduRVP/fZk3Pa9n2M7gJ2Dsjt8AQjM+3t48/7ehj8efugfQO9+8Z9FofXDhJD+wH3ttQ9WwXvd37HIrgCq25zb8Q96FLD/wvOzpvwMo4dPguPMg0Jbv92XFA0NAA9RHUmLAABIuz/HXz44GfMX3oY3Xj8AABg7SHBorlyf98eR8EP/xwKAFvpfPU5wjvain17e618ptQX5FcWEkIRwXfnD2V+7bytSOyW05t/P/Af6LPQfx/Tx7ZjVMB/VgyYB6qF+vXcUpTLWlwA0ADwc9/1E7y/uq9i87X9j6V3n44Gf/g9GAkjVCpy9gm250L+j7/CVC/chF+5b1yJ+pq/3pfci/70b+tf5WR/0SQjpBu3tnT/PK39kl/x5a/691T/d2fSnL7hg4iZcNOVLUPgEoF5OVJakx/oSggaAj7M+oRu3oH3/RVh4x9l48McvBVbXea/1PPTQ/DUv9O+929tb6oPcev9D9G0+vX2+++y7/zNwOSAhSdL6y1/+YQU25M7qRwpQn9/xb2Vz/m1/pbDpZ+MJz6Ox4VQ4zrlQanMyQiQ21pccNADyvN6vdxPVgY4Di/H7x07Bjct/CgBItQl21QhGIvtqTyCr/L3EP33Jn46X9b8696IfQEv8k77y/qGU2gNgSV/0TQgpTEdH5s6vXvcfe/xIYHNz9mU/3n7/OCf3ts8+iwJ2H6UEsxp+hNHqOCh1awIh+f4d60sYGgAeKdzfb+tXM+5/4Z0Np2HJ4huxunkfhiMb7vdlqc0m/B2KfOjfMV7wUa2F/r2s/2lAfr7P2+yjz59pKRgFICQJWh977MU7sQHZxL+aFsHU3Jp/ANm9ftdKbs1/aSh/nekN+9A45WrUVk8GnF/2yz2VEqRwf7/cqwzgKxF17v7zYxD5XJ/1L5m12Lb7atx/53NwqgW7qwXDc2We939orWA7sol/+ry/7/3nlvl4mb7efN9qb6nPOciH/Lr/mt+DeiyRrwH4UX/cixCSZd++tguGTmn8ie8M+KuAtC1/US/ZBOAS8f7juOvPZ0HJEghO7LN7KPU4Gqd8vs/6LzNoAOjc89bJcNOrINK7L7kR7EB7+y2498EHcaAtA+wBnGqBqs5+Kfe0CUbVCHYCOLRWsnP/27Kv9vQNgNyLfgAEvvB1m8Vf77+yOfumv+zLfvrV6heRXwP4+97qb+eBNH68pgUv/89erN/Vjg/2dGB4bRWOHlGHiSPr8G8Nh+JvjhjWW7cj5KAQAL/ftB8PvbMLf9nViff2dmLngQz+amg1jhlWg6mH1uH8+hGYcEh1r97Xdd3HU8ec988AsuOBvgR42jjBmAZJYhzoMQ9LCjuaz4fITRAZ3at9K9UJp+oTmHk89zDJQQPA5K4/NwJyV6/0paQL7envY9ULi/DCC7vhtAswDHDas8p/FwCnTTACwK4agbKE/oFw4t+6kQI0Ixv615Q/gPyyv/7x/j1E5DAALwEY35N+mre34fZVH+A//7wVB9IZQClkxy+VO86hgJMOOwSzP34kvnriWM5lkX4lLcC9a3di2Z924C+74qewHaXw+QlDcdXHRuP0wwb3+N4ismnlyjVnnPX1JS3+sj8vCdiPBCYzDvQaP3xvONr2Xw/lfhOiesl6Uhfhoil3905flQENABt3//leiFzYoz7Smaew7oPr8POH1kFVS0D5A/C9/1SbwKkRtNYKRgNI5UL/AAIGwKad4m/xWZMzALzQv28AJPulF5EpAJ4D8JHutt3VkcaNK9/Hshc3Ie26mrLXlb7tWHDSYUOx7H8fizPGMyJA+p7fbdyHOata8ObOA91qp5TCVyYNxy2njsURQw76Ray7331389nHnn3V2lDof1pu7j//3o/y8v5t3P3WJLjpO6CkZ2F7pb6HxikzekmqioEGQBTL/zwLgiXdng7IuO+gded1WH73f0NV5cP8jvc75/3v0Tx/IB/6dyzK39vuN5T45yX7BEL/iVr8InIWgP8CMKSY+q4AP3htM67+73exbX9XsFD5P7RIgHHNDxAofLFhDBacfTTGD+3dGRxCAGDdnk5ctqoFj7y3p0f9DKl2cO3JYzDnr0eh1unWELy/paX1X8edMmNlPhqoJQFD9/4rQPnr3LP2s0i7i6FwfLfaKdUJhUswa8ryPpKsrKEBEMc9b52Mzo5b4aQ+DSXxUWaRddi3/z786D8fxK7daagDeeUPZBW/nvjnZf07+8Vf8ucl/o0FsK1OQvP+Xuh/6gjBamhzfV6yD5C0AQAAInIygF8DGBtX79kPduHix9/B65tzbxENKHzt2FoGX/Hn6ygMrknhqtPH47LTjsSgFP+8Sc/Z2+XiltXbcMeaHejM9N7X6+hhNVj8yXH4wlFDi6m+5YMPWv9lwidmvBpQ/vX1COYBedtzl0niX3d4WqrQvPZCKPdiiJoUW1eUCwe/g1N1Pef8o+EIWQxNzx+Pj9TMhJM6ESlnApQzDkp2ISMb0Jl+D3taf4F7f/wsAGS9/gPBML/jTQHkrqVqBa2twCgt9L9zb3CvfyDs/Xuh/2Zz7t9/zW/iyt9DRI4G8EsAJ5llG/d04Mon1+GhN7bkL5pz/SL5a8pBwPvXvP7AsdZ+wrBa3PGZY/DPk0b14VOSSkYAPPj2Llz5xy1oaesqWP9gOfvIQ7D0jHFoGFFrLXdd909r1mz8vx/7h6XvB3KBalokOA3YIGgq4WV/vck9a89G2v0SHDURkGPgYiSgNkJhPRReA2q+j8bjuOFPAWgAFIuIwpjpQ4DBh0Ay2c9NpQSqM6fYqwSqKnd8QCKVvxf6d3JZ/5GJf5r3v2GYZHf4AvxlPt4X3lvyJ/Ok1N7DLSLVAK4GcA2A6va0i0WrPsCtz72P9q4MfO2tFEJ/iirmXFf2trratbOOGo6lnzkGJxza8+QrMnB4cWs7Ln52M17a0j/vsEk5ChdNGYl5p4zFiFo/2NjV3t51+wUX3HP7f6x8L2uB6Pv9V1riH+l3aAB0l6YmBw9uHoq9HXVB5X9AO9bn/XNL/vTQ/679+d3+dO9fV/7eq371ef+pxmt+V8JFE1DqFr+InPi9Vz986OaV6+s/8DKmC4b4IwwAXfcrZaQFWAwClR1cZ31sHOaf8VcYOeigk6/IAGBzWxpXvbAFD7y9CyL9/5UaNagKN506FuceP2zV+r+0XFp/1lV/xpF1gi3GdGDI+/cMgAoM/ZM+gwbAwTKtqQrvvTMUHansEhVr6D837+9d29OWPS4Y+s992Tfoe/3D8P7LJNmn6emTIJmlgJwZVvCSV+JeOB/QlLoxHRAI92t1/NC/1q93I639yME1uOnM8bjwpMPA9ACi0+EKlqzZgZte2YZ9XZmkxcluGrZv3+VY+sDKwFTghmEC5DYA86YCoUUC6f2TbsBhsKcc+61atO0+BG67E/L+nXbBbgDDjXl/IOv9O7msfy/pDwA2twom6Il/Lbkvtpb1f463yQdQsgZA09OjgcyNELkQAidyjj9SqXvHUeW2fAGt3JYbkOOEsYdg6d8ejbP+issGCfDo+3vx7VUteHd3Cb4lNiO/xNbtV+PBH2+I3gCsghP/SJ9CA6A3EFE4fEYd1IE6AMHQv7/ev1aA1vyGP/qaf9uGP/p2v17o/5BxEpj3z4b/S8vib3q6Cm6mEUrmw9vo2Kq8oXn/AALRgdxBQeOgG9EBS/tzJo/GwrMmYMIwe/IVqWyaWztwyXOb8eTGfUmLEo9SB5DJfAevrF+El19vy2/3C3Dun/QEGgC9SVOTgxXbBmPPtho/9L+7WjAq5/2r3F7/QDj0n2rNGQFG6L95s5bok3vNb32JZvo2/fffIZNZAiWTsxe0OXmbl+5XsUwHWMP6FkUfZRD413Q5wn3VVVfhilMPxxWnHo7BVdxPcCDQ2uFi/itbcdcbO5B2S+srFIvIJmQyV+KB5Suwepz4kcBSdARIWUADoC+Y1lSFlo11aMmkMEpb7w/kQ/+2rP9Q4l9H9kutGwD+XF8Jhfuanj4WbsciiPMFAIZyRzBpD4ZXHsr2h6XMNAYQNgT89hHRAPNeRp3xw2qx6NMTMJ3LBisWF8D3m1txzYtbsL09nbQ4B49Sq9DZNQeX3PJqWeQBkZKFBkBfUt9Ug86dg7BzJ2Kz/je3Co6E4f3nsnwBhOf6SuQLv+C5odi3/2oIvg2o7PZ7vhcOBBR5IDdP8/gBi0cfSO2PaG/UtW4drPVtGhOBNvnjM8YPw7Kzj8JJY7hssJJY+WEbZj+3GWu2tyctSu8gyoXC/eiS63DJCVsKNyAkDA2AvkZE4aiv12JfbrWAbbc/AMElPlro35/3z+32VwrhPhGF65/6CsRdAOCwyHl63QgIHMaF//VymwdvThVoZVHTDCG5InIDcu0dR+HCvx6DGz85HqPruGywnPlgXxcuf74FD6/bnbQofYPCbkDNQ6rhLsxQfbdbEalIaAD0F01NDp5BDd5anwIQnPf3Qv/ehj+BeX99n38gce+/6cnTkEkvgzin+Nc8pR0Zeoeh4LVzaPWtZV7fhoKPijSEjImY9qaMRs7C8Lpq3PCJIzHrf41FFb8pZUVbWrDw9e1Y8Oo2tKcHwPS4krfhpC7BzIbfJi0KKR84rPU355yTwh+PrEFmvwq95hewJP55BsB0T/Eno/ybnjwcGbkVrnwFCnkNG+ll+xfs5X6RylcJTAUYbQPhfLOuN5VgUfCBuhHLEEPJCsG+60fXYemnJ+BvuWywLHj43T247PkWbNzbmbQoCaD+CynnUsysfydpSUjpQwMgCUQUPjUvhfffz8eXo7x/AIku81n2Ti02r58DB9cAOCQ8Px9x7GEqXv96oFKwvW2+P/YYQeMAtuiAcVOrLBG5Arn6/3TcSCyaNh7HfITLBkuR13ccwMXPbsazH+5PWpRkUaoTSi3B0Jqb8eWJPXt1IaloaAAkiYjCyTOqsLvWyb7ZC/C39wSyG/4Ayb3m95rffgGuugNKjgEQnrMHwtvy6mF8r1Fgyt0MwevGgWZcmEsBo7x/j9j5fuM+Zq5AUe2z1FancNnJh+GqU8dhCJcNlgTbDmRw3YtbcF9zK9wEtu8tWQRbkHLmYmb9j1Fi7wkhpQENgFJAROHk71Vh9WoEX/Tjvea3n+f9r/ttA7qwBEr+NjSvDtjD9DbvP1TXv5gvsyn0WIMBhQ2CgEdvK4+JShSZXHjE0BrcfuZ4fOn4keFnJv1CWoC73tiBeS9vxa6OEti+t1QRvIKqqosxc/IfkxaFlBY0AEqJpiYH8+FgGoAx3na/8z212/cGwNxnR0C1zYNyGyGoit1QxxqiN+qEVgAYxkDU6gHv2LxPSEEXiBCYhoQt+9+/ry0/wKhvRgkAnH7EUCz79F9hKpcN9iu/27gPc1a14M2dB5IWpTxQSgD1E9Sm5uIbx3+YtDikNKABUGqIKKh52f+X7JK/vvf+H5YU1vzuArhyE4BRocQ5W1Y+EFbY1m15BVBO9nes1x6hhAP3MaYLrPsIeD8ilgvq/en9Fru00NLeUQrnnTAaN3/iCIzhssE+Zd2eTly6qgWPvsep7YNCZD+c1M04quYOfH5iCb78gPQnNABKF13r9R3XPP4puFgKyIkBl1kPo/u/jAiAqYijkuzM8yI8a3sWf4G+I6cOYp7JXE0Qt5dA7MoC4CO1VWg67XB886RDUe3wq9Wb7O1ycfPqbVi8Zgc6MwNgWV9fo2Q9UHUpGut/lbQoJDk4Sg1Urnz8KDiyEIJ/tSpIq5K2bJ6jNQl43ijQXiEmsqAd28r8SELupNBUgtkuNP9veS5bFKKYjYZEMGlUHZZ8ajw+O4HLBnuKAHjg7V2Y+8ctaGnjPje9j/o9qp3ZuLB+bdKSkP6HBsBAo+mVwejYNhdKLofIoEilCxjheq08Lswe0KlGuL9oD90XIKh4TQ/eb285NuUslPAX9fxR55HTFHn+z0dH4I5pR+BYLhs8KF7c2o6Ln92Ml7a0JS1KZSNIw1HLgaFNaJzQmrQ4pP+gATCQmPubL8LF7XBwpF2p5yjkwUct0Qu0946jygu0129f0MMvxoNH4VUM+pJG2BS85I+LiToAqEk5mPOxMbjm44dhaDWXDRbD5rY05r6wBQ++vQvCZX39h6gdcJxrMXryfZiuuKxiAEADYCAw99dTAbUUIp8IJ85ZvGPA4qXr15G/HmlIdMc4gKFULYaGtb0eHShQN6p9Uc9vPBMKPJflPocNqcaCTx6Orxw/kl+6CDpcwZI1O3DTK9uwr4v6JzEU/gSF2Zh1wjNJi0L6Fo5FlUzTE2PQ1nUzUjgPrjj2OXtEhMP1csMbhlk314FNiUM7t2btx4TVbXLqBWbYPkpOqyES9fy2aY2Y57eVx5yfetgQLPvUkfj4WC4b1Hn0/b349qoWvLubiemlg/o5ap3LcH79hqQlIX0DDYBK5N5XqrF+y7cgaAIkm4nmKTybsvMxlHLA2/Wu25S72UUhhR3XvlivGmGl7tWxRQOsfRd4fhObMREXZfCe1zAGlAK+NnkUbj19HA4bPLCXDTa3duCS5zbjyY37khaF2FDqAIDbkRq5ADMOZzJGhUEDoNK48rHPwXWXAHJcZIKbd+h5ut6xUS2gED3F59c19wcwvH1be8CiPCXY3iZnYDrA6NevEqWIi0gADMhvPqd3uyIiDXqZeS0kFzC0tgrXnTIGs086FDUDbNngrk4X817eirve2IG0y3n+kkdkE1LO5Zg15WdJi0J6j4E16lQyV/3mOKTdxQA+b52z9s4BSyjcOzCUZZThEJU4aM3wN+p0Z9OdqAhAVF3baoFCz2+7V1GGhdZlnDFhfn6WlQcTh9di8ZlH4O8nDA3fq8JwAdzX3IprX9yC7e3ppMUh3UY9h6rUbMyY/GrSkpCeQwOg3Gl6bBjaMtdDcDEUqgGEQ+B66D2gRBEsjwyra/WLih6YRkNE6Dz0xj7TQNA6sc2rW58R4brW+hYZo+qaz1goelDMtIYl0vDZo4ZhyRmHY9Lwylw2uPLDNsx+bjPWbG9PWhTSE0S5ULgfdbXX4LyJ25IWhxw8NADKlSZx0P7YuXDTt0A5Y7IXdaVXSFEWyH63KXO/v4i6cevqdeVoMwYA+7r6QF1N5oC3HxDAaB+hzAOrB8zn1w4ilXnU5xdjWESVe79FUF3l4OITR+P6j4/FsApZNvjBvi5c/nwLHl63O2lRSG+isBtKzYfTcCdmKO7SVIbQAChHLn/kE3CdpVAyFUBYOeqYijdQgKCSsios7cA6Z29pH/JuI+bhYdRXQWUYK1tkXxZjwKtv8bpjj72+fdkCHRTZPur5o6IU2apj6qpw69+Mw9cnj0C5mgHtGcGCV7fh9te2oz3N7XsrFsFbqHLmYGbDb5MWhXQPGgDlxBWPHQk3vQCQL+W9ZiAQovewJaDp3n9Ue2W0t4XzA+Xmmv2I+0d5/2b9UHtN5thpiqj2EQpZl6vb7fXnkuBzmW0KHsdHEqaOqcOyMw7H6YeV17LB/1y3G5f/cQs27u1MWhTSXyjn13DUtzGz/p2kRSHFQQOgHGh6ehD27bsMkKsAGRyrHPMFuUNN4cVlt9u8f7N9/mK+TLt9oC9rQqBFidsUelR0wJQpYHjE9BW3aU93Ev7Ma4WMELOuNeehcFulFP590nAs+JvDcHiJLxt8fccBXPzsZjz74f6kRSFJoFQnoJaiNnUjvnH83qTFIfHQACh1Ln/0X5BxF0Gpo+wK3vthU4imcWAzBrT+QhGCKO8/dy1WsZpy2hQ48rLZDALTkIj1/m35AYEOIpSsTc4i5vcLPXMxz1+sYZI7H1Lt4JqpY/Dtk0ahtsSWDW47kMG1L27B95tb4XL7XgLVAqWuxqz6H0Ep/kGUKKU1ipA8VzwyCa7cAxefKqxkjKV1uqIUAZwohW8oHDOcbQuXR3rtEUo4UIZ8eeTOgBHPpOO392bHzZUDptcd9fkV8fyhzy9GYeuGh20nQO84bv7fJrfx/Md8pAbfOX0c/vHo5JcNpgW4840dmP/yVuzq4Pa9xES9jGp1IS5seD1pSUgYGgClyGWPToebuR9Qh4S9eBjKDlqZpa7NIw2UWVYOePfQCSnOQp61dq84T9da17iX1TCx9B2pWOM8evM5ivn84hV07DMWKjOv2Z4px2fGH4IlnxyH+hHJLBv83cZ9mLOqBW/uPJDI/UmZoNQBKOcizKr/QdKikCA0AEqNOY/cDCVXx4e/TYVmUVpxys2vZvOMLdMHtvYKeUMk0N44tpWZqxJsBoIprh4NCC3hi8n4tyrSGIMgbvqg2I2KCpWZMhZqG3UNQJWjcNEJozDvlDEYXtM/6wXW7enEt1e14L/e29Mv9yMVglLfReOUi5MWg+ShAVBKXPrIv0PkJ/65VSnrZdqBqXQBiyI161rC7KZS0ttbw+yaHKG/JhX24IONCihN2/NHJPxFPX/UebFevO3z0+ubcoTaFzAcrAYN7OUxjK6rws2njsX59X23bHBvl4ubV2/D4jU70Jnhsj5yEDjqAsya8v2kxSBZaACUClf8ZjLSXS8DMiQ72Bsea0hpIEIR58pNFzpKeQYUWIShETvfH1FuevCxSt/mwVue3/SWrUof+WewvpFP//wiDCpbZCHOeLA+k0Gx8/3FlMdw0ug6LDtjHM4Y13vLBgXAA2/vwtw/bkFLG/d7IT1AqQNwcBpmTlmTtCgEZbvHSKXWjnUAABstSURBVOWRSd8EyJCs4gcCSj9SuQTc9fw/r33AODDzCIzm3kW/rlZuvb+h5PV+/Qx3XU6L/J5y8/pSWnlA6WkGT9Tz+x60pryV8fyh9sazQ7u3Lrft+QMRDQPRPr+o9t5xLyp/AHh9ezvO/H/r8cUnN2Hjvp4r6xe3tuO0X6zH13+/icqf9ByRQXDVTUmLQbIwAlAKXPHYkeg88D4cJ2XNaLcqYv9H2IsPhfVjFI3SOgi00w2GGI8/Uo4IOfUC04OPkjOyX9vnY/v8uqloC53b2kc9v18ekX/RHYOgmwyudjD3Y4fi8pNGY1Cqe/1sbktj7gtb8ODbuyBc1kd6E1EuBjnH4Pz6DUmLMtBhBKAUSHd9A45Khb12zyPNHwa9aom4rvKKU0ELfWv/AKOhQshr948NY8DaXpMz4PlqXrougH7Zby9Buf1oACwYRoXn5evPH/LoYciu3SMqX8D//ArUs8mpT2X4/ycq3IffvveUPwC0dbm4/sUtmPzQO7i3uRX704UV+f/sT+O6l7biuP94Bw+81UrlT3ofJQ465fykxSBAaW8rNmBwTw550d6xH8o2jYGYeXFP4Yt2LVRXNOWktdcFEE3p+ZdNZWhp7+sMbypABev6xobK11OaLepX0+qH8hIKPL95LfD5aR55qK5xzfTo49b3Bz4ToyyyroZ5Hvq/OTje39OJmc/8D654vgVfnTQcZx4+BMcMq8HRw6pxICNYv6cT63d34pH39+LR9/Yg7VLpkz7GlY8lLQKhAVAiqGOyvyWrdPXx3paQ5mljyR8G2xeIIkC7HtL7RUYhzLqewlPGNV98Y07ezD3Q69iiEGZOgHVzMeP5gRjlWYQXrox6Ibm9uhLx+UUYDlZxVLhODxW/yZ7ODO58YwfufGNHr/ZLSLdRODppEQinAEoDwVERcf7sZfGueSF/rW6gma4wcgaCCIIKCsFzr2/dmNBtDj2hLVBXrwSL4gwIH/SAA1645Ovaoghi1vdkMhRzyMLR6pphbPM8JLf5/Kbc0D4/z9v3ntG4j1ieXz8X2+fXu4qfkJJDyYSkRSCMAJQIshtQgwMeZcCLDMwJIKCpzTnokPesGQowzpVeD0Elpoz6OnoIXq+ih+Vt3r6ytA942Vro3DbNoH8mUWvnTWPAWh73+ZmGRVSkwCgPfSY2a0I/tdT1P78C0QJCyh1X7UpaBMIIQGmg1Ht5jeL901xgU4GG3HS93FBophfunet9+V621o/unOtz+YHba56xV+6LL0HZQ1EL3TDRBAjkC+Q8ZPP5dQUZSlJTCHwGXh/+85uymO2DTQMHoTwEo64Z8tf7DhkXlrp6kqAtckFIpaCwPmkRCA2A0kDh3YBCCoS4dYWI/PWAnSDBY+9c6RW9MmX8C3brK0y92OqNGoaKrtB9ZecZBCqsxHVEKwg8v2EQmEaGbhAARntNzpDi1/s15BLz84sS2vh/CfwfIdh/Md68Mp4/brUAIeXPuqQFIDQASgPl/CL72/tnCR97SlSfc4ZX11Q0Kq+I/fbaMZBXdAHlpilHq3erKce4DHU9OuDdKxA9MBSnHnkI9WkYRPrz+waBCvYVFX73Pz/t+U25vM8z8Pkh75UHPj9daOPYrGt6/7GfHxU/qXBSzoqkRSA0AEqDj/+fX0O5m/KesOlVqrD3C6+aGMe5NgFFqP/W+jCVfCDZTW/nNddcb0/J+7f0ZPa6UeF7BLozFLru4VuX8WnPH8AwNGxRCd1AMuf8o/oKtM+V+VENXXaEj/22MYpcD/Obz8zQP6lkBO9hxuTfJi0GoQFQGkxXGSC1zD+PSuzTs+j9eppy06/bvP9i56RD7T0FLflrukFi7csIhwOGftWNFN1DNo5D0wNaF9boh1bfa2OG9ws9s03x69EDa06AYXiYGf8mepjfzGlgBIBUMo6zGErxbVIlAA2AUuHUf7gDUE8HvGpd+egevdLKfQWvK2q93KbYDE9aGQfWzW50j1ZpStGQS49EhML9+gPrSlWrGzn1gAIRALHcy/b5WfrQIwzm80NT0JGfnxFpCO15YPHobfei4ieVjlKPY1b9nUmLQbLQACgVpqsMUlVfglIt9gq+q23MPxveunfZquWM+WvN0Q56xjFymuF+/Vz0SoZM3qEZ7lZancgte5V2HyO64Cvd3A+rDLnzkJyaXN0Juxe7r4DtXrYpDrE8PyGVhlIfYEjqK1DWXbxIAtAAKCUW/n0LqnAGRN4IzKMDCMwF+KFvLbxtJvD5+89r7QNz6rpnrN0rcD8goEhDnrIhY8BLlny/0Nt53rQmo39vFezbnAoIeOC2MLvePub5A7IYz+RXt4T5zXv5z6x9PrrMZvuocH8giZFRAFKBKPUSIJ/E1yZzG8oSggZAqXHbF9ZhaOo0OM5/hD1abQ7b3A0ve1Gbm1cItQ/1lW/m//aVuqHIAuXGdf+SBBWn6ajrc/im+L7RYptH1yMFku/LnKvXIyC25/cPVf7zs/kiAUOkCGcl8PnFGA5RfekRAEYBSKWh1F0Yrc5A4wkbkxaFBKG7Ucpc+ejn4MpiQE3yr9kS13RPW48I+LMGpucLWOfHxdI+2Gm0RxtZV4psb/wpWp9Jk9PWF2A/j3r+KLmKam/I39NyW11CyhnBK3AwG40nPJ+0KMQOR5tS595XqrG+ZQ7Scg0cDPOvm+H8gEI3FK9+bhoFhdqb5XkBgnJ4xzaFZzVEtINAuWGY6OH+YhVtoXNb+2I/P7N9dxU+EJYtrj0h5YZgC1KpqzFz8g8531/acKQpF5qeGIMDnbcD8hUIHKsCBqI9Z1OZx7UPKELk65sK3FTqXn+2aIB5L6uy9+SM+LO0GRMFowyINyYi5/i139b3FljuZX3GmDKbsqfyJ+WKUp1QahmG1tyIL0/ck7Q4pDAcbcqNub+eCsEyiJxuDYf7ChEIKPnAZUtdX/FEKPmofgEEowNRXr5RN3JqAuFrpuK1RhQMbz/0nGa/mhyhuhaDIrLfXJ6Bo4JtzPsV4/0TUq4o/AZOag5m1r+TtCikeDjqlCtXPvZVKPcWCI4AYHjSMYoTEeWmp+z1qRNQyGbfCpH5AEV77ea0A4y/UJviRLwxEVdXaRcjjQH99t306CM/v4i6DP+TckPwFqqcOZjZwJ39yhCONuXMwieGYFvndYBzCZTUxs61m153pMKPCcuHvFczS7+AgouaeggZDFEGAuznBRW13rdWx6bwo8LytuePiggop7CCj4t4EFLqKOyGUvPhNNyJGaoraXHIwcERpxK49omjkUkvgSv/EOml68aBqfy9uiEv3WhnSyQMRBksCr5gtMCmrHW5TcMhIFT3vPS4c2uUwpArbtoBsCt4vV1Uxr+tPSGliCgXCvejrvYanDdxW9LikJ7B0aaSuPrxs5HBUjjSEPRuI5L4ggeaQgfC0QFLXVtfAQWtt1fG5YjoQJziteUhWPuCcR6XxGjIaFLM1IJ+TVfmxbZn+J+UBeo5OM7FmFX/WtKSkN6BI06l0fR0FTrbvwmR66HUiJDH7uEf68oxzoPPndj6Qsx53H2iDAJre/N67of3sp9ASF87DxkqEV53oSmKQkmLheQvtN6fyp+UKgobodQVmDXlZ0mLQnoXjjqVylVPjYJK3wLX/QaUSgW8Z105WpWb3lGEQvQOoqYG9LpFJ+kZSjj2mncpIkIRqqviVwdYPXq9/4hnKibfIe5eVPykVBG0w1ELkRq5ADMOb0taHNL7cPSpdK7+/YmQjmVQzjT/WpxXbz221AMQUPx+X8riVWtlIcXo/bBFCIrwkiM9fONBQ2Xms8QcR5bZciJU2NuHpazQcxGSJEqtQI1zOc6v35C0KKTv4MgzULjuif8LN30bxJkQmrPXk/yUgn/RFkaHWVe7ZssbiJsuiPSqtWOR7Br7wNR/hAdvDbNrWfmw9G8+k2nEBO5jKS/Ulyln1PMTUgootQZIzUbj5JVJi0L6Ho5AA4k7/liHnXuugqsug5I6/7oeUo9T4qayizzX21u8+4CxEFXXLIuQKWC0aBT04GMUtPUzKTI6EJK1gLEQdX9C+hOltkOpazGz/j4o5SYtDukfOPIMRK753Xgo3AHgXwEUCIUbB3Ehfr19rLFQZMZ/d/bz98+LXR5oyqw/o1Gmt7fJaPZfSEZzCSRXAJCkEKSRcu7CoMHzcO7Ru5IWh/QvHHUGMtf87kxALYWSk/Jet6bUPc/alilflGes92coZZuBEOfFhxR2kV681XBAsF1or3+Jn9PvTkKfTeFHPSMh/YrzBCCX4KIpbyYtCUkGjj4DnSZx4D4xE3DmQ2Q0AIsHXygLX1fEuR8hD16rZsst0CMN1n4NQ+JgFHHguBt9HUy57XqxshLSp6h1UOpSNDY8mrQkJFk4+pAsTU8PBzI3QjATIlUA4pW/WV7QUDCuFTMdYE32C1UK17HKGXHs7SNQKLEwtn0RhkSh9oT0NUrtBXAzRqvFmN7QmbQ4JHk48pAgTU/VQ7AEIp8BYIkGAMEVAJZoQSDJr5theO9yYHqgGI/fXLVgRA+i2ndL4QeEK7596POz9E1IX6GUAHgAdWouzm1oSVocUjpwBCJ2mv77n+HK7VDyUf+azRMPePS5Als0wKsbMhYchBIJzchBnDER52WbSXaFFHjoGePKEK3Uozx7ev+kv1HyAlRqNmY1vJS0KKT04OhDoln2Ti22f3AZFOYCOCR7MWJ/ANN7N6+ZGffdam9TpJocoboWgyKyXz3hz5BTv59Z15Qr0hCJmOKIakNIbyDqQ6RkLmZO+UkuAkBICI5ApDBNzx0OdCwE1BcBUdHz/foafsOL10+KTYwrZDjoHn2kMWDeo5vhe5uMUXW7G5kgpLcR1QEHd2C0ugXTG/YlLQ4pbTgSkeJpevo0ILMMUKfYE/NMLzzCQPDP9WZxilfvW6tjizREhuUR9t6t7waI2KjIquCjkh4P0kAgpCco9Sug5lI0Hrc+aVFIecBRiHQPEYUbnjkPrnszlBobVN62CICp+L0fxWT/63175TGGg17erWkH5T1bfPQgKuM/rn0xxgAhPUHUWjjOJWisfyppUUh5wRGIHBwLnhuK9vQ8wP0mlKrp1u5+QHSovZDiBWA3KIzjQn1Hhei9PkLRAaPvqIRAm4xRz0VIT1DSCqSaMLl+Oc5S6aTFIeUHRyHSM25cOREZdxkUPhu4XkwCHxDeHAiwRBDirpv7EOTqBML3iPb+C53rBoFtKqFg+xiDhpCDQSEDON/DEOc6fG3yjqTFIeULRyHSO8x/5nNwZDEEk8Keb6GdBI3rOqH5fa1NwekAs642RaFn/sftSmiTLZTdb+lXr1vMBkGEFIV6Gqr6EjRO+lPSkpDyhyMR6T3ufaUaW9sugeteC4VhsYl/HlYlbplOMEP9ZgJg3HFUmc2rtx17baK896j8ACb+kd5CqfehcBlmTflF0qKQyoEjEul9Fq4ag470Arjqq4DrFA7jw1CcCG8WpM/JR4b0NcPBqngjym2yFLNZUKHkwTiDgZBiUGgD1K2oG7II5x59IGlxSGXBkYj0Hbc+OxUZWQaR060evJkPUPRSwG5GFszzuPl+214Cxc7/F2VYEFIkSv0U1bVX4oKJm5IWhVQmHJFI33PTs18BcCvEPaKwIrbMrZtlQNAgMM+t+QAW46PoVQkR7xWwRQC8OrYoBJP/SDEoWQ3lzMasKauSFoVUNhyNSP+wcM0QdOy5FkrmQFAb8P5tXjUQE+73f1gUbaCDwh58rEGS+xFahgh7m2JXBhBiQ8lWiHM1Ght+CKXcpMUhlQ9HJNK/LHzxaHR0LQbcL3QrVB45348CSr1QeUTYPnA9Zk1/pOESEQGIakMGLkq6IM4yfKT2Bnx54p6kxSEDB45EJBlu/sPZUM5SiDQAKH7O3qrcvRNof9EWJWzrKypj3yZTofaxdQPCEZJF1GOoSc3BhZP/krQoZODBEYkkx9NShedXXQRHmiAYET3fH6Oc46YDQuW5H93J2i8m+S+qvXc/zv8TEyVvA6k5aGx4PGlRyMCFIxJJnlteGgV03Qwl50OQCs3n6+vyYTEOdEyDIN9B4akBr00xCj/O2IhS9DQAiMJuwLkBqfrvYobqSlocMrDhiERKh4UvnIgudxmUOy17QVPknlL2zr3f5v4Atj9pP0Qv4TcC6nVs7aLecVB0+5hyMnAQ5cJRP4AadA1mfXRr0uIQAtAAIKXI7S/8G9LuAjiYELhuXRqolRWaw7ctBTyo9hHK3pYPQMVPlFqFVOpizJj8atKiEKLD0YmUJnf8sQ4d7pUQdTkcDA4pbVtWfWhpodeZZR4+Lrs/yhgo9LrgqLq2+qTyEdmEKucKzJzyUNKiEGKDoxIpbb7z8niku74D4JzI5XyFkvu880J79NuuFTIGCs33U/EPPJQ6AMFCVI28DTMOb0taHEKi4OhEyoNFL50J110KkZMABL17/1AhkDjoXUOhYwR3B/Q7KGI6IO44qj6pYNTPUetchvPrNyQtCSGF4KhEygcRBwtfmAGoGwCMDpTFzfcHdvND8Uv6oq4X84IfRgAGFgp/gsJszDrhmaRFIaRYODqR8mPxa8PRdeAGCGbBUVXWrYKL3f0vLheg2L5s/cZdI5WDqB1wnGsxevJ9mK4ySYtDSHfgqETKl0Uv1iMjS+DgM4G9AsxjWMp0ovIDbLkChbz/YvIDSPkjSAO4G86weWic0Jq0OIQcDByhSPmz8KV/gmAhlHwUQJEZ+155TN1CCp/e/8BE8CSqnEsws6E5aVEI6QkcmUhlsOydWnTuuhRwrwJwiP+n3d31/da6Ma8oLnZpISl/lHoXjroUMxseSVoUQnoDjk6ksvjuq4ejI307lPoSRFRotYAtRF/M/v8BZR+xO2Dc9AEpY9Q+OOpmTKhZjM9P7EhaGkJ6C45OpDL5zurTIJllUOqU4hP+iszs947jphmirpHyQSmBqAdR5czFjMmbkxaHkN6GIxSpXEQUlrx2LqTrFogz1r9uLhE0iU0A1NoU2kuAEYDyRdSLqHZmY0b9i0mLQkhfwdGJVD73vzUUu/c1wcW34KDGv14oY7+7EYG4uqQ8UGozBHPR2PAglJLCDQgpXzhKkYHD0tcm5nYT/ByAcAQglOSX+1EokbDY5YKkdBHVAYXFOFTdjOkN+5IWh5D+gCMUGXgsfvVzULIYrkwKhfGjXv0L2A0Azv1XAOoRVOFSzJjybtKSENKfcKQiA5N7X6nGgdRsiHsdBMMKKvJi1vzrZWYbUnoo1QwndQlmTn4yaVEISQKOUGRgs3zNGHS4t0HwNcB1/CWAoUQ/sVzTiMsHIKWFklaoqnk4fvLdOEulkxaHkKTgSEUIACxdPRVwlkHk9G5tHlSojJQOChkA9yFVcx1mTNqetDiEJA1HKkJ0lrz+ZUBug8IRACzKPfcjavUAlX9popxngKrZaJz0p6RFIaRU4GhFiMkDa4Zgt1wDwbchUgsguDeAd+7B8H/pImoDqtRlmNnw86RFIaTU4GhFSBTfXXM0gDsg8o/+NTP7P2q5Hw2BZFFog1K3YdCQhTj36ANJi0NIKcJRipBC3PWns7P7B6ABAL3/kkc9hJraK3DBxE1JS0JIKcMRi5BieFqqsPbPjYDMg8gI/zpzAEoHwavZ7XsbnktaFELKAY5WhHSHO98cBdV1E0QuAFTKv87d/5JDyVYo5xrMbPgBlHKTFoeQcoGjFSEHw91vnAjBMohMA0DFnwRKugDnu0jV3YAZH92dtDiElBsctQjpCXe+MR3A7YBMYBSgH1HqcaBqDhqPfztpUQgpVzhSEdJTHt5Yhx17roC4V0AwOGlxKhpRf0GVMwcz6x9LWhRCyh0aAIT0Fne/MR6uWgQl05MWpeIQtQcpdQOc+mWYobqSFoeQSoAGACG9zT3NZyLjLgXkpKRFKXtEuVDqh3AGXY1ZH92atDiEVBI0AAjpC0Qc3NN8AURugsjopMUpS5RaBaRmo3Hy6qRFIaQSoQFASF/yw/eGY/+++QAaoVCVtDhlgcgmOKkr0djw06RFIaSSoQFASH9wz9p6pN0lUPhM0qKULEodANQipEbcihmHtyUtDiGVDg0AQvqTu5v/EXAXQeSjSYtSUij1C6jUZZg1+f2kRSFkoEADgJD+5rF3avF+57chcjUghyQtTqKIvAHlzMZFU55OWhRCBho0AAhJivvfOhwd6QUA/h0iA+u7KGoHUrgOoxq+h+kqk7Q4hAxEBtagQ0gpcnfzaRB3GSCnJC1KnyNIw1HLgaFNaJzQmrQ4hAxkaAAQUgqIKCxv/jpc91YojE1anD5ByVOoqroEF9avTVoUQggNAEJKi/vfGorOzPUQuRgiNUmL0ysoWQ9UXYrG+l8lLQohJA8NAEJKkXuaJ8LNLIbg75MW5eBR+6DULTiq5g58fmJH0tIQQoLQACCklLl77eeAzGKImpS0KEWjlADqJ6hNzcU3jv8waXEIIXZoABBS6twr1XCbL0ZGroeSYUmLE4tSLwHObDTWv5C0KISQeGgAEFIuLH93DDJttwLq61DiJC1OENUChbmY1fBANgJACCl1aAAQUm7c/eZUIL0MgtOTFgVKdQJYjNqqm/GN4/cmLQ4hpHhoABBSrixf++8QdwEERyRyf6UeRY26FOc3rEvk/oSQHkEDgJBy5oGWIdi342q4cimU1PbPTdWbAC7BRVOe6J/7EUL6AhoAhFQC9719NDo6vwOFf+qzewh2Qal5qG+4C2epdJ/dhxDSL9AAIKSSuGft2UjLUihp6LU+RblQuA9V1ddixqTtvdYvISRRaAAQUmk8LVV4s3kWkJkPUSN61JfCSjhqNmZOWdNL0hFCSgQaAIRUKj9+cxT2uzcC7oUQpLrVVqkPAHUZGhtW9JF0hJCEoQFASKVz99snwu26Bo77TxBVHVtXqQ8A3I3RH1mG6ePb+0dAQkgS0AAgZKDww7WHoU2+AaVOA+QYQI6CqD0QvAcH7wJqBUbX/wbTVSZpUQkhhBBCCCGEEEIIIYQQQgghhBBCCCGEEEIIIYQQQgghhBBCCCGEEEIIIYQQQgghhBBCCCGEEEIIIYQQQgghhBBCCCGEEEIIIYQQQgghhBBCCCGEEEIIIYQQQgghhBBCCCGEEEIIIYQQQgghhBBCCCGEEEIIIYQQQgghhBBCCCGEEEIIIYQQQgghhBBCCCGEEEIIIYQQQgghhBBCCCGEEEIIIYQQQgghhBBCCCGEEEIIIYQQQgghhBBCCCGEEEIIIYQQQgghhBBCCCGEEEIIIYQQQgghhBBCCCGEEEIIIYQQQgghhBBCCCGEEELKhP8PrK1B3c6+GB8AAAAASUVORK5CYII=;" vertex="1" parent="Nt8Wr1XZAe8mfdTWKBez-67">
          <mxGeometry x="50" y="131.25" width="60" height="60" as="geometry" />
        </mxCell>
        <mxCell id="Nt8Wr1XZAe8mfdTWKBez-20" value="Airwatch App Catalog" style="shape=image;verticalLabelPosition=bottom;labelBackgroundColor=#ffffff;verticalAlign=top;aspect=fixed;imageAspect=0;image=data:image/png,iVBORw0KGgoAAAANSUhEUgAAAOEAAADhCAMAAAAJbSJIAAAAmVBMVEUSjdb///8amNdXuual2/JBruFiwuwAh9SCze8Pi9UAktV3w+k2m9vm9vxgueV/yOnb8vpswejU7/qh2fEtot0Tj9Yrnt1Is+Mamdf1/f5WtuVbvOZoxu08qOCu3/RuuOUAg9PK6vi94vSp1/CZ2PNPruK44vVku+aYy+uAwehasOLZ7fiZ0O7L7PiJxel3zO8ipNyn0+9Eot12z4aOAAAKhklEQVR4nO3dbXOiOhgGYOTF+MSyahUQLVTU6ra1u3v6/3/cQdv6QoIk4QniTO45H3ZnzyCXCSHBJFiWiYmJiYmJiYmJiYmJiYnJTQOVufUZ1gpAQO3wamwa3DESgtCLnIpEXhjcKREgjJz5vEqY/x9ReJfFCEFSzftBendYjBB4gr6D0aN3RwQZ4J54b0JIpIA5MbkvItCZHDCPfV/ERBroJLc+Z5nkRShZSfNqOrunxgZC+SJ0nPCehLLtzKEQ76mtkbxVfAs9cuvzFg9REkZ3VIZGaITaUj0eFwzx5IG6hYfHCQF9QMq2/53RSHQIpVUIhATJ8+/VMnt8HKLEP2WYLdPeyHEqO6rahEAWwWz17scdfYn9ofsUVTzQ0CQECJ5TnbhTfLffvBAIfV02wjskzgYNCwmZvTdTfkfjchSVXZD4QiBvWaO8r6TdEiK6kNA/zZbfT957/CYHW7gIG7wALxOPGxACzG5TgF/5GHFqKqoQ4PWWwE5nyCFiCmExuC1wT9QpBBjc2JfH7xdLEVN44yr6Fb/YI8cTLm7ayJyS6RKSsB3ATmepRwj0ZvdBJutIh5D8ubXrlFhHGZK38jrqvy93gz5GRuP0O5tsGJd/YoYvBPJRxlv+SWg+2EfJIurOv9Pt/l0v/bJC3KELyazks9LPAHHmB5l1L/I3LTG+b5GFYA+5H7ScLFDnChSFXae74ddVN0IWcu/18c5C/sWAEebpcb9cH7cMIeDdKeJX9LkeELHC7hO3pp4GixhC8swDJgT9+QjhCbtPGefjh6cyRPjtaZFygP1FfVExkDxxiZyKGh8fTs2TukIgAecq3OmYVgchV+j85RRieizEWr8BgxUEtj1ij7+0qV0eSmkQqHxc4PCEXWfNqabzn8tQ5ZOOPhomnudx2hnvGvCHKf/RkHCF3afH8mqq/iM3gL3n5WEvg01QCTwgZaedAZ3ziWv2Qhl/t6bqUzHoJPoCjpijx2/VRXjIlEp+KEy4V2K3mzHC7CCcq16FAKH3kx0jXE7FgPtIVlXwuMQ5eyX6kVNjXhtYkyPQWzEH/y0OzKuq3DkEEb8U2Yp0ACpOv4QgiU5CpqHxPRmhLVdTgd/aOOzg5slxJor3JbAS7yzMJfA+kRJKE0NO18Zhex0DT3mOMEzOStCLmJZ6KQeUvhat4MFzuk8X6bIX4i/lbuNZI7PPjLlZjAVbUnXivldEL5MwHfCtam8N6AXQ+8UcuicttBVOo5AH5oseKQsnVcKBtHBao2f1nQfmYukrCoFG+EKVQtQnLBQhkrB2IaIJi1chllChG65LGOoR1i5EvFqa6BFO687GRhMGRSBWGbZFCLYuYd1lEWjCqTZhzQsRTRhGmoR1b/powolGYa3HcXhCXbV0GhAIk2Mmsotc70AI4epsgqz/+CZ3gu0X2p/FwYHcGbZfSN3iYWKpZyx3IGR/QpL6waH9win7THdmhEZohEZohEZohEZohEZohEZohEZohEZohEaIJaSnP3CEi+OGGNUPwNsppFPvtNMFK9w9/+StevpWK4X0X+bHxzDAzunfYn9V9QtqK4XTd1ZVmlXFmbVS+K9s3RIvm+D63PhWCqXK8HdwPTyhyg/nuNehIw702UXalxkxpzEOqcK6B+S2lLMUpSS9qp12WOHjuPdLfoYp8v1wkgkC3cp9g3nC1B33qeTViCyk/9iFErykVT6+0HXd1N3KzdRB79N4IivAl9XAMmFu7EktSEDvl1KBfRiG1b4rQjddTyRqKn7Pm+4qgbwdSySEeV7ES1HD2GJa0aD6A6Gdda8K3YkwUYOQTvmLiH9SeZ8QEa6Fp83pGB/S5BpxXXmfEBGmPdEWVcsImLKHOCYV3fz5utBNRYfTesb4tF8GXFbvGigmdMeCs3M0PcUIOItADycpWEUFhOn2pkJ7uuEBOXsiKQvdtdiVqGv2JU04I6n42maB0kLBm6K2+aV0wrY2T+J1VECYDoTm6LKLEdDmtT0XjhOPZYACZbh+EClEnTPZC3v4CIwn5ISu0KpudskMWhla5KKHupEqQRGh4C0x0LSiJBcCnK23fZTzCQnFlusFzO0Cb1UQCY/jYZn7hLDwr5BQ18quw/I8Yi+/BsTZtpokL+yJddyYaop0tzgcnASvq2yY8bfpbEoItpYVlt/3KiAW7Sr4UIWQ4AvPdo+AQAmIKGRuiShleOputEBoWZc9N5SxxdkX2AIhXDY2GOPDi6PfXrh/MximcHqxBrgVwsubYu1nbZcr1dshzIkJmrCw70dLhOfXYj3htLhMvS3Cr/dI1hZO2bWxrRHu3+8wqS3k7DPQHuHeSPcj/q2acLrfzowzJG2T8FCONJxxhNPrsQ+7tfEfm+AJMwTh/oQIO0VgRypmFey/m9IDKgr7uoQWPDB7UK3q7HqpKuwxP7WiCdltrrM6S+sVhRH71HyJJQyYx9V+nd0mVYXsQ/MUSWjBf8VDx881dgxVFbIPlF0sIWev8v8aL8NZlzmJuPi4VL0MX5ivbyj0dBlTGLE/lft4wpCtIDW22FUTsndD9pG3utDKmKMP1e8XSsIZs10B25SqCy3C+QW3p76jn4qQ8/aXOHXRhDBhhb7kvh31hOzWjXk1KgLrCAlnLkWmuu+TgjAas5/P9GjqCK0Fb6LBh6W6N6oscMYDxsX7fS0hfPJmi6we1LryssJozJv8x7SktYSWxW60m2cZLhSKUVI441ZRtstWU0jYzUMPNeVZdiskaWE04E9QfWeBtYQA3ELsdDZvIHvbkBDOopHLn54ab5CFFth8YSdeedZiQSRmlIsKoyjqlr2ipPPO+moKrUX5RFjf7b99yrwSdySQfm+9KZ8Mx2lIawuBZqWft1cOH8Xji+Tq5Gmmw4YgvPo6pKbDjCpQhBbZ3hr2E5/pkeIIgXAn3zUfbjuKIbTgIbs17hC2Q4oltMj11qahfKxLgAhCi9hiK2C0AstKEEVokc9bEz9KfTjCvKKKr0bTkLj0GkQT5mNC9o0ljcUva0UxhTmxOBO2OSC3r4Yu3L/gKr1FMcb8rpoG4aEYG38naTysKEBUYV6M9PX6WibsDDfFHyn0CvdG4mVNXY/xYzqu9gnPoC1ISvemBmIlfxpAxsNMzCc8C/qCZwXnf2H/nX5uxx/6lLH/uExdQZ/E4q4jgHrnDxVC7ndAFgTsJNqOJN6JO64cI39kWZbbcpyobp/xp9wjI7Bn+7fWOsf/ylYzgOy7csP1WCwSun0EFz4dE3iFl5jPFV8AxnwjtFcyhK2XtC83vQDs4sOvufqLBguH/qUDKLhk5uw0Qn3CULb+CWUnWUl1Cq2+hmqaRrItqT5hfiVqAK6ltwDRKLTIFr8QX6Rv9zqF+M2pbEOqW5gffY0LHMjfyvQKLUhQgbI3+waEFnlx0Sqq3OYmTQktMlkjEdOB7D5DzQixmpvU7at1Jzm9NvEdUkSJs3Ft42b9otpfDqJCz9tB6nmfko+it+s6l2M63kXSP7OfPv5r9HRMjTd8X/kQoC+DHKmU8bqf0FoTsqtHwAgBCB6S2ehvTzL97eyTKkwFKXw4cP+MHekh9HdQTkn1JWkmJiYmJiYmJiYmJiYmJq3K//HWtCLSCIDdAAAAAElFTkSuQmCC;" vertex="1" parent="Nt8Wr1XZAe8mfdTWKBez-67">
          <mxGeometry x="193.5" y="146.25" width="45" height="45" as="geometry" />
        </mxCell>
        <mxCell id="Nt8Wr1XZAe8mfdTWKBez-21" value="" style="shape=curlyBracket;whiteSpace=wrap;html=1;rounded=1;fontSize=14;" vertex="1" parent="Nt8Wr1XZAe8mfdTWKBez-67">
          <mxGeometry y="87.31999999999994" width="20" height="328.43" as="geometry" />
        </mxCell>
        <mxCell id="Nt8Wr1XZAe8mfdTWKBez-32" value="Provisioning" style="text;html=1;resizable=0;points=[];autosize=1;align=left;verticalAlign=top;spacingTop=-4;fontSize=16;fontStyle=1" vertex="1" parent="Nt8Wr1XZAe8mfdTWKBez-67">
          <mxGeometry x="187.75" y="67.31999999999994" width="110" height="20" as="geometry" />
        </mxCell>
        <mxCell id="Nt8Wr1XZAe8mfdTWKBez-68" value="&lt;span&gt;The mobile application is provisioned through our MDM solution AirWatch. It is deployed to Smart Group for users that require the application.&lt;/span&gt;" style="text;html=1;align=left;verticalAlign=top;spacingTop=-4;fontSize=14;labelBackgroundColor=none;whiteSpace=wrap;" vertex="1" parent="1">
          <mxGeometry x="420" y="279" width="449" height="40" as="geometry" />
        </mxCell>
        <mxCell id="Nt8Wr1XZAe8mfdTWKBez-70" value="&lt;span&gt;Reverse Proxy takes requests from specific aws instance which are sent through SOA and on to XRM. The username is verified using Idm and data is sent back.&lt;br&gt;&lt;br&gt;If the user is approving an item, then this happens using the same process but the writing is performed in the XRM database.&lt;br&gt;&lt;br&gt;&lt;br&gt;XRM can also trigger push notifications, once triggered a request is sent out through SOA suite and out to aws PinPoint.&lt;br&gt;&lt;/span&gt;" style="text;html=1;align=left;verticalAlign=top;spacingTop=-4;fontSize=14;labelBackgroundColor=none;whiteSpace=wrap;" vertex="1" parent="1">
          <mxGeometry x="642.5" y="1344.25" width="449" height="115" as="geometry" />
        </mxCell>
      </root>
    </mxGraphModel>
  </diagram>
</mxfile>
